<?xml version="1.0" encoding="UTF-8" standalone="no"?>
<!-- Created with Inkscape (http://www.inkscape.org/) -->

<svg
   xmlns:dc="http://purl.org/dc/elements/1.1/"
   xmlns:cc="http://creativecommons.org/ns#"
   xmlns:rdf="http://www.w3.org/1999/02/22-rdf-syntax-ns#"
   xmlns:svg="http://www.w3.org/2000/svg"
   xmlns="http://www.w3.org/2000/svg"
   xmlns:sodipodi="http://sodipodi.sourceforge.net/DTD/sodipodi-0.dtd"
   xmlns:inkscape="http://www.inkscape.org/namespaces/inkscape"
   width="109.48697mm"
   height="71.771996mm"
   viewBox="0 0 387.94595 254.31022"
   id="svg6016"
   version="1.1"
   inkscape:version="0.91 r13725"
   sodipodi:docname="diagrams2.svg">
  <defs
     id="defs6018" />
  <sodipodi:namedview
     id="base"
     pagecolor="#ffffff"
     bordercolor="#666666"
     borderopacity="1.0"
     inkscape:pageopacity="0.0"
     inkscape:pageshadow="2"
     inkscape:zoom="1"
     inkscape:cx="147.90855"
     inkscape:cy="171.72096"
     inkscape:document-units="px"
     inkscape:current-layer="layer1"
     showgrid="false"
     fit-margin-top="0"
     fit-margin-left="0"
     fit-margin-right="0"
     fit-margin-bottom="0"
     inkscape:window-width="1600"
     inkscape:window-height="837"
     inkscape:window-x="0"
     inkscape:window-y="27"
     inkscape:window-maximized="1" />
  <metadata
     id="metadata6021">
    <rdf:RDF>
      <cc:Work
         rdf:about="">
        <dc:format>image/svg+xml</dc:format>
        <dc:type
           rdf:resource="http://purl.org/dc/dcmitype/StillImage" />
        <dc:title></dc:title>
      </cc:Work>
    </rdf:RDF>
  </metadata>
  <g
     inkscape:label="Layer 1"
     inkscape:groupmode="layer"
     id="layer1"
     transform="translate(-109.44122,-151.27604)">
    <g
       id="g6711">
      <path
         inkscape:connector-curvature="0"
         d="m 115.48298,201.20328 c 2.53867,2.12048 5.20999,4.042 7.99019,5.82883 3.14197,2.12897 6.20138,4.37503 9.22849,6.66324 2.99978,2.15882 5.8749,4.48087 8.84565,6.67778 2.64801,1.80512 5.22174,3.70405 7.7332,5.69324 2.45752,1.88172 5.01982,3.61618 7.54742,5.39991 2.38115,1.66256 4.89946,3.11046 7.33388,4.69026 2.57633,1.6919 5.2837,3.15251 8.07527,4.45273 2.6046,1.11369 5.10138,2.46311 7.71149,3.56206 2.48169,1.07836 5.00648,2.04319 7.5224,3.03749 2.81581,1.17396 5.65947,2.3104 8.5735,3.21875 2.65003,0.84215 5.31965,1.63082 8.04131,2.20453 2.66621,0.65123 5.34232,1.23018 8.06988,1.54639 2.3573,0.3234 4.67286,0.21211 6.99104,-0.28069 2.43156,-0.55013 4.75033,-1.50394 6.99694,-2.56867 2.141,-0.95196 4.17395,-2.14612 6.12008,-3.44752 2.25993,-1.47636 4.1957,-3.33199 6.10023,-5.22818 1.76966,-1.92796 3.13962,-4.16521 4.25249,-6.52332 1.5877,-2.6411 2.41915,-5.59379 3.61004,-8.41009 1.28405,-2.6053 2.14427,-5.2848 2.62285,-8.14511 0.38272,-2.54159 0.89215,-5.05349 1.14901,-7.61609 0.28498,-2.88676 0.74511,-5.75227 0.99557,-8.64656 0.19819,-2.49994 0.21965,-5.00866 0.23142,-7.51494 0.17479,-2.68665 -0.33328,-5.32941 -0.65636,-7.98421 -0.40713,-2.254 -1.2314,-4.39241 -1.72833,-6.61946 -0.79898,-2.60973 -1.93485,-5.07463 -3.23048,-7.47179 8.94824,14.49557 2.26188,4.33974 -0.0991,1.11992 -1.49594,-2.2297 -3.61766,-3.86009 -5.60344,-5.61889 -1.75826,-1.57239 -3.76403,-2.80209 -5.80165,-3.96979 -2.21553,-1.21266 -4.62409,-1.97756 -6.9443,-2.94971 -2.31473,-1.08958 -4.77044,-1.64021 -7.29704,-1.91635 -2.81789,-0.21183 -5.64659,-0.20625 -8.47073,-0.20476 -2.78369,-0.0238 -5.54968,0.42272 -8.26693,0.99098 -2.69665,0.5416 -5.41804,0.94419 -8.12999,1.40631 -2.83992,0.63678 -5.70405,1.13661 -8.5975,1.44745 -2.35864,0.51159 -4.76655,0.7268 -7.1382,1.15075 -2.4324,0.3802 -4.78727,1.01986 -7.11247,1.81556 -2.74383,1.10765 -5.54097,2.06819 -8.31522,3.09503 -2.84665,1.2285 -5.75374,2.34105 -8.70416,3.29667 -2.19635,0.82116 -4.31981,1.82743 -6.48498,2.73087 -2.08738,0.86357 -4.05006,1.96425 -5.9895,3.11472 -2.48008,1.60893 -4.99164,3.15173 -7.36522,4.91763 -2.1935,1.84516 -4.48766,3.56464 -6.69362,5.39467 -2.21949,1.83738 -4.48522,3.57548 -6.48576,5.65636 -1.86778,2.03462 -3.75276,4.05264 -5.66955,6.04116 -1.08952,1.30489 -0.59433,0.6387 -1.49527,1.99132 0,0 -5.3365,-8.3726 -5.3365,-8.3726 l 0,0 c 1.01513,-1.39704 0.47027,-0.71093 1.64019,-2.05386 1.91416,-1.99396 3.79037,-4.0229 5.67294,-6.04655 2.04643,-2.07826 4.35179,-3.83418 6.57483,-5.71556 2.22313,-1.83432 4.53959,-3.55043 6.75673,-5.39205 2.40577,-1.77597 4.93283,-3.36457 7.42151,-5.02001 1.97801,-1.17915 3.98106,-2.30539 6.10958,-3.19366 2.19865,-0.9015 4.3507,-1.91669 6.57624,-2.74577 2.95105,-0.89909 5.85382,-1.98965 8.67611,-3.23269 2.76917,-1.06383 5.58839,-1.98816 8.31521,-3.16173 2.36939,-0.80206 4.7576,-1.50109 7.236,-1.88552 2.39181,-0.46725 4.84098,-0.6171 7.22001,-1.18006 2.88051,-0.2594 5.73726,-0.70453 8.54672,-1.4024 2.70327,-0.43941 5.40029,-0.90792 8.0965,-1.38341 2.77761,-0.57824 5.60133,-1.11125 8.44838,-1.0833 2.84974,10e-4 5.70263,-0.0268 8.54823,0.15507 2.61573,0.20022 5.1675,0.67085 7.57076,1.77798 2.33188,1.00501 4.74864,1.78176 7.04342,2.87732 2.06762,1.19838 4.16895,2.34419 5.99699,3.9062 1.99425,1.79459 4.20568,3.36479 5.79208,5.55444 3.77754,4.97086 7.14028,10.18609 9.95238,15.79555 1.26496,2.44691 2.35415,4.99255 3.07102,7.65807 0.60745,2.21166 1.30535,4.40436 1.62563,6.68423 0.33021,2.67977 0.70369,5.35801 0.55696,8.06729 -0.0303,2.51592 -0.0661,5.03537 -0.31737,7.54106 -0.29614,2.8971 -0.7504,5.77506 -0.99366,8.67719 -0.3111,2.56185 -0.81891,5.08741 -1.22224,7.63497 -0.57628,2.88164 -1.52856,5.59837 -2.80658,8.24636 -1.15619,2.85021 -2.09888,5.77889 -3.65186,8.45487 -1.21599,2.42636 -2.61637,4.75758 -4.52776,6.70932 -1.95234,1.9372 -3.9577,3.8114 -6.25182,5.34627 -1.98419,1.33056 -4.05801,2.55579 -6.24532,3.52158 -2.3091,1.09994 -4.70066,2.06616 -7.19256,2.66352 -2.40112,0.58583 -4.81733,0.75839 -7.27949,0.4489 -2.76428,-0.29609 -5.47995,-0.85364 -8.16835,-1.56172 -2.75652,-0.49969 -5.45626,-1.257 -8.11328,-2.14368 -2.96496,-0.81927 -5.8045,-2.06071 -8.66017,-3.19303 -2.51145,-0.9899 -5.04897,-1.90264 -7.5158,-2.99989 -2.65675,-1.04128 -5.13162,-2.47805 -7.76516,-3.57612 -2.84232,-1.27758 -5.59587,-2.72106 -8.22115,-4.40457 -2.40988,-1.62003 -4.95547,-3.01692 -7.3578,-4.64971 -2.5134,-1.83249 -5.10644,-3.55178 -7.60128,-5.41147 -2.51294,-1.97228 -5.01066,-3.95932 -7.7017,-5.69329 -2.98046,-2.21855 -5.85093,-4.57698 -8.88049,-6.73095 -2.99689,-2.28601 -6.04074,-4.50884 -9.1404,-6.65381 -2.75266,-1.76901 -5.50074,-3.54389 -7.96011,-5.71873 0,0 -4.00016,-9.14253 -4.00016,-9.14253 z"
         id="path6572"
         style="fill:#000000;fill-opacity:1;fill-rule:nonzero;stroke:#000000;stroke-width:0.171;stroke-miterlimit:4;stroke-dasharray:none;stroke-dashoffset:0;stroke-opacity:1" />
      <path
         style="fill:#000000;fill-opacity:1;fill-rule:nonzero;stroke:#000000;stroke-width:0.171;stroke-miterlimit:4;stroke-dasharray:none;stroke-dashoffset:0;stroke-opacity:1"
         id="path6576"
         d="m 168.01091,201.20328 c 2.53867,2.12048 5.20999,4.042 7.99019,5.82883 3.14197,2.12897 6.20138,4.37503 9.22849,6.66324 2.99978,2.15882 5.8749,4.48087 8.84565,6.67778 2.64801,1.80512 5.22174,3.70405 7.7332,5.69324 2.45752,1.88172 5.01982,3.61618 7.54742,5.39991 2.38115,1.66256 4.89946,3.11046 7.33388,4.69026 2.57633,1.6919 5.2837,3.15251 8.07527,4.45273 2.6046,1.11369 5.10138,2.46311 7.71149,3.56206 2.48169,1.07836 5.00648,2.04319 7.5224,3.03749 2.81581,1.17396 5.65947,2.3104 8.5735,3.21875 2.65003,0.84215 5.31965,1.63082 8.04131,2.20453 2.66621,0.65123 5.34232,1.23018 8.06988,1.54639 2.3573,0.3234 4.67286,0.21211 6.99104,-0.28069 2.43156,-0.55013 4.75033,-1.50394 6.99694,-2.56867 2.141,-0.95196 4.17395,-2.14612 6.12008,-3.44752 2.25993,-1.47636 4.1957,-3.33199 6.10023,-5.22818 1.76966,-1.92796 3.13962,-4.16521 4.25249,-6.52332 1.5877,-2.6411 2.41915,-5.59379 3.61004,-8.41009 1.28405,-2.6053 2.14427,-5.2848 2.62285,-8.14511 0.38272,-2.54159 0.89215,-5.05349 1.14901,-7.61609 0.28498,-2.88676 0.74511,-5.75227 0.99557,-8.64656 0.19819,-2.49994 0.21965,-5.00866 0.23142,-7.51494 0.17479,-2.68665 -0.33328,-5.32941 -0.65636,-7.98421 -0.40713,-2.254 -1.2314,-4.39241 -1.72833,-6.61946 -0.79898,-2.60973 -1.93485,-5.07463 -3.23048,-7.47179 8.94824,14.49557 2.26188,4.33974 -0.0991,1.11992 -1.49594,-2.2297 -3.61766,-3.86009 -5.60344,-5.61889 -1.75826,-1.57239 -3.76403,-2.80209 -5.80165,-3.96979 -2.21553,-1.21266 -4.62409,-1.97756 -6.9443,-2.94971 -2.31473,-1.08958 -4.77044,-1.64021 -7.29704,-1.91635 -2.81789,-0.21183 -5.64659,-0.20625 -8.47073,-0.20476 -2.78369,-0.0238 -5.54968,0.42272 -8.26693,0.99098 -2.69665,0.5416 -5.41804,0.94419 -8.12999,1.40631 -2.83992,0.63678 -5.70405,1.13661 -8.5975,1.44745 -2.35864,0.51159 -4.76655,0.7268 -7.1382,1.15075 -2.4324,0.3802 -4.78727,1.01986 -7.11247,1.81556 -2.74383,1.10765 -5.54097,2.06819 -8.31522,3.09503 -2.84665,1.2285 -5.75374,2.34105 -8.70416,3.29667 -2.19635,0.82116 -4.31981,1.82743 -6.48498,2.73087 -2.08738,0.86357 -4.05006,1.96425 -5.9895,3.11472 -2.48008,1.60893 -4.99164,3.15173 -7.36522,4.91763 -2.1935,1.84516 -4.48766,3.56464 -6.69362,5.39467 -2.21949,1.83738 -4.48522,3.57548 -6.48576,5.65636 -1.86778,2.03462 -3.75276,4.05264 -5.66955,6.04116 -1.08952,1.30489 -0.59433,0.6387 -1.49527,1.99132 0,0 -5.3365,-8.3726 -5.3365,-8.3726 l 0,0 c 1.01513,-1.39704 0.47027,-0.71093 1.64019,-2.05386 1.91416,-1.99396 3.79037,-4.0229 5.67294,-6.04655 2.04643,-2.07826 4.35179,-3.83418 6.57483,-5.71556 2.22313,-1.83432 4.53959,-3.55043 6.75673,-5.39205 2.40577,-1.77597 4.93283,-3.36457 7.42151,-5.02001 1.97801,-1.17915 3.98106,-2.30539 6.10958,-3.19366 2.19865,-0.9015 4.3507,-1.91669 6.57624,-2.74577 2.95105,-0.89909 5.85382,-1.98965 8.67611,-3.23269 2.76917,-1.06383 5.58839,-1.98816 8.31521,-3.16173 2.36939,-0.80206 4.7576,-1.50109 7.236,-1.88552 2.39181,-0.46725 4.84098,-0.6171 7.22001,-1.18006 2.88051,-0.2594 5.73726,-0.70453 8.54672,-1.4024 2.70327,-0.43941 5.40029,-0.90792 8.0965,-1.38341 2.77761,-0.57824 5.60133,-1.11125 8.44838,-1.0833 2.84974,10e-4 5.70263,-0.0268 8.54823,0.15507 2.61573,0.20022 5.1675,0.67085 7.57076,1.77798 2.33188,1.00501 4.74864,1.78176 7.04342,2.87732 2.06762,1.19838 4.16895,2.34419 5.99699,3.9062 1.99425,1.79459 4.20568,3.36479 5.79208,5.55444 3.77754,4.97086 7.14028,10.18609 9.95238,15.79555 1.26496,2.44691 2.35415,4.99255 3.07102,7.65807 0.60745,2.21166 1.30535,4.40436 1.62563,6.68423 0.33021,2.67977 0.70369,5.35801 0.55696,8.06729 -0.0303,2.51592 -0.0661,5.03537 -0.31737,7.54106 -0.29614,2.8971 -0.7504,5.77506 -0.99366,8.67719 -0.3111,2.56185 -0.81891,5.08741 -1.22224,7.63497 -0.57628,2.88164 -1.52856,5.59837 -2.80658,8.24636 -1.15619,2.85021 -2.09888,5.77889 -3.65186,8.45487 -1.21599,2.42636 -2.61637,4.75758 -4.52776,6.70932 -1.95234,1.9372 -3.9577,3.8114 -6.25182,5.34627 -1.98419,1.33056 -4.05801,2.55579 -6.24532,3.52158 -2.3091,1.09994 -4.70066,2.06616 -7.19256,2.66352 -2.40112,0.58583 -4.81733,0.75839 -7.27949,0.4489 -2.76428,-0.29609 -5.47995,-0.85364 -8.16835,-1.56172 -2.75652,-0.49969 -5.45626,-1.257 -8.11328,-2.14368 -2.96496,-0.81927 -5.8045,-2.06071 -8.66017,-3.19303 -2.51145,-0.9899 -5.04897,-1.90264 -7.5158,-2.99989 -2.65675,-1.04128 -5.13162,-2.47805 -7.76516,-3.57612 -2.84232,-1.27758 -5.59587,-2.72106 -8.22115,-4.40457 -2.40988,-1.62003 -4.95547,-3.01692 -7.3578,-4.64971 -2.5134,-1.83249 -5.10644,-3.55178 -7.60128,-5.41147 -2.51294,-1.97228 -5.01066,-3.95932 -7.7017,-5.69329 -2.98046,-2.21855 -5.85093,-4.57698 -8.88049,-6.73095 -2.99689,-2.28601 -6.04074,-4.50884 -9.1404,-6.65381 -2.75266,-1.76901 -5.50074,-3.54389 -7.96011,-5.71873 0,0 -4.00016,-9.14253 -4.00016,-9.14253 z"
         inkscape:connector-curvature="0" />
      <path
         inkscape:connector-curvature="0"
         d="m 227.63022,201.20328 c 2.53867,2.12048 5.20999,4.042 7.99019,5.82883 3.14197,2.12897 6.20138,4.37503 9.22849,6.66324 2.99978,2.15882 5.8749,4.48087 8.84565,6.67778 2.64801,1.80512 5.22174,3.70405 7.7332,5.69324 2.45752,1.88172 5.01982,3.61618 7.54742,5.39991 2.38115,1.66256 4.89946,3.11046 7.33388,4.69026 2.57633,1.6919 5.2837,3.15251 8.07527,4.45273 2.6046,1.11369 5.10138,2.46311 7.71149,3.56206 2.48169,1.07836 5.00648,2.04319 7.5224,3.03749 2.81581,1.17396 5.65947,2.3104 8.5735,3.21875 2.65003,0.84215 5.31965,1.63082 8.04131,2.20453 2.66621,0.65123 5.34232,1.23018 8.06988,1.54639 2.3573,0.3234 4.67286,0.21211 6.99104,-0.28069 2.43156,-0.55013 4.75033,-1.50394 6.99694,-2.56867 2.141,-0.95196 4.17395,-2.14612 6.12008,-3.44752 2.25993,-1.47636 4.1957,-3.33199 6.10023,-5.22818 1.76966,-1.92796 3.13962,-4.16521 4.25249,-6.52332 1.5877,-2.6411 2.41915,-5.59379 3.61004,-8.41009 1.28405,-2.6053 2.14427,-5.2848 2.62285,-8.14511 0.38272,-2.54159 0.89215,-5.05349 1.14901,-7.61609 0.28498,-2.88676 0.74511,-5.75227 0.99557,-8.64656 0.19819,-2.49994 0.21965,-5.00866 0.23142,-7.51494 0.17479,-2.68665 -0.33328,-5.32941 -0.65636,-7.98421 -0.40713,-2.254 -1.2314,-4.39241 -1.72833,-6.61946 -0.79898,-2.60973 -1.93485,-5.07463 -3.23048,-7.47179 8.94824,14.49557 2.26188,4.33974 -0.0991,1.11992 -1.49594,-2.2297 -3.61766,-3.86009 -5.60344,-5.61889 -1.75826,-1.57239 -3.76403,-2.80209 -5.80165,-3.96979 -2.21553,-1.21266 -4.62409,-1.97756 -6.9443,-2.94971 -2.31473,-1.08958 -4.77044,-1.64021 -7.29704,-1.91635 -2.81789,-0.21183 -5.64659,-0.20625 -8.47073,-0.20476 -2.78369,-0.0238 -5.54968,0.42272 -8.26693,0.99098 -2.69665,0.5416 -5.41804,0.94419 -8.12999,1.40631 -2.83992,0.63678 -5.70405,1.13661 -8.5975,1.44745 -2.35864,0.51159 -4.76655,0.7268 -7.1382,1.15075 -2.4324,0.3802 -4.78727,1.01986 -7.11247,1.81556 -2.74383,1.10765 -5.54097,2.06819 -8.31522,3.09503 -2.84665,1.2285 -5.75374,2.34105 -8.70416,3.29667 -2.19635,0.82116 -4.31981,1.82743 -6.48498,2.73087 -2.08738,0.86357 -4.05006,1.96425 -5.9895,3.11472 -2.48008,1.60893 -4.99164,3.15173 -7.36522,4.91763 -2.1935,1.84516 -4.48766,3.56464 -6.69362,5.39467 -2.21949,1.83738 -4.48522,3.57548 -6.48576,5.65636 -1.86778,2.03462 -3.75276,4.05264 -5.66955,6.04116 -1.08952,1.30489 -0.59433,0.6387 -1.49527,1.99132 0,0 -5.3365,-8.3726 -5.3365,-8.3726 l 0,0 c 1.01513,-1.39704 0.47027,-0.71093 1.64019,-2.05386 1.91416,-1.99396 3.79037,-4.0229 5.67294,-6.04655 2.04643,-2.07826 4.35179,-3.83418 6.57483,-5.71556 2.22313,-1.83432 4.53959,-3.55043 6.75673,-5.39205 2.40577,-1.77597 4.93283,-3.36457 7.42151,-5.02001 1.97801,-1.17915 3.98106,-2.30539 6.10958,-3.19366 2.19865,-0.9015 4.3507,-1.91669 6.57624,-2.74577 2.95105,-0.89909 5.85382,-1.98965 8.67611,-3.23269 2.76917,-1.06383 5.58839,-1.98816 8.31521,-3.16173 2.36939,-0.80206 4.7576,-1.50109 7.236,-1.88552 2.39181,-0.46725 4.84098,-0.6171 7.22001,-1.18006 2.88051,-0.2594 5.73726,-0.70453 8.54672,-1.4024 2.70327,-0.43941 5.40029,-0.90792 8.0965,-1.38341 2.77761,-0.57824 5.60133,-1.11125 8.44838,-1.0833 2.84974,10e-4 5.70263,-0.0268 8.54823,0.15507 2.61573,0.20022 5.1675,0.67085 7.57076,1.77798 2.33188,1.00501 4.74864,1.78176 7.04342,2.87732 2.06762,1.19838 4.16895,2.34419 5.99699,3.9062 1.99425,1.79459 4.20568,3.36479 5.79208,5.55444 3.77754,4.97086 7.14028,10.18609 9.95238,15.79555 1.26496,2.44691 2.35415,4.99255 3.07102,7.65807 0.60745,2.21166 1.30535,4.40436 1.62563,6.68423 0.33021,2.67977 0.70369,5.35801 0.55696,8.06729 -0.0303,2.51592 -0.0661,5.03537 -0.31737,7.54106 -0.29614,2.8971 -0.7504,5.77506 -0.99366,8.67719 -0.3111,2.56185 -0.81891,5.08741 -1.22224,7.63497 -0.57628,2.88164 -1.52856,5.59837 -2.80658,8.24636 -1.15619,2.85021 -2.09888,5.77889 -3.65186,8.45487 -1.21599,2.42636 -2.61637,4.75758 -4.52776,6.70932 -1.95234,1.9372 -3.9577,3.8114 -6.25182,5.34627 -1.98419,1.33056 -4.05801,2.55579 -6.24532,3.52158 -2.3091,1.09994 -4.70066,2.06616 -7.19256,2.66352 -2.40112,0.58583 -4.81733,0.75839 -7.27949,0.4489 -2.76428,-0.29609 -5.47995,-0.85364 -8.16835,-1.56172 -2.75652,-0.49969 -5.45626,-1.257 -8.11328,-2.14368 -2.96496,-0.81927 -5.8045,-2.06071 -8.66017,-3.19303 -2.51145,-0.9899 -5.04897,-1.90264 -7.5158,-2.99989 -2.65675,-1.04128 -5.13162,-2.47805 -7.76516,-3.57612 -2.84232,-1.27758 -5.59587,-2.72106 -8.22115,-4.40457 -2.40988,-1.62003 -4.95547,-3.01692 -7.3578,-4.64971 -2.5134,-1.83249 -5.10644,-3.55178 -7.60128,-5.41147 -2.51294,-1.97228 -5.01066,-3.95932 -7.7017,-5.69329 -2.98046,-2.21855 -5.85093,-4.57698 -8.88049,-6.73095 -2.99689,-2.28601 -6.04074,-4.50884 -9.1404,-6.65381 -2.75266,-1.76901 -5.50074,-3.54389 -7.96011,-5.71873 0,0 -4.00016,-9.14253 -4.00016,-9.14253 z"
         id="path6578"
         style="fill:#000000;fill-opacity:1;fill-rule:nonzero;stroke:#000000;stroke-width:0.171;stroke-miterlimit:4;stroke-dasharray:none;stroke-dashoffset:0;stroke-opacity:1" />
      <path
         style="fill:#000000;fill-opacity:1;fill-rule:nonzero;stroke:#000000;stroke-width:0.171;stroke-miterlimit:4;stroke-dasharray:none;stroke-dashoffset:0;stroke-opacity:1"
         id="path6580"
         d="m 280.13785,201.20328 c 2.53867,2.12048 5.20999,4.042 7.99019,5.82883 3.14197,2.12897 6.20138,4.37503 9.22849,6.66324 2.99978,2.15882 5.8749,4.48087 8.84565,6.67778 2.64801,1.80512 5.22174,3.70405 7.7332,5.69324 2.45752,1.88172 5.01982,3.61618 7.54742,5.39991 2.38115,1.66256 4.89946,3.11046 7.33388,4.69026 2.57633,1.6919 5.2837,3.15251 8.07527,4.45273 2.6046,1.11369 5.10138,2.46311 7.71149,3.56206 2.48169,1.07836 5.00648,2.04319 7.5224,3.03749 2.81581,1.17396 5.65947,2.3104 8.5735,3.21875 2.65003,0.84215 5.31965,1.63082 8.04131,2.20453 2.66621,0.65123 5.34232,1.23018 8.06988,1.54639 2.3573,0.3234 4.67286,0.21211 6.99104,-0.28069 2.43156,-0.55013 4.75033,-1.50394 6.99694,-2.56867 2.141,-0.95196 4.17395,-2.14612 6.12008,-3.44752 2.25993,-1.47636 4.1957,-3.33199 6.10023,-5.22818 1.76966,-1.92796 3.13962,-4.16521 4.25249,-6.52332 1.5877,-2.6411 2.41915,-5.59379 3.61004,-8.41009 1.28405,-2.6053 2.14427,-5.2848 2.62285,-8.14511 0.38272,-2.54159 0.89215,-5.05349 1.14901,-7.61609 0.28498,-2.88676 0.74511,-5.75227 0.99557,-8.64656 0.19819,-2.49994 0.21965,-5.00866 0.23142,-7.51494 0.17479,-2.68665 -0.33328,-5.32941 -0.65636,-7.98421 -0.40713,-2.254 -1.2314,-4.39241 -1.72833,-6.61946 -0.79898,-2.60973 -1.93485,-5.07463 -3.23048,-7.47179 8.94824,14.49557 2.26188,4.33974 -0.0991,1.11992 -1.49594,-2.2297 -3.61766,-3.86009 -5.60344,-5.61889 -1.75826,-1.57239 -3.76403,-2.80209 -5.80165,-3.96979 -2.21553,-1.21266 -4.62409,-1.97756 -6.9443,-2.94971 -2.31473,-1.08958 -4.77044,-1.64021 -7.29704,-1.91635 -2.81789,-0.21183 -5.64659,-0.20625 -8.47073,-0.20476 -2.78369,-0.0238 -5.54968,0.42272 -8.26693,0.99098 -2.69665,0.5416 -5.41804,0.94419 -8.12999,1.40631 -2.83992,0.63678 -5.70405,1.13661 -8.5975,1.44745 -2.35864,0.51159 -4.76655,0.7268 -7.1382,1.15075 -2.4324,0.3802 -4.78727,1.01986 -7.11247,1.81556 -2.74383,1.10765 -5.54097,2.06819 -8.31522,3.09503 -2.84665,1.2285 -5.75374,2.34105 -8.70416,3.29667 -2.19635,0.82116 -4.31981,1.82743 -6.48498,2.73087 -2.08738,0.86357 -4.05006,1.96425 -5.9895,3.11472 -2.48008,1.60893 -4.99164,3.15173 -7.36522,4.91763 -2.1935,1.84516 -4.48766,3.56464 -6.69362,5.39467 -2.21949,1.83738 -4.48522,3.57548 -6.48576,5.65636 -1.86778,2.03462 -3.75276,4.05264 -5.66955,6.04116 -1.08952,1.30489 -0.59433,0.6387 -1.49527,1.99132 0,0 -5.3365,-8.3726 -5.3365,-8.3726 l 0,0 c 1.01513,-1.39704 0.47027,-0.71093 1.64019,-2.05386 1.91416,-1.99396 3.79037,-4.0229 5.67294,-6.04655 2.04643,-2.07826 4.35179,-3.83418 6.57483,-5.71556 2.22313,-1.83432 4.53959,-3.55043 6.75673,-5.39205 2.40577,-1.77597 4.93283,-3.36457 7.42151,-5.02001 1.97801,-1.17915 3.98106,-2.30539 6.10958,-3.19366 2.19865,-0.9015 4.3507,-1.91669 6.57624,-2.74577 2.95105,-0.89909 5.85382,-1.98965 8.67611,-3.23269 2.76917,-1.06383 5.58839,-1.98816 8.31521,-3.16173 2.36939,-0.80206 4.7576,-1.50109 7.236,-1.88552 2.39181,-0.46725 4.84098,-0.6171 7.22001,-1.18006 2.88051,-0.2594 5.73726,-0.70453 8.54672,-1.4024 2.70327,-0.43941 5.40029,-0.90792 8.0965,-1.38341 2.77761,-0.57824 5.60133,-1.11125 8.44838,-1.0833 2.84974,10e-4 5.70263,-0.0268 8.54823,0.15507 2.61573,0.20022 5.1675,0.67085 7.57076,1.77798 2.33188,1.00501 4.74864,1.78176 7.04342,2.87732 2.06762,1.19838 4.16895,2.34419 5.99699,3.9062 1.99425,1.79459 4.20568,3.36479 5.79208,5.55444 3.77754,4.97086 7.14028,10.18609 9.95238,15.79555 1.26496,2.44691 2.35415,4.99255 3.07102,7.65807 0.60745,2.21166 1.30535,4.40436 1.62563,6.68423 0.33021,2.67977 0.70369,5.35801 0.55696,8.06729 -0.0303,2.51592 -0.0661,5.03537 -0.31737,7.54106 -0.29614,2.8971 -0.7504,5.77506 -0.99366,8.67719 -0.3111,2.56185 -0.81891,5.08741 -1.22224,7.63497 -0.57628,2.88164 -1.52856,5.59837 -2.80658,8.24636 -1.15619,2.85021 -2.09888,5.77889 -3.65186,8.45487 -1.21599,2.42636 -2.61637,4.75758 -4.52776,6.70932 -1.95234,1.9372 -3.9577,3.8114 -6.25182,5.34627 -1.98419,1.33056 -4.05801,2.55579 -6.24532,3.52158 -2.3091,1.09994 -4.70066,2.06616 -7.19256,2.66352 -2.40112,0.58583 -4.81733,0.75839 -7.27949,0.4489 -2.76428,-0.29609 -5.47995,-0.85364 -8.16835,-1.56172 -2.75652,-0.49969 -5.45626,-1.257 -8.11328,-2.14368 -2.96496,-0.81927 -5.8045,-2.06071 -8.66017,-3.19303 -2.51145,-0.9899 -5.04897,-1.90264 -7.5158,-2.99989 -2.65675,-1.04128 -5.13162,-2.47805 -7.76516,-3.57612 -2.84232,-1.27758 -5.59587,-2.72106 -8.22115,-4.40457 -2.40988,-1.62003 -4.95547,-3.01692 -7.3578,-4.64971 -2.5134,-1.83249 -5.10644,-3.55178 -7.60128,-5.41147 -2.51294,-1.97228 -5.01066,-3.95932 -7.7017,-5.69329 -2.98046,-2.21855 -5.85093,-4.57698 -8.88049,-6.73095 -2.99689,-2.28601 -6.04074,-4.50884 -9.1404,-6.65381 -2.75266,-1.76901 -5.50074,-3.54389 -7.96011,-5.71873 0,0 -4.00016,-9.14253 -4.00016,-9.14253 z"
         inkscape:connector-curvature="0" />
      <path
         style="fill:#000000;fill-opacity:1;fill-rule:nonzero;stroke:#000000;stroke-width:0.171;stroke-miterlimit:4;stroke-dasharray:none;stroke-dashoffset:0;stroke-opacity:1"
         id="path6600"
         d="m 115.48298,333.53326 c 2.53867,2.12048 5.20999,4.042 7.99019,5.82883 3.14197,2.12897 6.20138,4.37503 9.22849,6.66324 2.99978,2.15882 5.8749,4.48087 8.84565,6.67778 2.64801,1.80512 5.22174,3.70405 7.7332,5.69324 2.45752,1.88172 5.01982,3.61618 7.54742,5.39991 2.38115,1.66256 4.89946,3.11046 7.33388,4.69026 2.57633,1.6919 5.2837,3.15251 8.07527,4.45273 2.6046,1.11369 5.10138,2.46311 7.71149,3.56206 2.48169,1.07836 5.00648,2.04319 7.5224,3.03749 2.81581,1.17396 5.65947,2.3104 8.5735,3.21875 2.65003,0.84215 5.31965,1.63082 8.04131,2.20453 2.66621,0.65123 5.34232,1.23018 8.06988,1.54639 2.3573,0.3234 4.67286,0.21211 6.99104,-0.28069 2.43156,-0.55013 4.75033,-1.50394 6.99694,-2.56867 2.141,-0.95196 4.17395,-2.14612 6.12008,-3.44752 2.25993,-1.47636 4.1957,-3.33199 6.10023,-5.22818 1.76966,-1.92796 3.13962,-4.16521 4.25249,-6.52332 1.5877,-2.6411 2.41915,-5.59379 3.61004,-8.41009 1.28405,-2.6053 2.14427,-5.2848 2.62285,-8.14511 0.38272,-2.54159 0.89215,-5.05349 1.14901,-7.61609 0.28498,-2.88676 0.74511,-5.75227 0.99557,-8.64656 0.19819,-2.49994 0.21965,-5.00866 0.23142,-7.51494 0.17479,-2.68665 -0.33328,-5.32941 -0.65636,-7.98421 -0.40713,-2.254 -1.2314,-4.39241 -1.72833,-6.61946 -0.79898,-2.60973 -1.93485,-5.07463 -3.23048,-7.47179 8.94824,14.49557 2.26188,4.33974 -0.0991,1.11992 -1.49594,-2.2297 -3.61766,-3.86009 -5.60344,-5.61889 -1.75826,-1.57239 -3.76403,-2.80209 -5.80165,-3.96979 -2.21553,-1.21266 -4.62409,-1.97756 -6.9443,-2.94971 -2.31473,-1.08958 -4.77044,-1.64021 -7.29704,-1.91635 -2.81789,-0.21183 -5.64659,-0.20625 -8.47073,-0.20476 -2.78369,-0.0238 -5.54968,0.42272 -8.26693,0.99098 -2.69665,0.5416 -5.41804,0.94419 -8.12999,1.40631 -2.83992,0.63678 -5.70405,1.13661 -8.5975,1.44745 -2.35864,0.51159 -4.76655,0.7268 -7.1382,1.15075 -2.4324,0.3802 -4.78727,1.01986 -7.11247,1.81556 -2.74383,1.10765 -5.54097,2.06819 -8.31522,3.09503 -2.84665,1.2285 -5.75374,2.34105 -8.70416,3.29667 -2.19635,0.82116 -4.31981,1.82743 -6.48498,2.73087 -2.08738,0.86357 -4.05006,1.96425 -5.9895,3.11472 -2.48008,1.60893 -4.99164,3.15173 -7.36522,4.91763 -2.1935,1.84516 -4.48766,3.56464 -6.69362,5.39467 -2.21949,1.83738 -4.48522,3.57548 -6.48576,5.65636 -1.86778,2.03462 -3.75276,4.05264 -5.66955,6.04116 -1.08952,1.30489 -0.59433,0.6387 -1.49527,1.99132 0,0 -5.3365,-8.3726 -5.3365,-8.3726 l 0,0 c 1.01513,-1.39704 0.47027,-0.71093 1.64019,-2.05386 1.91416,-1.99396 3.79037,-4.0229 5.67294,-6.04655 2.04643,-2.07826 4.35179,-3.83418 6.57483,-5.71556 2.22313,-1.83432 4.53959,-3.55043 6.75673,-5.39205 2.40577,-1.77597 4.93283,-3.36457 7.42151,-5.02001 1.97801,-1.17915 3.98106,-2.30539 6.10958,-3.19366 2.19865,-0.9015 4.3507,-1.91669 6.57624,-2.74577 2.95105,-0.89909 5.85382,-1.98965 8.67611,-3.23269 2.76917,-1.06383 5.58839,-1.98816 8.31521,-3.16173 2.36939,-0.80206 4.7576,-1.50109 7.236,-1.88552 2.39181,-0.46725 4.84098,-0.6171 7.22001,-1.18006 2.88051,-0.2594 5.73726,-0.70453 8.54672,-1.4024 2.70327,-0.43941 5.40029,-0.90792 8.0965,-1.38341 2.77761,-0.57824 5.60133,-1.11125 8.44838,-1.0833 2.84974,0.001 5.70263,-0.0268 8.54823,0.15507 2.61573,0.20022 5.1675,0.67085 7.57076,1.77798 2.33188,1.00501 4.74864,1.78176 7.04342,2.87732 2.06762,1.19838 4.16895,2.34419 5.99699,3.9062 1.99425,1.79459 4.20568,3.36479 5.79208,5.55444 3.77754,4.97086 7.14028,10.18609 9.95238,15.79555 1.26496,2.44691 2.35415,4.99255 3.07102,7.65807 0.60745,2.21166 1.30535,4.40436 1.62563,6.68423 0.33021,2.67977 0.70369,5.35801 0.55696,8.06729 -0.0303,2.51592 -0.0661,5.03537 -0.31737,7.54106 -0.29614,2.8971 -0.7504,5.77506 -0.99366,8.67719 -0.3111,2.56185 -0.81891,5.08741 -1.22224,7.63497 -0.57628,2.88164 -1.52856,5.59837 -2.80658,8.24636 -1.15619,2.85021 -2.09888,5.77889 -3.65186,8.45487 -1.21599,2.42636 -2.61637,4.75758 -4.52776,6.70932 -1.95234,1.9372 -3.9577,3.8114 -6.25182,5.34627 -1.98419,1.33056 -4.05801,2.55579 -6.24532,3.52158 -2.3091,1.09994 -4.70066,2.06616 -7.19256,2.66352 -2.40112,0.58583 -4.81733,0.75839 -7.27949,0.4489 -2.76428,-0.29609 -5.47995,-0.85364 -8.16835,-1.56172 -2.75652,-0.49969 -5.45626,-1.257 -8.11328,-2.14368 -2.96496,-0.81927 -5.8045,-2.06071 -8.66017,-3.19303 -2.51145,-0.9899 -5.04897,-1.90264 -7.5158,-2.99989 -2.65675,-1.04128 -5.13162,-2.47805 -7.76516,-3.57612 -2.84232,-1.27758 -5.59587,-2.72106 -8.22115,-4.40457 -2.40988,-1.62003 -4.95547,-3.01692 -7.3578,-4.64971 -2.5134,-1.83249 -5.10644,-3.55178 -7.60128,-5.41147 -2.51294,-1.97228 -5.01066,-3.95932 -7.7017,-5.69329 -2.98046,-2.21855 -5.85093,-4.57698 -8.88049,-6.73095 -2.99689,-2.28601 -6.04074,-4.50884 -9.1404,-6.65381 -2.75266,-1.76901 -5.50074,-3.54389 -7.96011,-5.71873 0,0 -4.00016,-9.14253 -4.00016,-9.14253 z"
         inkscape:connector-curvature="0" />
      <path
         inkscape:connector-curvature="0"
         d="m 168.01091,333.53326 c 2.53867,2.12048 5.20999,4.042 7.99019,5.82883 3.14197,2.12897 6.20138,4.37503 9.22849,6.66324 2.99978,2.15882 5.8749,4.48087 8.84565,6.67778 2.64801,1.80512 5.22174,3.70405 7.7332,5.69324 2.45752,1.88172 5.01982,3.61618 7.54742,5.39991 2.38115,1.66256 4.89946,3.11046 7.33388,4.69026 2.57633,1.6919 5.2837,3.15251 8.07527,4.45273 2.6046,1.11369 5.10138,2.46311 7.71149,3.56206 2.48169,1.07836 5.00648,2.04319 7.5224,3.03749 2.81581,1.17396 5.65947,2.3104 8.5735,3.21875 2.65003,0.84215 5.31965,1.63082 8.04131,2.20453 2.66621,0.65123 5.34232,1.23018 8.06988,1.54639 2.3573,0.3234 4.67286,0.21211 6.99104,-0.28069 2.43156,-0.55013 4.75033,-1.50394 6.99694,-2.56867 2.141,-0.95196 4.17395,-2.14612 6.12008,-3.44752 2.25993,-1.47636 4.1957,-3.33199 6.10023,-5.22818 1.76966,-1.92796 3.13962,-4.16521 4.25249,-6.52332 1.5877,-2.6411 2.41915,-5.59379 3.61004,-8.41009 1.28405,-2.6053 2.14427,-5.2848 2.62285,-8.14511 0.38272,-2.54159 0.89215,-5.05349 1.14901,-7.61609 0.28498,-2.88676 0.74511,-5.75227 0.99557,-8.64656 0.19819,-2.49994 0.21965,-5.00866 0.23142,-7.51494 0.17479,-2.68665 -0.33328,-5.32941 -0.65636,-7.98421 -0.40713,-2.254 -1.2314,-4.39241 -1.72833,-6.61946 -0.79898,-2.60973 -1.93485,-5.07463 -3.23048,-7.47179 8.94824,14.49557 2.26188,4.33974 -0.0991,1.11992 -1.49594,-2.2297 -3.61766,-3.86009 -5.60344,-5.61889 -1.75826,-1.57239 -3.76403,-2.80209 -5.80165,-3.96979 -2.21553,-1.21266 -4.62409,-1.97756 -6.9443,-2.94971 -2.31473,-1.08958 -4.77044,-1.64021 -7.29704,-1.91635 -2.81789,-0.21183 -5.64659,-0.20625 -8.47073,-0.20476 -2.78369,-0.0238 -5.54968,0.42272 -8.26693,0.99098 -2.69665,0.5416 -5.41804,0.94419 -8.12999,1.40631 -2.83992,0.63678 -5.70405,1.13661 -8.5975,1.44745 -2.35864,0.51159 -4.76655,0.7268 -7.1382,1.15075 -2.4324,0.3802 -4.78727,1.01986 -7.11247,1.81556 -2.74383,1.10765 -5.54097,2.06819 -8.31522,3.09503 -2.84665,1.2285 -5.75374,2.34105 -8.70416,3.29667 -2.19635,0.82116 -4.31981,1.82743 -6.48498,2.73087 -2.08738,0.86357 -4.05006,1.96425 -5.9895,3.11472 -2.48008,1.60893 -4.99164,3.15173 -7.36522,4.91763 -2.1935,1.84516 -4.48766,3.56464 -6.69362,5.39467 -2.21949,1.83738 -4.48522,3.57548 -6.48576,5.65636 -1.86778,2.03462 -3.75276,4.05264 -5.66955,6.04116 -1.08952,1.30489 -0.59433,0.6387 -1.49527,1.99132 0,0 -5.3365,-8.3726 -5.3365,-8.3726 l 0,0 c 1.01513,-1.39704 0.47027,-0.71093 1.64019,-2.05386 1.91416,-1.99396 3.79037,-4.0229 5.67294,-6.04655 2.04643,-2.07826 4.35179,-3.83418 6.57483,-5.71556 2.22313,-1.83432 4.53959,-3.55043 6.75673,-5.39205 2.40577,-1.77597 4.93283,-3.36457 7.42151,-5.02001 1.97801,-1.17915 3.98106,-2.30539 6.10958,-3.19366 2.19865,-0.9015 4.3507,-1.91669 6.57624,-2.74577 2.95105,-0.89909 5.85382,-1.98965 8.67611,-3.23269 2.76917,-1.06383 5.58839,-1.98816 8.31521,-3.16173 2.36939,-0.80206 4.7576,-1.50109 7.236,-1.88552 2.39181,-0.46725 4.84098,-0.6171 7.22001,-1.18006 2.88051,-0.2594 5.73726,-0.70453 8.54672,-1.4024 2.70327,-0.43941 5.40029,-0.90792 8.0965,-1.38341 2.77761,-0.57824 5.60133,-1.11125 8.44838,-1.0833 2.84974,0.001 5.70263,-0.0268 8.54823,0.15507 2.61573,0.20022 5.1675,0.67085 7.57076,1.77798 2.33188,1.00501 4.74864,1.78176 7.04342,2.87732 2.06762,1.19838 4.16895,2.34419 5.99699,3.9062 1.99425,1.79459 4.20568,3.36479 5.79208,5.55444 3.77754,4.97086 7.14028,10.18609 9.95238,15.79555 1.26496,2.44691 2.35415,4.99255 3.07102,7.65807 0.60745,2.21166 1.30535,4.40436 1.62563,6.68423 0.33021,2.67977 0.70369,5.35801 0.55696,8.06729 -0.0303,2.51592 -0.0661,5.03537 -0.31737,7.54106 -0.29614,2.8971 -0.7504,5.77506 -0.99366,8.67719 -0.3111,2.56185 -0.81891,5.08741 -1.22224,7.63497 -0.57628,2.88164 -1.52856,5.59837 -2.80658,8.24636 -1.15619,2.85021 -2.09888,5.77889 -3.65186,8.45487 -1.21599,2.42636 -2.61637,4.75758 -4.52776,6.70932 -1.95234,1.9372 -3.9577,3.8114 -6.25182,5.34627 -1.98419,1.33056 -4.05801,2.55579 -6.24532,3.52158 -2.3091,1.09994 -4.70066,2.06616 -7.19256,2.66352 -2.40112,0.58583 -4.81733,0.75839 -7.27949,0.4489 -2.76428,-0.29609 -5.47995,-0.85364 -8.16835,-1.56172 -2.75652,-0.49969 -5.45626,-1.257 -8.11328,-2.14368 -2.96496,-0.81927 -5.8045,-2.06071 -8.66017,-3.19303 -2.51145,-0.9899 -5.04897,-1.90264 -7.5158,-2.99989 -2.65675,-1.04128 -5.13162,-2.47805 -7.76516,-3.57612 -2.84232,-1.27758 -5.59587,-2.72106 -8.22115,-4.40457 -2.40988,-1.62003 -4.95547,-3.01692 -7.3578,-4.64971 -2.5134,-1.83249 -5.10644,-3.55178 -7.60128,-5.41147 -2.51294,-1.97228 -5.01066,-3.95932 -7.7017,-5.69329 -2.98046,-2.21855 -5.85093,-4.57698 -8.88049,-6.73095 -2.99689,-2.28601 -6.04074,-4.50884 -9.1404,-6.65381 -2.75266,-1.76901 -5.50074,-3.54389 -7.96011,-5.71873 0,0 -4.00016,-9.14253 -4.00016,-9.14253 z"
         id="path6602"
         style="fill:#000000;fill-opacity:1;fill-rule:nonzero;stroke:#000000;stroke-width:0.171;stroke-miterlimit:4;stroke-dasharray:none;stroke-dashoffset:0;stroke-opacity:1" />
      <path
         style="fill:#000000;fill-opacity:1;fill-rule:nonzero;stroke:#000000;stroke-width:0.171;stroke-miterlimit:4;stroke-dasharray:none;stroke-dashoffset:0;stroke-opacity:1"
         id="path6604"
         d="m 227.63022,333.53326 c 2.53867,2.12048 5.20999,4.042 7.99019,5.82883 3.14197,2.12897 6.20138,4.37503 9.22849,6.66324 2.99978,2.15882 5.8749,4.48087 8.84565,6.67778 2.64801,1.80512 5.22174,3.70405 7.7332,5.69324 2.45752,1.88172 5.01982,3.61618 7.54742,5.39991 2.38115,1.66256 4.89946,3.11046 7.33388,4.69026 2.57633,1.6919 5.2837,3.15251 8.07527,4.45273 2.6046,1.11369 5.10138,2.46311 7.71149,3.56206 2.48169,1.07836 5.00648,2.04319 7.5224,3.03749 2.81581,1.17396 5.65947,2.3104 8.5735,3.21875 2.65003,0.84215 5.31965,1.63082 8.04131,2.20453 2.66621,0.65123 5.34232,1.23018 8.06988,1.54639 2.3573,0.3234 4.67286,0.21211 6.99104,-0.28069 2.43156,-0.55013 4.75033,-1.50394 6.99694,-2.56867 2.141,-0.95196 4.17395,-2.14612 6.12008,-3.44752 2.25993,-1.47636 4.1957,-3.33199 6.10023,-5.22818 1.76966,-1.92796 3.13962,-4.16521 4.25249,-6.52332 1.5877,-2.6411 2.41915,-5.59379 3.61004,-8.41009 1.28405,-2.6053 2.14427,-5.2848 2.62285,-8.14511 0.38272,-2.54159 0.89215,-5.05349 1.14901,-7.61609 0.28498,-2.88676 0.74511,-5.75227 0.99557,-8.64656 0.19819,-2.49994 0.21965,-5.00866 0.23142,-7.51494 0.17479,-2.68665 -0.33328,-5.32941 -0.65636,-7.98421 -0.40713,-2.254 -1.2314,-4.39241 -1.72833,-6.61946 -0.79898,-2.60973 -1.93485,-5.07463 -3.23048,-7.47179 8.94824,14.49557 2.26188,4.33974 -0.0991,1.11992 -1.49594,-2.2297 -3.61766,-3.86009 -5.60344,-5.61889 -1.75826,-1.57239 -3.76403,-2.80209 -5.80165,-3.96979 -2.21553,-1.21266 -4.62409,-1.97756 -6.9443,-2.94971 -2.31473,-1.08958 -4.77044,-1.64021 -7.29704,-1.91635 -2.81789,-0.21183 -5.64659,-0.20625 -8.47073,-0.20476 -2.78369,-0.0238 -5.54968,0.42272 -8.26693,0.99098 -2.69665,0.5416 -5.41804,0.94419 -8.12999,1.40631 -2.83992,0.63678 -5.70405,1.13661 -8.5975,1.44745 -2.35864,0.51159 -4.76655,0.7268 -7.1382,1.15075 -2.4324,0.3802 -4.78727,1.01986 -7.11247,1.81556 -2.74383,1.10765 -5.54097,2.06819 -8.31522,3.09503 -2.84665,1.2285 -5.75374,2.34105 -8.70416,3.29667 -2.19635,0.82116 -4.31981,1.82743 -6.48498,2.73087 -2.08738,0.86357 -4.05006,1.96425 -5.9895,3.11472 -2.48008,1.60893 -4.99164,3.15173 -7.36522,4.91763 -2.1935,1.84516 -4.48766,3.56464 -6.69362,5.39467 -2.21949,1.83738 -4.48522,3.57548 -6.48576,5.65636 -1.86778,2.03462 -3.75276,4.05264 -5.66955,6.04116 -1.08952,1.30489 -0.59433,0.6387 -1.49527,1.99132 0,0 -5.3365,-8.3726 -5.3365,-8.3726 l 0,0 c 1.01513,-1.39704 0.47027,-0.71093 1.64019,-2.05386 1.91416,-1.99396 3.79037,-4.0229 5.67294,-6.04655 2.04643,-2.07826 4.35179,-3.83418 6.57483,-5.71556 2.22313,-1.83432 4.53959,-3.55043 6.75673,-5.39205 2.40577,-1.77597 4.93283,-3.36457 7.42151,-5.02001 1.97801,-1.17915 3.98106,-2.30539 6.10958,-3.19366 2.19865,-0.9015 4.3507,-1.91669 6.57624,-2.74577 2.95105,-0.89909 5.85382,-1.98965 8.67611,-3.23269 2.76917,-1.06383 5.58839,-1.98816 8.31521,-3.16173 2.36939,-0.80206 4.7576,-1.50109 7.236,-1.88552 2.39181,-0.46725 4.84098,-0.6171 7.22001,-1.18006 2.88051,-0.2594 5.73726,-0.70453 8.54672,-1.4024 2.70327,-0.43941 5.40029,-0.90792 8.0965,-1.38341 2.77761,-0.57824 5.60133,-1.11125 8.44838,-1.0833 2.84974,0.001 5.70263,-0.0268 8.54823,0.15507 2.61573,0.20022 5.1675,0.67085 7.57076,1.77798 2.33188,1.00501 4.74864,1.78176 7.04342,2.87732 2.06762,1.19838 4.16895,2.34419 5.99699,3.9062 1.99425,1.79459 4.20568,3.36479 5.79208,5.55444 3.77754,4.97086 7.14028,10.18609 9.95238,15.79555 1.26496,2.44691 2.35415,4.99255 3.07102,7.65807 0.60745,2.21166 1.30535,4.40436 1.62563,6.68423 0.33021,2.67977 0.70369,5.35801 0.55696,8.06729 -0.0303,2.51592 -0.0661,5.03537 -0.31737,7.54106 -0.29614,2.8971 -0.7504,5.77506 -0.99366,8.67719 -0.3111,2.56185 -0.81891,5.08741 -1.22224,7.63497 -0.57628,2.88164 -1.52856,5.59837 -2.80658,8.24636 -1.15619,2.85021 -2.09888,5.77889 -3.65186,8.45487 -1.21599,2.42636 -2.61637,4.75758 -4.52776,6.70932 -1.95234,1.9372 -3.9577,3.8114 -6.25182,5.34627 -1.98419,1.33056 -4.05801,2.55579 -6.24532,3.52158 -2.3091,1.09994 -4.70066,2.06616 -7.19256,2.66352 -2.40112,0.58583 -4.81733,0.75839 -7.27949,0.4489 -2.76428,-0.29609 -5.47995,-0.85364 -8.16835,-1.56172 -2.75652,-0.49969 -5.45626,-1.257 -8.11328,-2.14368 -2.96496,-0.81927 -5.8045,-2.06071 -8.66017,-3.19303 -2.51145,-0.9899 -5.04897,-1.90264 -7.5158,-2.99989 -2.65675,-1.04128 -5.13162,-2.47805 -7.76516,-3.57612 -2.84232,-1.27758 -5.59587,-2.72106 -8.22115,-4.40457 -2.40988,-1.62003 -4.95547,-3.01692 -7.3578,-4.64971 -2.5134,-1.83249 -5.10644,-3.55178 -7.60128,-5.41147 -2.51294,-1.97228 -5.01066,-3.95932 -7.7017,-5.69329 -2.98046,-2.21855 -5.85093,-4.57698 -8.88049,-6.73095 -2.99689,-2.28601 -6.04074,-4.50884 -9.1404,-6.65381 -2.75266,-1.76901 -5.50074,-3.54389 -7.96011,-5.71873 0,0 -4.00016,-9.14253 -4.00016,-9.14253 z"
         inkscape:connector-curvature="0" />
      <path
         inkscape:connector-curvature="0"
         d="m 280.13785,333.53326 c 2.53867,2.12048 5.20999,4.042 7.99019,5.82883 3.14197,2.12897 6.20138,4.37503 9.22849,6.66324 2.99978,2.15882 5.8749,4.48087 8.84565,6.67778 2.64801,1.80512 5.22174,3.70405 7.7332,5.69324 2.45752,1.88172 5.01982,3.61618 7.54742,5.39991 2.38115,1.66256 4.89946,3.11046 7.33388,4.69026 2.57633,1.6919 5.2837,3.15251 8.07527,4.45273 2.6046,1.11369 5.10138,2.46311 7.71149,3.56206 2.48169,1.07836 5.00648,2.04319 7.5224,3.03749 2.81581,1.17396 5.65947,2.3104 8.5735,3.21875 2.65003,0.84215 5.31965,1.63082 8.04131,2.20453 2.66621,0.65123 5.34232,1.23018 8.06988,1.54639 2.3573,0.3234 4.67286,0.21211 6.99104,-0.28069 2.43156,-0.55013 4.75033,-1.50394 6.99694,-2.56867 2.141,-0.95196 4.17395,-2.14612 6.12008,-3.44752 2.25993,-1.47636 4.1957,-3.33199 6.10023,-5.22818 1.76966,-1.92796 3.13962,-4.16521 4.25249,-6.52332 1.5877,-2.6411 2.41915,-5.59379 3.61004,-8.41009 1.28405,-2.6053 2.14427,-5.2848 2.62285,-8.14511 0.38272,-2.54159 0.89215,-5.05349 1.14901,-7.61609 0.28498,-2.88676 0.74511,-5.75227 0.99557,-8.64656 0.19819,-2.49994 0.21965,-5.00866 0.23142,-7.51494 0.17479,-2.68665 -0.33328,-5.32941 -0.65636,-7.98421 -0.40713,-2.254 -1.2314,-4.39241 -1.72833,-6.61946 -0.79898,-2.60973 -1.93485,-5.07463 -3.23048,-7.47179 8.94824,14.49557 2.26188,4.33974 -0.0991,1.11992 -1.49594,-2.2297 -3.61766,-3.86009 -5.60344,-5.61889 -1.75826,-1.57239 -3.76403,-2.80209 -5.80165,-3.96979 -2.21553,-1.21266 -4.62409,-1.97756 -6.9443,-2.94971 -2.31473,-1.08958 -4.77044,-1.64021 -7.29704,-1.91635 -2.81789,-0.21183 -5.64659,-0.20625 -8.47073,-0.20476 -2.78369,-0.0238 -5.54968,0.42272 -8.26693,0.99098 -2.69665,0.5416 -5.41804,0.94419 -8.12999,1.40631 -2.83992,0.63678 -5.70405,1.13661 -8.5975,1.44745 -2.35864,0.51159 -4.76655,0.7268 -7.1382,1.15075 -2.4324,0.3802 -4.78727,1.01986 -7.11247,1.81556 -2.74383,1.10765 -5.54097,2.06819 -8.31522,3.09503 -2.84665,1.2285 -5.75374,2.34105 -8.70416,3.29667 -2.19635,0.82116 -4.31981,1.82743 -6.48498,2.73087 -2.08738,0.86357 -4.05006,1.96425 -5.9895,3.11472 -2.48008,1.60893 -4.99164,3.15173 -7.36522,4.91763 -2.1935,1.84516 -4.48766,3.56464 -6.69362,5.39467 -2.21949,1.83738 -4.48522,3.57548 -6.48576,5.65636 -1.86778,2.03462 -3.75276,4.05264 -5.66955,6.04116 -1.08952,1.30489 -0.59433,0.6387 -1.49527,1.99132 0,0 -5.3365,-8.3726 -5.3365,-8.3726 l 0,0 c 1.01513,-1.39704 0.47027,-0.71093 1.64019,-2.05386 1.91416,-1.99396 3.79037,-4.0229 5.67294,-6.04655 2.04643,-2.07826 4.35179,-3.83418 6.57483,-5.71556 2.22313,-1.83432 4.53959,-3.55043 6.75673,-5.39205 2.40577,-1.77597 4.93283,-3.36457 7.42151,-5.02001 1.97801,-1.17915 3.98106,-2.30539 6.10958,-3.19366 2.19865,-0.9015 4.3507,-1.91669 6.57624,-2.74577 2.95105,-0.89909 5.85382,-1.98965 8.67611,-3.23269 2.76917,-1.06383 5.58839,-1.98816 8.31521,-3.16173 2.36939,-0.80206 4.7576,-1.50109 7.236,-1.88552 2.39181,-0.46725 4.84098,-0.6171 7.22001,-1.18006 2.88051,-0.2594 5.73726,-0.70453 8.54672,-1.4024 2.70327,-0.43941 5.40029,-0.90792 8.0965,-1.38341 2.77761,-0.57824 5.60133,-1.11125 8.44838,-1.0833 2.84974,0.001 5.70263,-0.0268 8.54823,0.15507 2.61573,0.20022 5.1675,0.67085 7.57076,1.77798 2.33188,1.00501 4.74864,1.78176 7.04342,2.87732 2.06762,1.19838 4.16895,2.34419 5.99699,3.9062 1.99425,1.79459 4.20568,3.36479 5.79208,5.55444 3.77754,4.97086 7.14028,10.18609 9.95238,15.79555 1.26496,2.44691 2.35415,4.99255 3.07102,7.65807 0.60745,2.21166 1.30535,4.40436 1.62563,6.68423 0.33021,2.67977 0.70369,5.35801 0.55696,8.06729 -0.0303,2.51592 -0.0661,5.03537 -0.31737,7.54106 -0.29614,2.8971 -0.7504,5.77506 -0.99366,8.67719 -0.3111,2.56185 -0.81891,5.08741 -1.22224,7.63497 -0.57628,2.88164 -1.52856,5.59837 -2.80658,8.24636 -1.15619,2.85021 -2.09888,5.77889 -3.65186,8.45487 -1.21599,2.42636 -2.61637,4.75758 -4.52776,6.70932 -1.95234,1.9372 -3.9577,3.8114 -6.25182,5.34627 -1.98419,1.33056 -4.05801,2.55579 -6.24532,3.52158 -2.3091,1.09994 -4.70066,2.06616 -7.19256,2.66352 -2.40112,0.58583 -4.81733,0.75839 -7.27949,0.4489 -2.76428,-0.29609 -5.47995,-0.85364 -8.16835,-1.56172 -2.75652,-0.49969 -5.45626,-1.257 -8.11328,-2.14368 -2.96496,-0.81927 -5.8045,-2.06071 -8.66017,-3.19303 -2.51145,-0.9899 -5.04897,-1.90264 -7.5158,-2.99989 -2.65675,-1.04128 -5.13162,-2.47805 -7.76516,-3.57612 -2.84232,-1.27758 -5.59587,-2.72106 -8.22115,-4.40457 -2.40988,-1.62003 -4.95547,-3.01692 -7.3578,-4.64971 -2.5134,-1.83249 -5.10644,-3.55178 -7.60128,-5.41147 -2.51294,-1.97228 -5.01066,-3.95932 -7.7017,-5.69329 -2.98046,-2.21855 -5.85093,-4.57698 -8.88049,-6.73095 -2.99689,-2.28601 -6.04074,-4.50884 -9.1404,-6.65381 -2.75266,-1.76901 -5.50074,-3.54389 -7.96011,-5.71873 0,0 -4.00016,-9.14253 -4.00016,-9.14253 z"
         id="path6606"
         style="fill:#000000;fill-opacity:1;fill-rule:nonzero;stroke:#000000;stroke-width:0.171;stroke-miterlimit:4;stroke-dasharray:none;stroke-dashoffset:0;stroke-opacity:1" />
      <path
         inkscape:connector-curvature="0"
         d="m 120.04631,332.77089 c 0.81144,0.93378 1.66272,1.82686 2.54926,2.68968 0.8651,0.78405 1.6446,1.6505 2.48183,2.46216 0.73698,0.68649 1.43008,1.42 2.18894,2.08236 0.90331,0.70977 1.77928,1.44851 2.66357,2.1822 0.81661,0.55809 1.5818,1.18831 2.42346,1.70879 1.00052,0.60404 1.96876,1.24651 2.92403,1.91903 1.05905,0.77604 2.15755,1.4974 3.21443,2.27533 0.89378,0.5632 1.7434,1.23109 2.69988,1.68695 0.91031,0.41372 1.66991,1.06265 2.45445,1.66689 1.11178,0.72969 2.21024,1.48391 3.33631,2.19213 1.04336,0.6781 2.09719,1.34035 3.1109,2.06252 0.84933,0.62292 1.70995,1.23029 2.55853,1.85518 0.74391,0.74144 1.5438,1.40526 2.39593,2.01606 0.81428,0.65962 1.67418,1.25532 2.54883,1.83156 1.01222,0.68575 2.01704,1.38254 2.97668,2.14066 0.77162,0.66873 1.57148,1.30371 2.38984,1.91453 0.86726,0.59047 1.72148,1.19258 2.57236,1.80648 0.88293,0.60977 1.79732,1.16765 2.69112,1.76149 0.97592,0.73171 2.03633,1.31946 3.12845,1.85462 1.13547,0.51686 2.25328,1.08119 3.39307,1.5892 1.24072,0.5416 2.47132,1.10358 3.71261,1.64371 1.24175,0.44286 2.45274,0.96499 3.67299,1.46286 1.11002,0.37154 2.19665,0.8128 3.32599,1.12466 0.92538,0.3215 1.88425,0.56316 2.84422,0.76329 0.9741,0.17427 1.94395,0.41158 2.87212,0.75863 0.93646,0.41523 1.57546,0.86575 1.7337,1.91568 -0.79693,3.31042 -0.0749,0.74022 -8.07021,4.68755 -0.1444,0.0713 -1.8693,-0.7278 -2.07707,-0.82327 -1.45368,-0.67944 -2.82578,-1.51335 -4.24205,-2.26666 -1.15404,-0.64202 -2.3003,-1.2925 -3.58221,-1.63462 -0.88019,-0.26308 -1.7377,-0.0709 -2.62354,0.0153 -1.20052,0.12501 -2.40904,0.13513 -3.6148,0.14886 -0.61332,0.14402 -1.24029,-0.15589 -1.84682,-0.11471 -0.10326,0.007 -0.37636,0.17048 -0.28723,0.11788 7.61041,-4.49123 8.15648,-1.55293 7.46889,-4.68932 1.39475,0.76639 2.84963,1.41066 4.31081,2.03843 1.53308,0.58923 3.03038,1.28044 4.57424,1.8416 1.02397,0.35896 2.09235,0.53511 3.13127,0.84141 1.56427,0.48761 3.1734,0.83921 4.77609,1.17941 1.77293,0.34674 3.5583,0.61157 5.34467,0.87835 1.1989,0.15854 2.40526,0.22142 3.5694,0.56646 0.85971,0.25608 1.74637,0.38737 2.62507,0.55923 1.08378,0.11745 2.09678,0.48396 3.10619,0.87059 0.90261,0.48042 1.89684,0.72793 2.85122,1.07352 1.06976,0.47276 2.156,0.90417 3.20243,1.42828 0.99784,0.47642 2.02075,0.89355 3.03442,1.33412 0.92682,0.27682 1.86766,0.5271 2.81581,0.72457 0.93672,0.21714 1.86089,0.0531 2.79945,-0.0313 3.26098,-0.68302 6.23835,-4.00388 -6.25264,3.82966 -0.11607,0.0728 0.12224,0.24549 0.17485,0.372 0.0784,0.18854 0.14524,0.38167 0.21786,0.5725 -0.87848,0.17949 -1.81651,0.16989 -2.70834,0.094 -1.60679,-0.12354 -3.18275,-0.47801 -4.77497,-0.7123 -1.49662,-0.26558 -2.99148,-0.54824 -4.49595,-0.76687 -1.25727,-0.0941 -2.50226,-0.26989 -3.75514,-0.40557 -1.45506,-0.1438 -2.90234,-0.36392 -4.34893,-0.57853 -1.06283,0.009 -2.35168,-0.65306 -3.3881,-0.37851 -0.14116,0.0374 -0.26383,0.12529 -0.39575,0.18793 2.45702,-1.37537 4.93921,-2.70672 7.37106,-4.12611 0.0523,-0.0306 -0.10844,-0.10831 -0.16263,-0.0812 -0.0441,0.0221 0.0485,0.0901 0.0892,0.11795 0.12067,0.0825 0.25065,0.15329 0.38645,0.20747 0.60107,0.23985 1.01907,0.29177 1.67313,0.42892 1.84097,0.23636 3.82803,0.5819 5.64268,-0.0141 0.28552,-0.0938 0.54953,-0.2435 0.8243,-0.36525 -2.25025,1.26442 -4.5005,2.52885 -6.75075,3.79328 0.18326,-0.14457 0.38664,-0.26675 0.54978,-0.43369 0.28657,-0.29324 0.53236,-0.67329 0.58571,-1.09126 0.0705,-0.55249 -0.0909,-0.84197 -0.25755,-1.36328 -0.90562,-1.7226 -2.54387,-2.56907 -4.32322,-3.13964 -1.71467,-0.40945 -3.04183,0.022 -4.46252,0.97373 2.30987,-1.32453 4.61973,-2.64906 6.92959,-3.97358 -0.13819,0.10389 -0.2806,0.20238 -0.41456,0.31166 -0.12501,0.10198 -0.32662,0.31531 -0.33494,0.30528 -0.0825,-0.0994 -0.0898,-0.24222 -0.13566,-0.36296 -0.0646,-0.17004 -0.13046,-0.33958 -0.1957,-0.50937 -2.44898,1.42866 -4.87981,2.8889 -7.34694,4.28599 -0.10437,0.0591 0.17669,-0.16507 0.2445,-0.26401 0.35295,-0.515 0.42008,-1.08955 0.3324,-1.6884 -0.0461,-0.0747 -0.0727,-0.16568 -0.13825,-0.22399 -0.28414,-0.2527 -1.05448,0.52485 -0.73293,0.35019 6.90302,-3.74944 9.16933,-5.77838 6.61969,-3.55976 -0.7903,0.91673 -1.29488,2.11811 -0.92799,3.31758 0.16406,0.26774 0.53822,0.55794 0.87298,0.36259 0.0944,-0.0551 0.32965,-0.2821 0.23367,-0.22989 -2.44505,1.33008 -4.86105,2.71288 -7.29158,4.06932 0.98079,-0.52539 1.15254,-1.44954 0.69375,-2.40477 -0.73177,-0.96124 -1.82266,-0.54421 -2.73308,-0.0932 2.31212,-1.3043 4.6179,-2.61992 6.93636,-3.9129 0.18318,-0.10216 -0.35966,0.21685 -0.52953,0.33988 -0.47616,0.34483 -0.95832,0.76417 -1.04254,1.36854 0.50784,0.93842 1.83207,1.16949 2.78388,1.37393 1.85423,0.22903 3.4132,-0.18336 5.06281,-0.99284 -2.24151,1.27244 -4.4745,2.56 -6.72452,3.81733 -0.21399,0.11958 0.41777,-0.25766 0.61499,-0.40325 0.39792,-0.29374 0.95574,-0.73109 1.04199,-1.26103 0.0136,0.11416 0.0547,0.22838 0.0407,0.3425 -0.0128,0.10455 -0.079,0.19528 -0.11851,0.29292 2.41313,-1.34976 4.8178,-2.71477 7.23941,-4.04929 0.15215,-0.0838 -0.29661,0.1835 -0.4289,0.29611 -0.35743,0.30425 -0.55487,0.59435 -0.84592,0.96286 -0.79316,1.05695 -1.33975,2.23498 -1.51829,3.54529 -0.0528,1.04089 0.68035,1.33158 1.53888,1.65293 1.16479,0.31195 2.37439,0.35617 3.57312,0.37562 2.6558,-0.45109 9.60547,-4.99506 -5.81671,3.59141 -0.14767,0.0822 0.29098,-0.17486 0.4202,-0.28383 0.14411,-0.12152 0.26374,-0.26942 0.39561,-0.40413 0.5071,-0.61235 0.7757,-1.35968 1.04144,-2.09701 0,0 7.89307,-3.70302 7.89307,-3.70302 l 0,0 c -0.25569,0.80708 -0.52479,1.61514 -0.91281,2.37021 -2.13213,3.28233 -6.20855,5.60665 -10.11356,5.63501 -1.26781,-0.0842 -2.54967,-0.19848 -3.74953,-0.6471 -1.1065,-0.54233 -2.07035,-1.26733 -2.08176,-2.61402 0.11857,-1.43284 0.54536,-2.76374 1.3594,-3.96167 2.23728,-3.51087 3.2735,-3.05727 9.00844,-6.03572 0.14496,-0.0753 0.33641,0.0448 0.46992,0.13896 0.17807,0.12554 0.28531,0.32936 0.42797,0.49404 0.0794,0.44045 0.15161,0.55381 -0.0151,1.02413 -1.28408,3.62339 -10.1309,2.78143 -9.50938,6.27247 -1.73822,0.64727 -3.55645,0.94312 -5.39743,0.55174 -1.39099,-0.36439 -2.83436,-0.84214 -3.47554,-2.24719 -0.0844,-0.5333 -0.17315,-0.65303 0.0282,-1.18411 1.31225,-3.46212 10.14574,-2.59623 9.26758,-6.00381 1.44274,-0.34192 2.59934,-0.17157 3.46537,1.13716 0.5964,1.23177 0.70835,2.36091 -0.08,3.54521 -1.84043,1.03388 -7.45871,7.11806 -9.71173,3.17765 -0.43403,-1.41457 -0.15984,-2.88532 0.59342,-4.15094 2.11721,-3.02652 0.54825,-0.94651 8.33978,-5.18927 0.15766,-0.0858 0.36423,-0.0279 0.53833,0.0159 0.57756,0.14528 0.89483,0.60544 1.13412,1.10715 0.97466,4.5781 -3.84153,4.94444 -7.89383,7.34737 -0.59359,-0.49761 -1.02735,-0.92613 -0.49754,-1.68633 0.11045,-0.15847 0.23168,-0.32183 0.39643,-0.42267 2.62057,-1.604 5.29386,-3.12024 7.9408,-4.68035 1.64242,-0.74849 3.0571,-0.89912 4.80394,-0.31347 1.96983,0.76157 3.73499,1.84315 4.77076,3.75837 0.32386,0.82633 0.67741,1.65796 0.4455,2.56871 -0.89535,3.51617 -9.06653,4.2852 -8.91909,6.00158 -0.29394,0.0766 -0.58295,0.17542 -0.8818,0.22966 -1.92405,0.34924 -3.91063,0.002 -5.81832,-0.26621 -1.09332,-0.24906 -2.45791,-0.46515 -2.98855,-1.61852 -0.0921,-0.20009 -0.34822,-0.51721 -0.16521,-0.63975 2.49241,-1.66894 5.20411,-2.98447 7.80617,-4.47671 1.31309,-0.0129 2.5792,0.38031 3.87968,0.51607 1.45033,0.21482 2.90696,0.3856 4.36606,0.52897 1.25629,0.1463 2.51712,0.25429 3.76721,0.44825 1.48533,0.26399 2.97133,0.52361 4.45632,0.78946 1.57868,0.26128 3.15885,0.57416 4.76508,0.58807 0.95179,-0.0224 1.89387,-0.14954 2.84011,-0.202 0.17476,0.19288 0.3821,0.36063 0.5243,0.57864 0.0957,0.14667 0.32333,0.40039 0.17597,0.49498 -4.59221,2.94773 -5.39736,4.17521 -9.05153,4.55247 -1.00928,0.0915 -2.01084,0.0945 -2.99851,-0.17454 -0.96691,-0.25796 -1.94665,-0.48713 -2.87484,-0.86735 -1.02044,-0.43407 -2.02583,-0.90459 -3.02445,-1.38647 -1.04257,-0.48375 -2.11118,-0.91501 -3.18667,-1.3195 -0.96893,-0.32568 -1.92789,-0.67904 -2.86136,-1.09722 -0.97654,-0.3724 -1.99045,-0.59081 -3.02394,-0.74324 -0.89262,-0.17238 -1.79054,-0.31059 -2.65568,-0.60261 -1.13104,-0.24415 -2.28367,-0.35474 -3.42036,-0.57016 -1.7836,-0.30313 -3.57772,-0.54297 -5.34585,-0.93358 -1.63527,-0.35506 -3.27531,-0.69106 -4.88426,-1.15493 -1.08329,-0.25534 -2.18453,-0.46248 -3.20688,-0.92163 -1.48003,-0.66022 -2.95426,-1.33045 -4.45571,-1.94198 -1.56114,-0.66647 -3.1504,-1.29199 -4.65091,-2.08554 -2.36082,-2.95074 -0.90156,-0.68557 7.09058,-5.26118 0.0968,-0.0554 0.21799,0.0485 0.32844,0.0641 0.57673,0.0812 1.15863,0.0661 1.73917,0.0546 1.20669,-0.0345 2.41262,-0.0919 3.61233,-0.23283 0.97266,-0.099 1.90921,-0.087 2.83568,0.2769 1.25527,0.47677 2.39813,1.16999 3.56334,1.83071 1.40524,0.74981 2.78947,1.55092 4.26706,2.15276 0.48823,0.18345 1.01529,0.42636 1.55,0.42872 0.11505,5e-4 0.43975,-0.11323 0.34082,-0.0545 -7.27513,4.3188 -9.88146,3.01773 -7.02005,4.33721 0.83418,0.27135 -0.81152,-0.93184 -0.94668,-0.74604 -0.92944,-0.28494 -1.87667,-0.48541 -2.82765,-0.68376 -0.9637,-0.24992 -1.93483,-0.47955 -2.87141,-0.82085 -1.11448,-0.38546 -2.22033,-0.79651 -3.32249,-1.21574 -1.22667,-0.49626 -2.4482,-1.00465 -3.68126,-1.48502 -1.24861,-0.54921 -2.48684,-1.12152 -3.74539,-1.64763 -1.12627,-0.54946 -2.27308,-1.05112 -3.39054,-1.61781 -1.1155,-0.56627 -2.19258,-1.20292 -3.21955,-1.91847 -0.91006,-0.59092 -1.82317,-1.17747 -2.71112,-1.80149 -0.84559,-0.62817 -1.75038,-1.16676 -2.58804,-1.80632 -0.82225,-0.61435 -1.60302,-1.27821 -2.38152,-1.94652 -0.94165,-0.73986 -1.92766,-1.4198 -2.92472,-2.08256 -0.89627,-0.58186 -1.78212,-1.17825 -2.61906,-1.84385 -0.83311,-0.62827 -1.57452,-1.35584 -2.37312,-2.02471 -0.85109,-0.61063 -1.70128,-1.22253 -2.53382,-1.85845 -1.00554,-0.70884 -2.0523,-1.35583 -3.06698,-2.05135 -1.12463,-0.76205 -2.29284,-1.45055 -3.4159,-2.21382 -0.76377,-0.57006 -1.52506,-1.14167 -2.39835,-1.53923 -0.93982,-0.55191 -1.80845,-1.21569 -2.71943,-1.81295 -1.06496,-0.75143 -2.10248,-1.54093 -3.18139,-2.2729 -0.97199,-0.65127 -1.98237,-1.23531 -2.96674,-1.86654 -0.84135,-0.57523 -1.67503,-1.16389 -2.46517,-1.80845 -0.87946,-0.75017 -1.77639,-1.47409 -2.6806,-2.1934 -0.76799,-0.67805 -1.48211,-1.41421 -2.21795,-2.1267 -0.81528,-0.82634 -1.59637,-1.68583 -2.43868,-2.48578 -0.88212,-0.88111 -1.72954,-1.79954 -2.66163,-2.628 0,0 7.52256,-4.60983 7.52256,-4.60983 z"
         id="path6667"
         style="fill:#ffffff;fill-opacity:1;fill-rule:nonzero;stroke:#ffffff;stroke-width:0.171;stroke-miterlimit:4;stroke-dasharray:none;stroke-dashoffset:0;stroke-opacity:1" />
      <path
         inkscape:connector-curvature="0"
         d="m 211.57728,381.93563 c -0.87801,1.64381 -1.18378,3.53576 -1.29907,5.37706 0.0752,2.21322 1.09698,1.12833 2.25828,0.34714 -17.12495,9.95081 -9.99887,6.24824 -6.76727,3.21395 1.32567,-1.24473 2.44933,-2.62494 3.56143,-4.05678 3.65649,-5.13159 -1.56338,-1.59537 12.53465,-6.59361 0.27083,-0.096 -0.24029,0.52204 -0.361,0.7828 -0.18354,0.39649 -0.36783,0.79263 -0.55174,1.18895 -1.38263,2.93297 -2.23467,6.05517 -3.02236,9.18718 -0.94324,5.01515 1.91624,0.46664 -11.3314,6.47555 -0.1393,0.0632 0.18877,-0.24412 0.25241,-0.38322 0.0926,-0.20249 0.14178,-0.42219 0.21267,-0.63328 0.33073,-1.50801 0.87142,-3.0472 0.90621,-4.60282 3.77619,-1.82372 7.45897,-3.85505 11.32856,-5.47115 0.21,-0.0877 0.19086,0.41434 0.26141,0.63071 0.2739,0.84007 0.30733,1.69461 0.808,2.4449 0.0744,-0.012 0.17744,0.0238 0.22329,-0.0361 0.0926,-0.12092 0.27328,-0.50566 0.13802,-0.43561 -3.4992,1.81213 -6.8795,3.84568 -10.34499,5.72149 -0.19853,0.10746 0.37842,-0.25201 0.53707,-0.41262 0.46992,-0.47573 0.7261,-0.98197 1.07111,-1.55102 3.1332,-5.77927 2.31221,-4.15733 12.83469,-8.68984 0.2841,-0.12238 0.30841,0.53633 0.46261,0.80449 0.46275,1.3247 0.35918,2.74787 0.50361,4.12348 0.0322,0.0622 0.0807,0.25499 0.0966,0.18673 0.0275,-0.11826 0.0529,-0.4131 -0.0563,-0.35991 -3.65469,1.78063 -7.19857,3.78031 -10.80708,5.65275 -0.11099,0.0576 0.2296,-0.11377 0.31267,-0.20723 0.25218,-0.28377 0.33421,-0.65491 0.45125,-1.00048 1.35528,-5.23644 1.01435,-2.56094 11.3087,-7.83799 0.16119,-0.0826 0.7592,0.99445 0.7953,1.05456 0.58517,0.66766 0.33035,2.39264 0.90281,2.91761 0.0493,0.0452 0.13347,0.009 0.2002,0.0135 0.003,-0.008 0.3077,-0.76985 0.2372,-0.73167 -3.5053,1.89831 -13.81384,7.96421 -10.3646,5.96585 3.67518,-2.12924 7.31998,-4.31299 11.04239,-6.35853 0.22457,-0.12342 0.7647,0.22534 0.89944,0.29516 0.89275,0.31466 1.07149,1.56527 1.95184,1.82324 0.17231,-4.42741 0.12757,-0.57672 -10.64173,5.56893 -0.0652,0.0372 0.15894,0.0511 0.22483,0.0151 0.0557,-0.0305 0.0712,-0.1133 0.0707,-0.17676 -0.002,-0.2291 -0.15227,-0.43221 -0.23277,-0.64671 -0.10874,-0.35783 -0.29781,-1.74083 0.10506,-1.98904 10.53255,-6.48906 6.77787,-6.15457 11.45608,-6.48597 1.13663,-0.021 2.27314,-0.0306 3.40999,-0.0267 1.12361,0.002 2.24707,0.0183 3.37067,0.0206 0.46734,0.0917 0.68076,0.0837 1.08439,0.35779 0.33725,0.22906 0.52378,0.55381 0.63517,0.9451 1.18466,4.16145 -7.18443,4.83592 -10.93119,6.99991 -1.1709,0.0685 -2.31462,-0.0878 -3.44475,-0.38951 -1.23179,-0.36721 -2.48946,-0.72368 -3.6268,-1.33352 -0.95558,-0.67816 -2.05206,-1.10222 -3.07953,-1.65145 -0.90826,-0.52514 -1.96759,-0.48724 -2.94484,-0.76188 -1.1339,-0.22301 -2.23223,-0.56871 -3.37567,-0.7528 -1.01731,-0.36626 -2.07662,-0.53424 -3.14973,-0.61317 -1.01307,-0.16974 -1.94803,0.0973 -2.93266,0.26849 -0.1701,0.0226 -0.34341,0.0279 -0.51028,0.0679 -2.06804,0.49556 1.32545,-0.1728 -1.02947,0.28755 -0.5988,0.11705 -1.16958,0.18067 -1.754,0.36128 -0.89012,0.10338 -1.6441,0.53006 -2.39109,0.98904 -0.20563,0.12634 -0.82826,0.49581 -0.61894,0.37568 3.31127,-1.90043 6.61665,-3.8111 9.92498,-5.71665 -1.19449,0.736 -2.20707,1.709 -3.153,2.73496 -0.52951,0.68389 -1.19181,1.69052 -0.80576,2.58024 0.61842,0.42989 1.55967,0.35601 2.26278,0.21907 3.75259,-1.92342 8.59575,-4.79891 -9.29666,5.31596 -0.14587,0.0825 0.28249,-0.18174 0.41191,-0.28818 0.4112,-0.33821 0.37391,-0.35881 0.65871,-0.80782 0.40165,-0.13479 0.47307,-2.42102 0.2359,-1.58732 0.5568,4.48174 -0.0803,0.49463 10.60585,-5.61417 0.0906,-0.0518 -0.19325,0.0982 -0.25373,0.18316 -0.28954,0.40688 -0.29764,1.08347 -0.35372,1.55137 -0.083,1.15126 0.16723,2.21233 0.87248,3.12721 0.32107,0.34624 0.71262,0.48193 1.14901,0.61324 0,0 -10.37271,6.88112 -10.37271,6.88112 l 0,0 c -0.55523,-0.31932 -1.07406,-0.6513 -1.46489,-1.17603 -0.81843,-1.18569 -1.27088,-2.45103 -1.28233,-3.90643 0.009,-0.18441 0.15171,-2.39654 0.16166,-2.40294 10.6575,-6.86264 7.39503,-8.79343 11.40076,-6.1674 1.00546,1.06779 0.99602,1.96752 0.5994,3.33762 -1.65223,5.06479 -7.9059,7.82768 -13.09213,8.28638 -1.2339,-0.10055 -2.38858,-0.32205 -3.10545,-1.44091 -0.59544,-1.31293 -0.37208,-2.56198 0.25836,-3.83504 0.85279,-1.19661 1.93623,-2.17477 3.04193,-3.13127 4.66949,-2.71805 9.11525,-6.4157 14.47851,-7.65384 1.13054,-0.19832 2.23448,-0.50701 3.37171,-0.66352 1.04507,-0.16217 2.0861,-0.14365 3.13432,0.009 1.0804,0.16313 2.12572,0.45566 3.18755,0.7054 1.13925,0.25583 2.26876,0.55016 3.41545,0.77318 1.08784,0.18149 2.13919,0.48129 3.10516,1.03053 1.03748,0.50871 2.0522,1.05586 3.05429,1.63028 1.10515,0.46398 2.25441,0.85008 3.42783,1.09713 1.03398,0.13753 2.17606,0.25613 3.12338,-0.27488 -3.48667,2.04581 -7.06308,3.94585 -10.46001,6.13744 -0.0271,0.0175 0.73981,0.66948 0.58835,0.65393 -0.11301,-0.0116 -0.22457,-0.0367 -0.33792,-0.0444 -0.15683,-0.0107 -0.31432,-0.007 -0.47148,-0.0109 -1.12576,-0.005 -2.25149,-0.002 -3.37725,-0.006 -1.07789,0.0105 -2.2025,-0.0281 -3.22564,0.35452 -3.55233,2.29644 -4.55557,2.93872 9.98695,-5.88592 0.49995,-0.30337 -0.6533,0.0707 -0.748,0.38209 -0.0283,0.093 -0.008,0.19425 -0.0116,0.29137 0.0858,0.24787 0.82173,1.94877 0.61151,2.08121 -10.7001,6.74096 -7.62531,8.76754 -11.47973,5.96195 -0.33208,-0.29833 -0.36797,-0.31228 -0.66899,-0.66151 -0.29321,-0.34016 -0.48424,-0.75206 -0.99359,-0.73303 -3.18049,2.10165 13.18611,-7.65691 9.91852,-5.69343 -3.64339,2.18929 -7.29023,4.37707 -11.01746,6.42036 -0.15271,0.0837 -0.35267,-0.0312 -0.51293,-0.0993 -0.20025,-0.0852 -0.36631,-0.23499 -0.54947,-0.35249 -0.9563,-1.15359 -0.76858,-1.95069 -1.29379,-3.21892 -0.0235,-0.01 -0.0754,-0.0549 -0.0704,-0.0299 0.0227,0.11341 0.0278,0.37821 0.12892,0.32213 3.5649,-1.97624 7.03236,-4.12373 10.52355,-6.22744 0.0906,-0.0546 -0.23064,0.001 -0.30907,0.0724 -0.14508,0.13142 -0.36448,0.82587 -0.40857,0.9489 -0.0266,0.14672 -0.31178,1.79394 -0.36229,1.82321 -3.41645,1.97967 -10.0054,10.05127 -11.82443,5.02293 -0.14636,-1.2121 -0.0214,-2.4526 -0.31748,-3.64756 2.12843,3.59428 0.0603,0.17396 10.70604,-5.86143 0.14344,-0.0813 -0.32621,0.0847 -0.46075,0.17998 -0.78003,0.55257 -1.05334,1.53757 -1.53254,2.31276 -0.161,0.32765 -0.95602,2.21952 -1.24245,2.39264 -3.15757,1.90851 -8.75759,9.33413 -12.33442,5.55057 -0.35341,-0.66942 -0.58843,-1.32081 -0.79118,-2.05032 -1.29924,-4.67487 -2.13697,0.0199 10.72232,-6.60691 -0.10414,-0.012 -0.22866,-0.0991 -0.31243,-0.0361 -0.73266,0.55134 -0.63879,3.21312 -1.00438,4.11343 -0.035,0.23624 -0.0727,0.47207 -0.10486,0.70871 -0.0258,0.1904 0.0992,0.47938 -0.069,0.57229 -7.72159,4.26548 -12.79545,9.91826 -11.09709,3.85559 0.90584,-3.12742 1.75964,-6.27161 2.92683,-9.31539 0.135,-0.37248 0.27117,-0.74453 0.40501,-1.11743 0.0795,-0.22137 0.0247,-0.5597 0.23489,-0.66536 3.79573,-1.90844 7.74683,-3.49129 11.59844,-5.28427 0.1,-0.0465 -0.24267,-0.031 -0.32866,0.038 -0.59696,0.47935 -0.80782,1.35295 -1.42485,1.80138 -5.40877,7.24794 -7.82335,8.01656 -17.41854,13.22073 -0.36829,0.11751 -0.72129,0.30435 -1.10485,0.35252 -1.69653,0.21305 -2.50574,-1.36222 -2.54882,-2.79875 0.0631,-1.95041 0.43441,-3.87172 0.90712,-5.76259 0,0 11.37481,-5.14632 11.37481,-5.14632 z"
         id="path6669"
         style="fill:#ffffff;fill-opacity:1;fill-rule:nonzero;stroke:#ffffff;stroke-width:0.171;stroke-miterlimit:4;stroke-dasharray:none;stroke-dashoffset:0;stroke-opacity:1" />
      <path
         inkscape:connector-curvature="0"
         d="m 223.21937,380.25493 c 1.40166,0.63175 2.77695,1.32837 4.22689,1.84458 1.04057,0.20483 2.01044,0.63672 3.05635,0.81451 1.15803,0.0722 2.05867,0.81592 2.85445,1.59082 0.78183,0.63288 1.70868,1.0945 2.60604,1.55144 0.93343,0.55433 1.87847,1.07232 2.93648,1.33714 0.63065,0.18533 1.30123,0.0844 1.94033,0.17326 0.3556,0.0494 0.69963,0.16177 1.051,0.23551 0,0 -10.20355,7.12783 -10.20355,7.12783 l 0,0 c -1.0273,-0.16932 -2.0896,-0.16107 -3.07599,-0.54177 -1.06498,-0.41333 -2.05677,-0.97582 -3.05606,-1.52605 -0.96473,-0.54125 -1.98021,-1.01309 -2.76847,-1.81239 -0.75354,-0.6326 -1.56327,-0.90998 -2.53561,-1.03972 -1.03843,-0.30081 -2.06252,-0.66066 -3.08214,-1.01759 -1.41343,-0.60936 -2.79229,-1.33087 -4.28772,-1.72333 0,0 10.338,-7.01424 10.338,-7.01424 z"
         id="path6673"
         style="fill:#ffffff;fill-opacity:1;fill-rule:nonzero;stroke:#ffffff;stroke-width:0.171;stroke-miterlimit:4;stroke-dasharray:none;stroke-dashoffset:0;stroke-opacity:1" />
      <path
         inkscape:connector-curvature="0"
         d="m 250.49349,381.77016 c 1.22383,0.4736 2.54565,0.51447 3.81194,0.79865 1.36505,0.28766 2.69785,0.67398 4.08563,0.85317 1.03879,0.39097 2.16636,0.38494 3.21954,0.68812 1.01288,0.22847 2.02245,0.37823 3.02894,0.63021 1.07933,0.18203 2.1516,0.2988 3.22592,0.51031 1.26964,0.18238 2.53555,0.28884 3.80111,0.50104 1.511,0.2777 3.05774,0.1716 4.56985,0.40482 1.15418,0.21514 2.32071,0.32676 3.49253,0.37452 1.00511,0.0289 2.0108,0.0236 3.01621,0.022 0.87593,-0.11658 1.9203,0.47544 2.78002,0.37406 0.15899,-0.0188 0.29469,-0.12521 0.44204,-0.18782 -3.47934,1.91507 -6.98406,3.78472 -10.43801,5.7452 -0.004,0.002 0.38236,0.15415 0.34586,-0.14884 -0.0526,-0.43651 -0.4915,-0.79318 -0.7683,-1.08398 -1.03172,-0.71915 -2.18462,-1.22146 -3.32473,-1.73862 -1.50054,-0.49728 -2.65202,-1.02219 -3.11332,-2.63481 -0.34353,-4.83914 -0.26667,-1.02678 11.11203,-6.73428 0.0979,-0.0491 2.14932,1.01518 2.3944,1.13888 1.07788,0.71808 2.33586,1.05616 3.50908,1.57753 5.45314,2.14469 6.74422,-2.12832 -8.30788,7.48784 -0.92435,-0.72705 -1.80134,-1.49152 -2.52492,-2.42124 -2.96861,-4.17053 4.9823,-4.59245 10.22417,-7.64944 0.14596,-0.0851 0.27735,0.19582 0.42965,0.26901 0.12231,0.0588 0.25855,0.0826 0.38783,0.12383 0.14464,0.08 0.28928,0.15997 0.43392,0.23996 0.85352,0.45902 1.72857,0.86521 2.63246,1.21888 1.16407,0.50655 2.06261,1.4167 3.07181,2.1551 0.86462,0.77475 1.95106,1.17554 2.94184,1.73417 1.08568,1.03764 1.40061,2.04495 0.93849,3.47945 -2.43505,3.83891 -10.93158,6.86522 -12.14974,7.54788 -0.69961,0.39206 -1.65748,0.4724 -2.43083,0.59607 -1.87228,0.27986 -3.73168,-0.14725 -5.57455,-0.43503 -1.5399,-0.20879 -3.08419,-0.43769 -4.60041,-0.78274 -0.86273,-0.21779 -1.66687,-0.60557 -2.51729,-0.86114 -4.17455,-1.25451 -12.32476,6.7681 9.79126,-6.57839 1.38068,0.8739 2.85105,1.58008 4.35967,2.20396 0.54994,0.1923 1.04596,0.4565 1.64795,0.37948 0.13756,-0.0176 0.49045,-0.25909 0.36947,-0.19128 -9.92807,5.56446 -9.1548,7.60054 -10.84181,5.80207 -2.07406,-1.78603 -4.48938,-3.05789 -7.05219,-3.97542 -1.03612,-0.22037 -2.14151,-0.81536 -3.23687,-0.56459 -0.23887,0.0547 -0.46014,0.18056 -0.66233,0.319 -0.18663,0.12778 -0.68715,0.57998 -0.48965,0.46974 3.42171,-1.91007 6.78697,-3.91957 10.18046,-5.87936 -0.65921,0.0847 -0.25552,1.60563 -0.48922,1.74492 -3.65433,2.17805 -7.44668,4.11571 -11.17002,6.17357 -0.18657,-0.0121 -0.37322,-0.0496 -0.55972,-0.0363 -0.40032,0.0284 -0.65637,0.1704 -1.01886,0.32157 3.41378,-1.91159 6.8243,-3.82901 10.24134,-5.73477 0.17657,-0.0985 -0.36084,0.18766 -0.51967,0.31275 -0.15968,0.12577 -0.28561,0.28932 -0.42841,0.43397 -2.71494,3.7141 -7.58525,8.50884 -12.05761,6.87613 -0.61391,-0.22411 -1.1487,-0.65416 -1.7239,-0.95859 -1.15373,-0.693 -2.4298,-1.05751 -3.75257,-1.23613 -1.38977,-0.092 -2.74168,-0.36244 -3.89557,-1.16538 -4.49725,-4.7067 1.01411,-3.72828 9.24386,-8.85206 1.54326,0.62148 3.09559,1.22108 4.62817,1.87077 1.93422,0.70771 3.87802,1.40333 5.8698,1.93306 1.41677,0.24508 2.83796,0.46505 4.26269,0.67221 1.25051,0.21257 2.53441,0.0588 3.7746,0.30436 0.99612,0.50927 2.45252,1.03348 2.68077,2.3026 0.0434,0.24137 -6e-4,0.49049 -9e-4,0.73573 -11.38579,7.01245 -8.13726,7.75935 -15.81994,5.1068 -1.80637,-0.58912 -3.5048,-1.33871 -4.65552,-2.89312 -0.82196,-1.3248 -0.47691,-2.68346 0.16509,-3.98774 0.62858,-1.0431 1.17775,-2.10555 1.40207,-3.31038 0.0244,-0.82052 -0.7459,-1.1686 -1.39075,-1.48661 -0.63461,-0.1347 -1.38769,-0.47862 -2.04166,-0.24356 -0.12992,0.0467 -0.46788,0.29286 -0.34723,0.22576 3.48155,-1.93631 6.95383,-3.88923 10.43074,-5.83384 -1.12284,0.46955 0.20253,1.83054 0.67238,2.31388 3.73123,4.40989 -7.59299,6.56542 -10.26198,7.99257 -0.18431,0.0985 -0.38602,-0.16202 -0.58563,-0.22399 -0.19541,-0.0607 -0.39795,-0.0954 -0.59693,-0.14315 -0.20707,-0.0403 -0.41694,-0.0682 -0.6212,-0.12089 -1.59932,-0.41281 0.29726,-0.0149 -1.3193,-0.3819 -0.74059,-0.16813 -1.48917,-0.25995 -2.23005,-0.43053 -1.56125,-0.26336 -3.11567,-0.56699 -4.6832,-0.79493 -1.37196,-0.34322 -2.75257,-0.70463 -4.1738,-0.58689 -0.61591,0.10732 -1.28429,0.0242 -1.85392,0.3342 -0.14269,0.0777 -0.52096,0.38557 -0.37947,0.30577 9.8404,-5.54987 13.58894,-8.2449 9.99451,-5.67714 -0.37214,0.34604 -0.65514,0.789 -0.94435,1.18926 0,0 -10.94405,6.09688 -10.94405,6.09688 l 0,0 c -0.43694,-1.00097 -0.24365,-1.58241 0.39675,-2.44738 2.75083,-4.58669 8.56717,-7.09644 13.74523,-7.07086 1.44678,0.11907 2.84229,0.45217 4.25809,0.75844 1.57502,0.26967 3.15683,0.50494 4.7199,0.83884 1.40655,0.25541 2.78959,0.60833 4.19777,0.84831 0.19017,0.0149 0.38073,0.0641 0.5705,0.0447 0.13839,-0.0141 0.51072,-0.21556 0.39208,-0.14292 -3.45468,2.11493 -7.01117,4.06591 -10.40706,6.27402 -0.37083,0.24112 0.51498,0.41769 0.40602,0.14651 -0.0584,-0.1453 -0.17845,-0.25736 -0.26767,-0.38605 -1.0246,-1.17827 -1.91812,-2.45899 -1.67168,-4.09987 5.96269,-3.41442 8.59987,-8.16505 13.98173,-5.56751 1.02984,0.6599 1.93328,1.42236 2.07205,2.72065 -0.0149,1.33533 -0.45767,2.66355 -1.21042,3.76844 -0.47582,0.85063 -1.31044,1.74818 -0.78725,2.75484 0.96036,1.3463 2.60261,1.82801 4.10051,2.35239 0.98853,0.33395 2.00823,0.75028 3.06186,0.82352 0.71619,0.0498 0.71587,-0.0265 1.30068,-0.28874 -3.39472,2.03781 -6.78944,4.07561 -10.18416,6.11342 1.62058,0.74508 -0.69422,-0.98365 -1.31871,-0.75659 -1.25976,-0.0689 -2.52117,-0.14278 -3.76704,-0.354 -1.44011,-0.25384 -2.90917,-0.38812 -4.30552,-0.84011 -1.9656,-0.6546 -3.92146,-1.3423 -5.85704,-2.08095 -0.97061,-0.37457 -3.10042,-1.3397 -4.14208,-1.21516 -0.11183,0.0134 -0.20438,0.0947 -0.30658,0.14207 3.46257,-2.20756 6.94704,-4.38115 10.38772,-6.62268 0.0451,-0.0294 -0.13012,-0.0908 -0.15558,-0.0434 -0.034,0.0634 0.0294,0.14445 0.0693,0.20425 0.23938,0.35871 0.56901,0.68613 0.89139,0.96873 1.12628,0.5736 2.40724,0.5779 3.63105,0.79751 1.37933,0.33563 2.68136,0.87112 3.93841,1.53091 0.22616,0.10974 0.71413,0.38115 1.00592,0.41461 0.46877,0.0538 0.73989,-0.29689 0.69621,-0.27097 -10.12461,6.00841 -13.19493,8.52979 -9.66641,5.67372 2.4747,-4.5079 4.72675,-3.59328 11.93776,-7.50926 0.14159,-0.0769 1.00325,-0.12379 1.16297,-0.15251 0.16879,-0.0303 0.33092,-0.0902 0.49639,-0.13529 -3.47655,1.99904 -7.01848,3.88845 -10.42965,5.99711 -0.12129,0.075 0.22489,0.19234 0.36361,0.22537 0.2807,0.0668 0.16277,-1.445 0.33702,-1.73828 3.64217,-2.23985 7.24908,-4.5381 10.92652,-6.71955 1.1695,-0.69375 3.67553,0.43583 4.7942,0.79541 2.68585,1.11303 5.24717,2.52435 7.55943,4.29655 0.0857,0.0902 1.53156,1.48105 1.18556,1.72417 -8.54137,6.00172 -7.72998,7.7777 -13.11558,5.50751 -1.73578,-0.77651 -3.61104,-1.46671 -5.0377,-2.75434 13.69353,-9.09863 6.32495,-7.57037 13.72318,-5.85352 1.51601,0.26568 3.03595,0.50581 4.55498,0.75331 1.76317,0.28906 3.54408,0.52717 5.30429,0.0597 0.73026,-0.20759 0.87077,-0.21953 1.55888,-0.52348 0.23732,-0.10483 0.92093,-0.47734 0.69736,-0.3457 -16.7004,9.83327 -12.60757,7.1428 -8.85871,5.24878 0.68988,-0.64326 0.88933,-1.11849 0.009,-1.7347 -1.0594,-0.54799 -2.07848,-1.16426 -3.0067,-1.91868 -0.9147,-0.71993 -1.81901,-1.46936 -2.93177,-1.86653 -0.88806,-0.38909 -1.76171,-0.80675 -2.65569,-1.18021 -0.0998,-0.0185 -0.59586,-0.1205 -0.68483,-0.0935 -0.076,0.0231 -0.21197,0.23164 -0.14485,0.18918 3.47853,-2.20039 6.95207,-4.40935 10.39129,-6.67071 0.0778,-0.0512 -0.95809,-0.15462 -0.004,0.27942 0.65536,0.82153 1.48479,1.4874 2.41252,1.98339 -8.85573,6.05762 -7.00343,8.58195 -12.55991,6.19275 -1.20912,-0.48679 -2.42146,-0.96483 -3.54416,-1.63531 -0.37237,-0.17664 -0.72074,-0.36513 -1.12305,-0.46836 -0.18624,-0.0478 -0.37738,-0.0907 -0.56965,-0.0906 -0.12797,8e-5 -0.48347,0.15559 -0.37291,0.0912 10.60454,-6.18022 13.60953,-3.38232 10.10805,-6.37428 -1.05865,0.0729 2.1349,1.45735 2.23843,1.39996 1.27713,0.57643 2.55094,1.21538 3.61506,2.14055 4.85472,5.36319 -3.67236,6.13943 -9.73391,9.36252 -1.10251,-0.12686 -2.19826,-0.35576 -3.31313,-0.29815 -1.01947,-0.005 -2.04011,-0.0112 -3.05706,-0.0912 -1.16493,-0.1058 -2.31639,-0.29836 -3.47339,-0.46645 -1.53755,-0.12021 -3.08295,-0.17894 -4.60624,-0.43775 -1.27973,-0.18781 -2.57926,-0.22034 -3.8449,-0.50842 -1.09533,-0.18546 -2.21371,-0.234 -3.28672,-0.54754 -1.00155,-0.22594 -2.02754,-0.33866 -3.01898,-0.61757 -1.06398,-0.16369 -2.102,-0.43068 -3.15514,-0.64745 -1.36481,-0.2752 -2.69798,-0.68813 -4.07682,-0.89524 -1.34965,-0.20945 -2.68665,-0.48063 -3.99642,-0.87353 0,0 10.33801,-7.01424 10.33801,-7.01424 z"
         id="path6679"
         style="fill:#ffffff;fill-opacity:1;fill-rule:nonzero;stroke:#ffffff;stroke-width:0.171;stroke-miterlimit:4;stroke-dasharray:none;stroke-dashoffset:0;stroke-opacity:1" />
      <path
         inkscape:connector-curvature="0"
         d="m 252.55101,378.64093 c -0.15183,1.29441 0.12314,2.57423 0.10205,3.86675 -0.98804,5.2931 -7.8026,7.14287 -12.73436,8.50931 -1.10854,0.27189 -2.25155,0.31115 -3.38699,0.3325 -1.01721,0.0732 -2.0131,0.32999 -3.03879,0.42312 -1.02126,0.0747 -2.04592,0.0755 -3.06933,0.0783 -1.01137,2.5e-4 -2.02273,-0.002 -3.0341,-0.004 -1.02709,-0.0359 -2.0653,0.10024 -3.07278,-0.12243 -1.10673,-0.18977 -2.07179,-0.79336 -3.14637,-1.08885 -1.06903,-0.4687 -2.2067,-0.67585 -3.36153,-0.77444 0,0 10.15513,-7.17836 10.15513,-7.17836 l 0,0 c 1.19136,0.20691 2.33812,0.55908 3.47506,0.9686 0.99274,0.35877 1.9634,0.81743 3.03539,0.87662 0.99604,4e-5 1.99207,9.4e-4 2.98811,0.002 1.00852,10e-4 2.01709,0.004 3.02556,-0.008 0.99814,-0.0185 1.9984,-0.0467 2.98852,-0.18537 1.02714,-0.15223 2.0451,-0.37256 3.08989,-0.34427 1.07129,-0.0731 2.14411,-0.20223 3.14393,-0.6211 3.79198,-1.71614 9.61594,-5.70967 -9.14115,5.53455 -0.19809,0.11875 0.41384,-0.0992 0.71799,-0.4879 0.0947,-0.12098 0.14954,-0.26838 0.22431,-0.40256 0.32077,-1.22148 -0.15056,-2.4541 -0.098,-3.69996 0,0 11.13743,-5.6748 11.13743,-5.6748 z"
         id="path6681"
         style="fill:#ffffff;fill-opacity:1;fill-rule:nonzero;stroke:#ffffff;stroke-width:0.171;stroke-miterlimit:4;stroke-dasharray:none;stroke-dashoffset:0;stroke-opacity:1" />
      <path
         inkscape:connector-curvature="0"
         d="m 277.91664,329.906 c 1.63777,-1.60486 3.2547,-3.23084 4.87485,-4.85344 1.36125,-1.42228 2.87705,-2.68406 4.46827,-3.83886 0.71863,-0.51759 1.41727,-1.06126 2.12949,-1.58752 0,0 6.464,-2.5514 6.464,-2.5514 l 0,0 c -0.73403,0.50123 -1.4243,1.04893 -2.13274,1.5855 -1.60354,1.13662 -3.1807,2.32651 -4.5468,3.74867 -1.60535,1.60294 -3.21434,3.20241 -4.80174,4.82316 0,0 -6.45533,2.67389 -6.45533,2.67389 z"
         id="path6687"
         style="fill:#000000;fill-opacity:1;fill-rule:nonzero;stroke:#000000;stroke-width:0.171;stroke-miterlimit:4;stroke-dasharray:none;stroke-dashoffset:0;stroke-opacity:1" />
      <path
         inkscape:connector-curvature="0"
         d="m 280.26711,338.10281 c -0.99811,-1.7131 -1.39923,-3.4395 -1.11257,-5.39637 0.21397,-0.96818 0.70873,-1.82079 1.17385,-2.6825 0,0 6.33422,-2.83501 6.33422,-2.83501 l 0,0 c -0.45651,0.80989 -0.97485,1.5936 -1.27056,2.48206 -0.43355,1.89114 -0.0833,3.27719 0.93299,4.92067 0,0 -6.05793,3.51115 -6.05793,3.51115 z"
         id="path6693"
         style="fill:#000000;fill-opacity:1;fill-rule:nonzero;stroke:#000000;stroke-width:0.171;stroke-miterlimit:4;stroke-dasharray:none;stroke-dashoffset:0;stroke-opacity:1" />
      <path
         inkscape:connector-curvature="0"
         d="m 365.30852,287.78587 c 1.9692,-0.47058 3.90686,-1.05852 5.89297,-1.46178 1.89938,-0.17621 3.77272,-0.49922 5.66374,-0.73916 1.89664,-0.17848 3.78461,-0.31101 5.67114,-0.57224 2.01566,-0.20353 3.99025,-0.6448 5.99831,-0.90628 1.77607,-0.17353 3.54327,-0.24992 5.30618,-0.52883 1.60966,-0.27303 3.2371,-0.39469 4.8673,-0.44053 1.64519,-0.0464 3.25604,-0.43126 4.89683,-0.57561 1.71768,-0.13881 3.4412,-0.15505 5.16336,-0.15778 2.23431,-0.0949 4.44643,0.24861 6.66501,0.45782 1.80054,0.17265 3.60887,0.2175 5.41627,0.24552 1.99516,0.0183 3.99045,0.014 5.98567,0.0106 1.84891,0.24325 3.69234,0.47931 5.55448,0.59454 2.06414,-0.0131 4.09766,0.22525 6.14266,0.46757 1.76832,0.27867 3.57741,0.15029 5.33888,0.44186 1.76153,0.28078 3.50826,0.63216 5.27113,0.90649 2.32619,0.28317 4.65735,0.55631 6.96553,0.96596 2.34013,0.32932 4.66073,0.75048 6.98895,1.15129 2.2138,0.32879 4.41577,0.73389 6.60911,1.18052 2.21701,0.45999 4.43134,0.92862 6.64848,1.39168 2.27738,0.39869 4.54389,0.84976 6.78399,1.42084 1.2654,0.265 0.63514,0.14648 1.89055,0.35675 0,0 -5.68373,3.9774 -5.68373,3.9774 l 0,0 c -1.27159,-0.24267 -0.63258,-0.10935 -1.9168,-0.40111 -2.22439,-0.57593 -4.48301,-1.00062 -6.74307,-1.41191 -2.21626,-0.46892 -4.4369,-0.91237 -6.65246,-1.38402 -2.19232,-0.4488 -4.40072,-0.812 -6.61135,-1.1581 -2.31233,-0.42776 -4.62942,-0.81161 -6.95414,-1.16691 -2.32258,-0.36721 -4.65822,-0.63572 -6.98889,-0.94255 -1.76534,-0.28773 -3.52728,-0.59314 -5.29402,-0.87157 -1.76314,-0.18735 -3.54414,-0.1941 -5.30177,-0.45291 -2.03961,-0.24181 -4.07445,-0.39166 -6.12879,-0.43419 -1.84969,-0.13409 -3.67956,-0.41021 -5.52678,-0.55649 -1.99882,-3.4e-4 -3.99773,0.004 -5.99648,-0.0162 -1.81516,-0.026 -3.62894,-0.10321 -5.4344,-0.30357 -2.20635,-0.2268 -4.41334,-0.50335 -6.63669,-0.3876 -1.71383,0.0244 -3.43041,0.0494 -5.1373,0.22027 -1.64031,0.19388 -3.26797,0.53509 -4.92513,0.54188 -1.61326,0.0821 -3.22164,0.22621 -4.8156,0.4967 -1.75937,0.24889 -3.53392,0.27763 -5.29569,0.51008 -2.00284,0.28788 -3.98512,0.70375 -6.00012,0.90861 -1.88522,0.25967 -3.78412,0.32518 -5.67121,0.57123 -1.87831,0.27574 -3.76128,0.49245 -5.63641,0.78187 -1.98417,0.43891 -3.94827,0.98079 -5.89442,1.56196 0,0 5.52471,-4.29212 5.52471,-4.29212 z"
         id="path6695"
         style="fill:#000000;fill-opacity:1;fill-rule:nonzero;stroke:#000000;stroke-width:0.171;stroke-miterlimit:4;stroke-dasharray:none;stroke-dashoffset:0;stroke-opacity:1" />
      <path
         inkscape:connector-curvature="0"
         d="m 473.62814,275.57835 c 2.37494,0.98193 4.53577,2.39045 6.71294,3.73907 2.4024,1.4158 4.47626,3.27907 6.58952,5.07739 2.12144,2.04422 4.3118,4.01368 6.48867,5.99851 1.46209,1.448 3.37485,2.37225 3.88111,4.48834 -0.17908,1.40941 -1.30837,2.21369 -2.46666,2.87483 -6.97923,3.98366 -4.45459,3.07889 -8.0293,4.24867 -1.95875,0.85879 -3.98391,1.43518 -6.04246,1.98921 -2.29449,0.55547 -4.59865,1.06041 -6.90329,1.57328 -2.14123,0.43418 -4.32114,0.69832 -6.43665,1.25215 -1.5845,0.43407 -3.20115,0.67553 -4.79261,1.0741 -0.93061,0.35699 -0.4622,0.18471 -1.4053,0.51673 0,0 5.49499,-4.28086 5.49499,-4.28086 l 0,0 c 0.95283,-0.32828 0.47085,-0.17319 1.44613,-0.46466 1.58309,-0.37898 3.1985,-0.60572 4.76727,-1.05017 2.12968,-0.46287 4.28673,-0.78591 6.42082,-1.22649 2.30626,-0.51473 4.61414,-1.01874 6.90259,-1.60944 2.04763,-0.54482 4.0235,-1.2503 5.99481,-2.02716 2.87406,-1.14211 1.16067,-0.52451 -3.86983,2.4932 -0.31194,0.18713 0.6424,-0.34226 0.95397,-0.53001 0.6861,-0.41346 1.36389,-0.86936 1.80508,-1.55438 -0.19268,-1.90171 -2.4328,-2.82807 -3.56538,-4.15113 -2.15703,-1.99244 -4.34081,-3.95521 -6.47212,-5.97483 -2.10423,-1.75823 -4.15028,-3.60144 -6.52767,-4.9968 -2.15843,-1.32862 -4.31395,-2.7268 -6.73591,-3.53158 0,0 5.78928,-3.92797 5.78928,-3.92797 z"
         id="path6697"
         style="fill:#000000;fill-opacity:1;fill-rule:nonzero;stroke:#000000;stroke-width:0.171;stroke-miterlimit:4;stroke-dasharray:none;stroke-dashoffset:0;stroke-opacity:1" />
      <path
         inkscape:connector-curvature="0"
         d="m 310.48553,377.96197 c 1.02856,1.58051 2.31742,2.86198 4.10502,3.50225 1.83652,0.4507 3.73678,0.44009 5.61506,0.4611 1.88132,0.0753 3.82278,0.24292 5.65952,0.68819 1.67731,0.24855 3.29675,0.71223 4.95184,1.06124 1.64257,0.34865 2.93004,0.29292 4.56236,0.0129 1.92259,-0.43342 3.81752,0.0483 5.63253,0.69369 1.48136,0.81748 3.03487,1.37891 4.70641,1.61729 -0.20091,-0.37207 2.85474,0.73846 2.15656,1.20128 -14.89354,9.87282 -10.74516,13.05311 -15.84176,8.77514 -0.78482,-1.0751 -1.89488,-1.80434 -2.82969,-2.72579 -4.85074,-6.04195 9.24845,-8.1189 14.34126,-10.82533 0.2334,-0.12404 0.38626,0.36302 0.60043,0.51791 0.15547,0.11243 0.33527,0.18668 0.5029,0.28002 1.22859,0.83344 2.65378,1.29457 3.97143,1.96558 1.59521,0.93032 3.06082,2.04232 4.01942,3.63796 0.43014,1.17504 0.22117,2.27928 -0.91545,2.93225 -15.32321,8.80286 -10.10235,6.74673 -16.55186,9.22543 -1.83912,0.69422 -3.80281,0.85277 -5.74752,0.97022 -1.99451,0.20479 -3.90153,-0.25879 -5.81,-0.76484 -1.96521,-0.61409 -3.68181,-1.78607 -5.38764,-2.90612 -1.64741,-1.03546 -3.18824,-2.22379 -4.79937,-3.31015 -1.20922,-0.86541 -2.5006,-1.63352 -3.8448,-2.27136 -1.31639,-0.77534 -2.79201,-1.19541 -4.16218,-1.86174 -1.57377,-0.49959 -2.89887,-1.52609 -4.34904,-2.28696 -1.38905,-0.54812 -2.68789,-1.29053 -4.1137,-1.74454 -0.66233,-0.25791 -1.26029,-0.76974 -1.98701,-0.41782 -0.17879,0.0866 -0.64993,0.45448 -0.4759,0.35871 15.373,-8.45971 19.74491,-10.16483 14.10412,-7.93323 -0.86273,0.81981 -1.25255,2.10477 -1.43845,3.25899 0.01,1.07013 1.05144,1.46733 1.93513,1.7074 1.28896,0.18348 2.65456,0.38755 3.92716,0.0548 1.70769,-0.46051 3.39159,-1.05793 4.98898,-1.83882 1.91734,-0.79137 3.81455,-1.64073 5.80305,-2.23676 2.04625,-0.43926 4.13333,-0.7987 6.22375,-0.56335 1.75104,0.46783 3.47559,1.08375 5.13185,1.82051 0,0 -14.46227,9.66586 -14.46227,9.66586 l 0,0 c -1.53732,-0.582 -3.06579,-1.29615 -4.73731,-1.34736 -1.97609,0.0919 -3.95134,0.38219 -5.81842,1.05991 -1.90767,0.74501 -3.81802,1.48367 -5.68752,2.32227 -1.75234,0.67989 -3.54621,1.37457 -5.43825,1.49979 -1.50374,-0.0498 -3.02894,-0.13683 -4.42982,-0.74256 -1.47265,-0.76668 -2.67417,-1.84354 -3.02377,-3.53889 -0.054,-1.52635 0.46506,-2.90404 0.92384,-4.33725 2.50074,-5.89939 10.37436,-10.68862 16.65793,-9.33866 0.78372,0.16838 1.48993,0.56941 2.2464,0.81719 1.43903,0.60397 2.85985,1.26046 4.24886,1.97159 1.38106,0.80732 2.75024,1.64292 4.27295,2.16356 1.42941,0.59105 2.86753,1.16582 4.21494,1.93273 1.37088,0.7538 2.73163,1.53258 3.96911,2.49654 1.52377,1.15658 3.07542,2.27869 4.71658,3.26525 1.59373,1.01564 3.18556,2.05995 5.07578,2.42636 1.81002,0.42208 3.63666,0.53688 5.48657,0.29387 1.86382,-0.20581 3.69521,-0.57142 5.39638,-1.39756 5.86365,-2.74772 0.2317,-0.13882 -13.3011,7.7782 -0.21534,0.12598 0.44573,-0.23339 0.6869,-0.29728 0.42779,-0.11333 0.92138,0.006 1.33385,-0.20399 -0.5936,-1.36062 -2.17585,-2.04249 -3.40164,-2.73041 -1.36126,-0.60705 -2.71485,-1.2266 -4.03664,-1.91496 -0.16715,-0.0653 -0.32202,-0.19284 -0.50145,-0.19591 -0.0869,-0.001 -0.25899,0.22882 -0.18444,0.18419 4.94501,-2.9608 9.94853,-5.8287 14.80242,-8.93662 0.13416,-0.0859 -0.21882,-0.24718 -0.36666,-0.30652 -0.16601,-0.0666 0.26864,1.09469 0.22619,0.48667 0.88633,0.78514 1.80165,1.54797 2.6742,2.34097 6.03951,0.22945 -0.35663,-0.0673 -14.18119,9.43381 -0.11678,0.0803 0.22295,0.19793 0.26325,0.33378 0.008,0.0279 -1.3563,-0.25953 -1.37387,-0.25625 -1.64301,-0.43749 -3.1517,-1.1759 -4.73263,-1.78442 -1.77228,-0.4228 -3.46722,-0.45321 -5.26131,-0.0921 -1.65579,0.10269 -3.31229,-0.0793 -4.92119,-0.48722 -1.61307,-0.40573 -3.24257,-0.7193 -4.87726,-1.02711 -1.81037,-0.23946 -3.61956,-0.53328 -5.45282,-0.48121 -2.05604,-0.0601 -4.13059,-0.21218 -6.04719,-1.03042 -1.86171,-1.02017 -3.28006,-2.50893 -4.65481,-4.11021 0,0 15.011,-8.97179 15.011,-8.97179 z"
         id="path6699"
         style="fill:#ffffff;fill-opacity:1;fill-rule:nonzero;stroke:#ffffff;stroke-width:0.171;stroke-miterlimit:4;stroke-dasharray:none;stroke-dashoffset:0;stroke-opacity:1" />
      <path
         inkscape:connector-curvature="0"
         d="m 401.71965,288.55934 c 1.83352,1.3839 3.52978,2.92534 5.24505,4.44953 1.4816,1.36462 2.90445,2.75138 4.13956,4.34748 1.32507,1.65415 2.38418,3.49007 3.58947,5.22821 1.24336,1.83956 2.56585,3.60745 3.69896,5.51875 0.97081,1.84501 1.81397,3.77088 2.56338,5.71746 0.74665,1.86474 1.22466,3.81412 1.78415,5.73823 0.45074,1.66973 0.55594,3.39921 0.88406,5.09158 0.37926,1.95224 0.46222,3.94131 0.51856,5.924 0.0993,2.3639 0.006,4.71436 -0.22019,7.06697 -0.0746,1.80953 -0.4582,3.57164 -0.76596,5.34841 -0.31814,1.98441 -0.69475,3.95413 -1.15232,5.91063 -0.34488,2.04181 -1.09246,3.97275 -1.82427,5.89929 -0.75889,2.0537 -1.74222,4.01021 -2.63522,6.00558 -0.93848,2.30558 -2.01934,4.54802 -3.03626,6.81881 -0.90723,2.07606 -1.8132,4.14804 -2.89693,6.13885 -0.8959,1.72241 -1.9624,3.33205 -3.23535,4.79542 -1.3797,1.60917 -2.78362,3.16389 -4.41787,4.51851 -6.02627,4.58422 -12.62124,9.32502 -20.16107,10.77207 -1.86562,0.38581 -3.72088,0.76231 -5.62323,0.95117 -1.86995,0.0782 -3.7711,0.24152 -5.62768,-0.0348 -2.29743,-0.34702 -3.4441,-0.90605 -4.01698,-3.26179 0.0473,-0.33891 0.0183,-0.69765 0.14199,-1.01674 0.13535,-0.34929 0.29849,-0.74132 0.61618,-0.9398 5.20596,-3.25244 10.53224,-6.3099 15.8621,-9.35505 0.50787,-0.29017 1.09113,-0.42196 1.63353,-0.64087 3.12929,-1.26292 0.95866,-0.50362 4.63464,-1.64079 9.25472,-2.69653 18.6269,-4.95443 27.8842,-7.64746 1.63937,-0.49331 3.28087,-0.97961 4.91812,-1.47993 3.80245,-1.16197 7.68011,-2.31573 11.27773,-4.04295 0.80022,-0.38419 3.09564,-1.73898 2.32433,-1.29963 -4.23245,2.41083 -8.47186,4.80941 -12.70778,7.21412 0.40898,-0.30071 0.83142,-0.58391 1.22695,-0.90212 0.23398,-0.18823 0.42764,-0.42275 0.65853,-0.61477 0.63452,-0.52771 0.62883,1.548 0.78294,1.48324 8.01626,-3.36884 19.63637,-11.49031 13.08181,-6.94907 -0.9536,0.74377 -3.56743,2.78058 -4.33223,3.38671 -2.78294,2.20559 -3.8194,3.15921 -6.84529,5.20593 -5.8968,3.98861 -19.65315,11.37714 -22.0312,12.72061 -3.4875,1.55891 -6.93597,3.31565 -10.61177,4.41267 -1.13506,0.33875 -2.67314,0.75096 -3.90672,0.41572 -0.43227,-0.11748 -0.77356,-0.45193 -1.16034,-0.6779 -0.2385,-0.43965 -0.56782,-0.84108 -0.7155,-1.31896 -0.7974,-2.58025 1.19638,-6.8965 2.13831,-9.26097 1.74896,-3.74373 3.3821,-7.777 6.3062,-10.78348 5.25584,-2.83106 10.31942,-6.05251 15.76753,-8.49317 0.42354,-0.18974 0.715,0.60885 0.97704,0.99188 1.21401,1.77459 1.03219,4.24566 1.03107,6.27144 0.20541,1.37609 -0.62161,4.32985 0.11439,5.53113 0.17545,0.28636 0.29662,-0.61398 0.34631,-0.94612 -24.92763,14.25931 -15.47185,9.77385 -10.92771,5.09593 1.86936,-1.92439 3.55722,-4.0273 5.28071,-6.07997 1.18876,-1.52483 2.4801,-2.98077 3.6162,-4.54752 0.11141,-0.15363 0.12586,-0.40383 0.29708,-0.48566 16.33768,-7.80866 15.85168,-13.05811 15.92018,-5.82655 -1.16017,3.01605 -2.3458,6.1055 -4.00423,8.89124 -14.34646,8.30678 -16.20675,14.20616 -18.33838,1.85854 -0.33602,-1.98539 -0.41177,-4.00025 -0.62696,-5.9988 -0.0849,-0.78801 -0.051,-2.29988 -0.83042,-2.8108 -1.03593,6.17325 -0.2638,0.37977 14.32283,-7.13312 0.35612,-0.18341 -0.59131,0.54629 -0.83509,0.86414 -1.11581,1.45488 -1.87719,3.2143 -2.67076,4.85093 -0.76016,1.659 -1.52013,3.32752 -2.01863,5.08804 -0.0758,0.26755 0.0814,0.70153 -0.17186,0.8163 -5.20399,2.35837 -10.41185,4.7082 -15.61777,7.06229 0.24289,-0.28456 0.51019,-0.54998 0.72867,-0.8537 0.74401,-1.03428 1.35383,-2.15898 2.05207,-3.2247 1.43371,-2.18824 2.95927,-4.31527 4.46512,-6.45387 5.52266,-7.71814 7.49874,-7.66383 19.31528,-13.73758 0.32241,-0.16571 0.68371,0.30293 0.9228,0.57541 0.30378,0.3462 0.43425,0.81239 0.65137,1.21859 0.0355,0.42951 0.1249,0.85796 0.1064,1.28854 -0.11174,2.60149 -1.52764,5.75439 -2.55612,8.11031 -1.41351,3.15466 -3.19036,6.12411 -5.1077,8.99382 -1.53654,2.30306 -3.37093,4.37724 -5.15291,6.48779 -1.68849,1.96798 -3.31578,3.98875 -4.88804,6.05063 -1.44706,1.86758 -2.93016,3.70456 -4.3199,5.6159 -1.50756,1.85 -2.86742,3.81219 -4.321,5.70212 -4.37281,5.07741 -1.55526,1.95712 -16.3093,9.08357 -0.35131,0.16969 -3.6567,-2.24047 -4.06179,-2.54541 -2.55573,-1.85861 -5.17187,-3.62083 -8.13764,-4.74632 -1.42593,-0.39664 -2.91825,-0.91208 -4.42059,-0.69429 -0.0972,0.0141 -1.94097,0.44847 -2.019,0.46676 -1.89958,0.64225 -3.73875,1.43777 -5.69481,1.90262 -1.96608,0.56842 -3.14222,-0.096 -4.85836,-0.92913 -1.64002,-0.87346 -2.95948,-2.07722 -3.91425,-3.66367 -0.49345,-1.36164 -1.16949,-2.68819 -1.41167,-4.12181 0.0365,-0.29304 0.0139,-0.59971 0.10944,-0.87913 0.0792,-0.23163 0.18966,-0.49215 0.40141,-0.61499 11.874,-6.88839 10.70672,-8.72648 18.61287,-8.86773 2.39854,-0.0107 4.79718,-0.0118 7.19573,-0.002 1.98422,-0.004 3.96817,-0.0199 5.95235,-0.003 1.94467,0.0672 3.90934,-0.15556 5.83619,0.14234 2.20625,0.30833 3.56198,0.45998 5.18361,2.1228 1.53324,1.6493 1.89338,3.75023 2.15903,5.90075 0.032,0.35882 0.0684,0.71727 0.096,1.07646 0.0463,0.60315 0.0455,1.07965 0.14029,1.66137 0.0262,0.16071 0.25142,0.39927 0.10801,0.47639 -15.79797,8.49559 -14.14806,13.53207 -15.90197,7.14669 -0.59517,-2.21301 -1.10128,-4.527 -2.40907,-6.44386 -0.11645,-0.0189 -0.30675,-0.16666 -0.34937,-0.0566 -0.10229,0.26408 -0.20937,0.9778 0.0426,0.84854 4.9776,-2.55324 9.62893,-5.70504 14.5634,-8.34066 0.26929,-0.14383 -0.3452,0.51183 -0.44574,0.8001 -0.37543,1.07638 -0.31989,1.82722 -0.37697,2.97277 0.40989,3.85404 2.0804,6.86753 5.00751,9.34423 0.95752,0.61495 2.07268,1.22319 3.24503,0.75897 0.35958,-0.14239 1.30904,-0.82269 0.96997,-0.63666 -13.8207,7.5825 -17.41931,11.08462 -12.19861,6.28923 0.47367,-0.63113 0.99463,-1.2294 1.421,-1.8934 3.89272,-6.06232 5.87533,-13.82232 7.73209,-20.70502 0.84626,-3.77548 1.83069,-7.55368 2.06275,-11.43353 0.0542,-0.90541 0.19553,-2.73481 -0.38908,-3.63616 5.20148,-2.46239 10.40295,-4.92478 15.60443,-7.38717 -0.15123,0.126 -0.36872,0.20044 -0.45368,0.378 -0.4717,0.98577 -0.39439,2.44958 0.0269,3.41997 0.11133,-0.0423 0.25924,-0.0342 0.334,-0.12689 0.16213,-0.20105 0.56205,-0.81843 0.33263,-0.6998 -4.77162,2.46754 -9.32961,5.33339 -14.09346,7.8159 -0.47279,0.24638 0.84058,-0.6697 1.17576,-1.08429 1.12754,-1.39462 1.7918,-3.0659 2.56204,-4.65991 1.47574,-3.62071 2.7261,-7.33286 3.7388,-11.10948 0.48336,-1.80255 0.96519,-3.68037 1.07106,-5.55405 1.66423,6.2211 -0.23387,0.0663 15.38764,-6.86546 0.36238,-0.1608 -0.35256,0.71037 -0.51688,1.07116 -0.49403,1.08469 -0.91325,2.17625 -1.26934,3.31209 0.48771,6.12861 0.24051,1.45049 -15.87755,7.27765 -0.39055,0.1412 0.15986,-0.81509 0.24654,-1.22124 0.1084,-0.50792 0.22806,-1.01338 0.33868,-1.52082 0.48965,-2.24628 0.35213,-1.60747 0.78562,-3.91007 1.35778,-8.6133 -2.61679,-3.99105 15.85372,-10.72165 0.57639,-0.21003 -0.34356,1.17872 -0.47743,1.7774 -0.2059,0.92079 -0.36085,1.85224 -0.54128,2.77836 -0.80368,5.98608 -1.99652,12.09631 -1.59271,18.16644 3.19223,5.06168 0.61322,0.83383 -15.49956,7.66137 -0.28695,0.12159 0.11869,-0.61234 0.15812,-0.92149 0.0523,-0.41048 0.0852,-0.8233 0.117,-1.23588 0.0831,-1.07775 0.10344,-1.80995 0.14849,-2.8964 0.13196,-2.46977 0.004,-4.92686 -0.21784,-7.38523 -0.27776,-2.70961 -0.30923,-5.43367 -0.50071,-8.15005 -0.38481,-3.90437 -1.79676,-7.54983 -3.32122,-11.12602 -1.36991,-3.33809 -2.87709,-6.61522 -4.66368,-9.75115 -1.34246,-1.91271 -2.87083,-3.696 -4.4247,-5.44056 -1.41853,-1.5461 -2.75177,-3.18878 -3.78548,-5.01814 -0.90931,-1.65656 -1.78064,-3.33319 -2.86595,-4.88294 -1.09794,-1.54823 -2.55079,-2.7913 -3.68567,-4.30392 -0.98816,-1.70814 -0.6689,-3.42997 0.15663,-5.11211 3.61242,-5.19609 13.60346,-8.41821 16.57751,-10.05042 0.5297,-0.29071 1.31503,-0.0551 1.8282,0.13459 0.23457,0.43804 0.55949,0.83862 0.70369,1.31412 0.12481,0.41159 -0.0496,1.05969 -0.4473,1.29684 -1.20339,0.71764 -11.1196,7.39268 -16.81086,9.55991 -1.66615,0.42684 -3.23158,1.13672 -4.88699,1.59312 -2.04892,0.5607 -3.12647,-0.41698 -3.08573,-2.5134 7.26842,-4.98968 12.43416,-13.23309 17.76135,-7.23105 0,0 -14.88766,9.12089 -14.88766,9.12089 l 0,0 c -0.27519,-0.23095 -0.60932,-0.58677 -1.01766,-0.36218 -0.12001,0.066 -0.41082,0.35785 -0.2929,0.28817 4.87393,-2.88029 9.7141,-5.81734 14.57115,-8.726 -1.99659,-0.88986 -0.22816,-0.86052 0.69591,-1.21543 1.60307,-0.56805 3.23544,-1.07593 4.78337,-1.78283 5.32936,-2.84438 11.15682,-6.69468 -13.093,7.707 -0.0415,0.0246 0.45716,-0.38587 0.9278,0.10393 0.28652,0.29819 0.49075,0.66575 0.73612,0.99862 -7.5861,4.08394 19.78119,-11.21603 11.90736,-7.16949 -0.85919,0.81515 -1.64077,1.97973 -1.18348,3.1926 1.11501,1.54172 2.63748,2.75904 3.69594,4.35488 1.1075,1.60213 1.99175,3.32796 2.92477,5.03484 0.98116,1.73074 2.25378,3.2602 3.60255,4.71767 1.59563,1.86139 3.11553,3.79969 4.45807,5.85166 1.72074,3.24197 3.18278,6.60414 4.59205,9.99174 1.57048,3.73122 3.08004,7.50266 3.70274,11.53012 0.27095,2.68631 0.43932,5.37281 0.62554,8.06619 0.2557,2.54278 0.45416,5.06303 0.22824,7.6213 -0.18215,10.15575 1.74281,4.54489 -15.7403,13.33887 -0.14234,0.0716 0.0677,-0.31141 0.10154,-0.46711 1.00351,-6.13533 1.51855,-12.31687 2.00992,-18.51265 0.0607,-0.89392 0.11986,-1.78795 0.18204,-2.68177 0.037,-0.53211 -0.33606,-1.31218 0.11555,-1.596 18.20669,-11.44252 16.47902,-13.26065 15.10438,-4.38433 -1.8465,11.29304 1.15783,4.94117 -16.92633,14.01649 -0.11094,0.0557 0.24796,0.0122 0.37194,0.0183 0.62441,-1.02618 0.9966,-2.15831 1.3998,-3.28969 0.12413,-0.3483 0.0287,-0.86117 0.34383,-1.05465 15.75253,-9.67248 13.62827,-14.41568 16.07517,-7.95556 -1.83565,5.74314 -3.5406,11.52323 -5.32154,17.28354 -0.40914,1.10398 -1.32894,3.70539 -1.91255,4.88795 -2.95681,5.99136 -12.01067,8.11415 -16.68732,10.52873 -0.34717,0.17925 -0.77839,-0.16845 -1.11108,-0.37329 -0.33445,-0.20593 -0.55928,-0.55157 -0.83892,-0.82736 -0.82385,-1.86938 -0.51285,-2.46385 -0.55026,-4.37728 -0.008,-0.39593 -0.45888,-0.98792 -0.114,-1.18254 5.15423,-2.90862 10.64494,-5.17587 15.96742,-7.76381 0.2658,1.53498 0.10565,3.17555 -0.0912,4.70765 -0.51901,4.03923 -1.65755,7.95394 -2.57504,11.91138 -1.30513,4.9012 -1.29715,5.00192 -2.73207,9.86759 -1.31308,4.4525 -2.63658,8.98134 -5.07503,12.97392 -4.71642,6.38039 -1.37774,2.2826 -17.11534,10.88198 -1.48367,0.81071 -4.09755,-0.79186 -5.16971,-1.68939 -2.96238,-3.00106 -4.81228,-6.40181 -5.62062,-10.57333 -0.0249,-0.30979 -0.232,-4.33665 0.0382,-4.52429 6.30044,-4.37567 11.85567,-13.77938 16.74308,-8.17649 1.13411,2.1478 1.78706,4.4677 2.66986,6.72243 2.53804,5.84243 0.3204,0.3137 -15.26178,8.82208 -0.0769,0.042 0.22585,0.0294 0.25753,-0.0522 0.27394,-0.70616 -0.16033,-1.95599 -0.0454,-2.69152 -0.15994,-1.72717 -0.32399,-3.48978 -1.62502,-4.77213 -1.29823,-0.98722 -2.97343,-1.00593 -4.53767,-1.19617 -1.90441,-0.0516 -3.80968,-0.0168 -5.71456,-0.0308 -1.96804,0.0112 -3.93555,-0.0152 -5.90348,-0.0367 -2.38718,-0.006 -4.77849,-0.0512 -7.16149,0.11936 -0.74148,0.0813 -1.23175,0.10552 -1.94645,0.2915 -0.25765,0.067 -0.98597,0.39069 -0.75683,0.25514 23.97421,-14.18217 19.14612,-7.85095 13.16373,-8.27468 -0.0714,0.0739 -0.20369,0.11954 -0.21433,0.2218 -0.0387,0.37159 1.008,2.38817 1.05052,3.00653 0.75717,1.31479 1.96725,2.15652 3.34449,2.76228 1.50346,0.62559 2.59101,0.46449 4.12879,-0.0335 1.90211,-0.6079 3.75905,-1.39281 5.73591,-1.73575 2.49186,-0.32707 4.60408,0.10341 6.90449,1.12129 2.96241,1.37437 5.63053,3.24467 8.36078,5.02286 0.84561,0.53402 1.8606,1.34853 2.91069,1.4382 0.20439,0.0175 0.78378,-0.20477 0.60715,-0.10045 -13.95127,8.23926 -19.86878,9.46113 -13.62397,8.08368 1.74287,-1.63403 2.82279,-3.81974 4.45987,-5.56212 1.39968,-1.91746 2.76539,-3.85834 4.31827,-5.65823 1.58964,-2.07567 3.17621,-4.15685 4.88516,-6.13663 1.77787,-2.12387 3.64575,-4.17124 5.31862,-6.38115 1.97792,-2.77634 3.80566,-5.67549 5.29718,-8.74396 1.19238,-2.54252 2.22902,-5.1252 2.70945,-7.90815 0.27057,0.22489 0.20729,0.0766 0.0784,0.4773 4.65222,-2.75349 9.30444,-5.50698 13.95667,-8.26047 0.44905,-0.26057 -0.88303,0.55516 -1.27138,0.89973 -1.26834,1.12539 -2.03047,2.24311 -3.08044,3.58652 -2.3259,3.32596 -4.88705,6.60087 -6.45633,10.36919 -5.39786,2.57914 -10.73024,5.30004 -16.19358,7.73742 -0.15484,0.0691 -0.0431,-0.46279 0.32478,-1.51558 0.176,-0.50366 1.15158,-3.07542 1.28687,-3.40706 0.26108,-0.64003 0.54954,-1.26855 0.82431,-1.90283 2.87782,-6.66645 9.49038,-21.57223 19.58579,-14.53863 0.18642,0.31189 0.43565,0.59398 0.55927,0.93566 0.2269,0.62715 0.34912,2.41587 0.38927,2.95782 0.14396,1.9434 0.21898,3.89536 0.57756,5.81702 0.31104,1.59226 0.29327,1.71593 0.73677,3.20932 0.0778,0.26209 0.35385,1.3261 0.62456,1.38235 0.10764,0.0224 0.30941,-0.30607 0.21454,-0.25051 -4.76967,2.79323 -9.50283,5.64832 -14.25424,8.47249 0.29818,-0.19558 0.65578,-0.32188 0.89456,-0.58674 0.706,-0.78315 1.16927,-2.15268 1.58144,-3.05916 0.65625,-1.44329 1.4497,-2.84202 1.83193,-4.39427 5.3245,-2.71377 10.70153,-5.32401 16.01653,-8.05636 0.21468,-0.11037 -0.50221,0.0464 -0.70029,0.1844 -1.53601,1.0699 -2.78696,3.406 -4.09306,4.68874 -1.69737,2.02548 -3.32271,4.12248 -5.04828,6.12303 -0.46497,0.53906 -0.9673,1.04474 -1.44674,1.57097 -0.38541,0.42302 -0.65895,0.97914 -1.14775,1.27672 -5.23199,3.18518 -10.63135,6.08693 -15.94702,9.13039 -0.40274,-0.19129 -0.85995,-0.29546 -1.20822,-0.57385 -1.56573,-1.2516 -0.48142,-5.15175 -0.62066,-6.85053 0.007,-0.89756 0.0514,-2.17975 -0.0623,-3.09098 -0.0466,-0.37324 -0.13593,-0.74124 -0.24169,-1.10219 -0.0523,-0.17845 -0.0937,-0.38178 -0.23013,-0.50817 -0.054,-0.0501 -0.2439,0.16489 -0.18016,0.12797 4.74486,-2.74843 9.48289,-5.50865 14.22434,-8.26298 -0.37965,0.17285 -0.79964,0.2759 -1.13895,0.51855 -1.20144,0.8592 -1.7394,1.82743 -2.53301,3.07068 -1.30483,2.04408 -2.45705,4.1824 -3.36931,6.43179 -0.89647,2.17361 -2.54439,5.70767 -2.28942,8.09879 1.25879,0.31778 2.48982,-0.022 3.71469,-0.40091 3.45849,-1.06999 6.73345,-2.6618 9.98943,-4.21821 -3.16888,1.89994 -6.33063,3.81183 -9.50664,5.69983 -1.36311,0.81032 2.74107,-1.5982 4.06786,-2.46672 3.29356,-2.15595 3.54048,-2.52053 6.41438,-4.93475 2.2726,-1.90908 1.8335,-1.54019 3.85112,-3.18717 5.10685,-4.94015 4.50393,-4.53429 16.96828,-9.86261 0.59194,-0.25305 0.9057,0.94843 1.17353,1.53382 0.22301,0.48743 -0.78201,1.51555 -0.89801,1.63386 -0.40337,0.4114 -0.86404,0.76242 -1.29606,1.14362 -5.39668,3.1395 -10.75885,6.33909 -16.19004,9.4185 -1.32425,0.75083 -3.81825,1.64976 -5.16271,2.11466 -4.2021,1.45303 -8.50447,2.57876 -12.76428,3.84369 -9.52937,2.70456 -19.17094,5.05732 -28.54677,8.27163 -2.24242,0.85927 -2.77695,1.00375 -4.81488,1.98766 -0.56609,0.2733 -2.21015,1.19723 -1.67165,0.87292 22.4634,-13.52848 17.63143,-9.70813 12.3053,-7.49108 -0.84896,0.89702 2.21272,1.1046 2.602,1.15322 1.81226,0.0291 3.62805,-0.0258 5.42678,-0.26468 1.84013,-0.26807 3.64979,-0.68733 5.46506,-1.08496 0.9328,-0.27631 1.84543,-0.57938 2.71686,-1.02014 0.25149,-0.1272 0.97751,-0.56145 0.73419,-0.41926 -14.55016,8.50261 -18.54876,10.99362 -13.11932,7.62575 1.64628,-1.27016 3.28595,-2.53523 4.48813,-4.2657 1.32159,-1.3459 2.5118,-2.74052 3.41788,-4.40921 1.086,-1.98867 2.17964,-3.95658 3.05835,-6.05238 0.97718,-2.25401 2.06406,-4.46082 2.9453,-6.75622 0.82917,-2.02703 1.9327,-3.92792 2.67148,-5.99609 0.80015,-1.79826 1.52469,-3.66811 1.86977,-5.61235 0.44751,-1.9214 0.99757,-3.81152 1.24746,-5.77608 0.18295,-1.79958 0.6929,-3.52318 0.82309,-5.32959 0.28978,-2.27944 0.51796,-4.5486 0.33386,-6.85092 -0.059,-1.88143 -0.11847,-3.77166 -0.4781,-5.62518 -0.32715,-1.65662 -0.43758,-3.33205 -0.79661,-4.98283 -0.50523,-1.88857 -0.89357,-3.81602 -1.66097,-5.6229 -0.70469,-1.8632 -1.47444,-3.72322 -2.44935,-5.46123 -1.07368,-1.89223 -2.29634,-3.67047 -3.56573,-5.43821 -1.18235,-1.71704 -2.31152,-3.47045 -3.6019,-5.11079 -1.16591,-1.50144 -2.58454,-2.75797 -3.90992,-4.11466 -1.6704,-1.49077 -3.30626,-3.04833 -5.27974,-4.14114 0,0 14.70736,-9.41697 14.70736,-9.41697 z"
         id="path6701"
         style="fill:#ffffff;fill-opacity:1;fill-rule:nonzero;stroke:#ffffff;stroke-width:0.171;stroke-miterlimit:4;stroke-dasharray:none;stroke-dashoffset:0;stroke-opacity:1" />
    </g>
  </g>
</svg>
