<?xml version="1.0" encoding="UTF-8" standalone="no"?>
<!-- Created with Inkscape (http://www.inkscape.org/) -->

<svg
   xmlns:dc="http://purl.org/dc/elements/1.1/"
   xmlns:cc="http://creativecommons.org/ns#"
   xmlns:rdf="http://www.w3.org/1999/02/22-rdf-syntax-ns#"
   xmlns:svg="http://www.w3.org/2000/svg"
   xmlns="http://www.w3.org/2000/svg"
   xmlns:xlink="http://www.w3.org/1999/xlink"
   xmlns:sodipodi="http://sodipodi.sourceforge.net/DTD/sodipodi-0.dtd"
   xmlns:inkscape="http://www.inkscape.org/namespaces/inkscape"
   width="125.31724mm"
   height="55.896275mm"
   viewBox="0 0 444.03746 198.05766"
   id="svg2"
   version="1.1"
   inkscape:version="0.91 r13725"
   sodipodi:docname="parta.svg">
  <defs
     id="defs4">
    <linearGradient
       inkscape:collect="always"
       id="linearGradient5931">
      <stop
         style="stop-color:#ff0000;stop-opacity:1;"
         offset="0"
         id="stop5933" />
      <stop
         style="stop-color:#ff0000;stop-opacity:0;"
         offset="1"
         id="stop5935" />
    </linearGradient>
    <linearGradient
       inkscape:collect="always"
       id="linearGradient5791">
      <stop
         style="stop-color:#00008d;stop-opacity:1;"
         offset="0"
         id="stop5793" />
      <stop
         style="stop-color:#00008d;stop-opacity:0;"
         offset="1"
         id="stop5795" />
    </linearGradient>
    <marker
       inkscape:stockid="DotL"
       orient="auto"
       refY="0"
       refX="0"
       id="marker5776"
       style="overflow:visible"
       inkscape:isstock="true">
      <path
         id="path5778"
         d="m -2.5,-1 c 0,2.76 -2.24,5 -5,5 -2.76,0 -5,-2.24 -5,-5 0,-2.76 2.24,-5 5,-5 2.76,0 5,2.24 5,5 z"
         style="fill:#000000;fill-opacity:1;fill-rule:evenodd;stroke:#000000;stroke-width:1pt;stroke-opacity:1"
         transform="matrix(0.8,0,0,0.8,5.92,0.8)"
         inkscape:connector-curvature="0" />
    </marker>
    <marker
       inkscape:stockid="DotL"
       orient="auto"
       refY="0"
       refX="0"
       id="marker5724"
       style="overflow:visible"
       inkscape:isstock="true">
      <path
         id="path5726"
         d="m -2.5,-1 c 0,2.76 -2.24,5 -5,5 -2.76,0 -5,-2.24 -5,-5 0,-2.76 2.24,-5 5,-5 2.76,0 5,2.24 5,5 z"
         style="fill:#000000;fill-opacity:1;fill-rule:evenodd;stroke:#000000;stroke-width:1pt;stroke-opacity:1"
         transform="matrix(0.8,0,0,0.8,5.92,0.8)"
         inkscape:connector-curvature="0" />
    </marker>
    <marker
       inkscape:isstock="true"
       style="overflow:visible"
       id="marker5654"
       refX="0"
       refY="0"
       orient="auto"
       inkscape:stockid="DotL">
      <path
         transform="matrix(0.8,0,0,0.8,5.92,0.8)"
         style="fill:#000000;fill-opacity:1;fill-rule:evenodd;stroke:#000000;stroke-width:1pt;stroke-opacity:1"
         d="m -2.5,-1 c 0,2.76 -2.24,5 -5,5 -2.76,0 -5,-2.24 -5,-5 0,-2.76 2.24,-5 5,-5 2.76,0 5,2.24 5,5 z"
         id="path5656"
         inkscape:connector-curvature="0" />
    </marker>
    <marker
       inkscape:stockid="TriangleOutL"
       orient="auto"
       refY="0"
       refX="0"
       id="marker5260"
       style="overflow:visible"
       inkscape:isstock="true">
      <path
         id="path5262"
         d="m 5.77,0 -8.65,5 0,-10 8.65,5 z"
         style="fill:#000000;fill-opacity:1;fill-rule:evenodd;stroke:#000000;stroke-width:1pt;stroke-opacity:1"
         transform="scale(0.8,0.8)"
         inkscape:connector-curvature="0" />
    </marker>
    <marker
       inkscape:stockid="TriangleOutL"
       orient="auto"
       refY="0"
       refX="0"
       id="marker4540"
       style="overflow:visible"
       inkscape:isstock="true">
      <path
         id="path4542"
         d="m 5.77,0 -8.65,5 0,-10 8.65,5 z"
         style="fill:#000000;fill-opacity:1;fill-rule:evenodd;stroke:#000000;stroke-width:1pt;stroke-opacity:1"
         transform="scale(0.8,0.8)"
         inkscape:connector-curvature="0" />
    </marker>
    <marker
       inkscape:isstock="true"
       style="overflow:visible"
       id="marker4468"
       refX="0"
       refY="0"
       orient="auto"
       inkscape:stockid="TriangleOutL"
       inkscape:collect="always">
      <path
         transform="scale(0.8,0.8)"
         style="fill:#000000;fill-opacity:1;fill-rule:evenodd;stroke:#000000;stroke-width:1pt;stroke-opacity:1"
         d="m 5.77,0 -8.65,5 0,-10 8.65,5 z"
         id="path4470"
         inkscape:connector-curvature="0" />
    </marker>
    <radialGradient
       inkscape:collect="always"
       xlink:href="#linearGradient5791"
       id="radialGradient5809"
       cx="276.38147"
       cy="101.46933"
       fx="276.38147"
       fy="101.46933"
       r="3.8928571"
       gradientUnits="userSpaceOnUse" />
    <radialGradient
       inkscape:collect="always"
       xlink:href="#linearGradient5791"
       id="radialGradient5811"
       cx="399.59576"
       cy="101.46933"
       fx="399.59576"
       fy="101.46933"
       r="3.8928571"
       gradientUnits="userSpaceOnUse" />
    <radialGradient
       inkscape:collect="always"
       xlink:href="#linearGradient5791"
       id="radialGradient5813"
       cx="336.73862"
       cy="101.46933"
       fx="336.73862"
       fy="101.46933"
       r="3.8928571"
       gradientUnits="userSpaceOnUse" />
    <radialGradient
       inkscape:collect="always"
       xlink:href="#linearGradient5931"
       id="radialGradient5937"
       cx="265.75644"
       cy="173.70148"
       fx="265.75644"
       fy="173.70148"
       r="1.3037909"
       gradientUnits="userSpaceOnUse" />
    <radialGradient
       inkscape:collect="always"
       xlink:href="#linearGradient5931"
       id="radialGradient5939"
       cx="288.46777"
       cy="173.70148"
       fx="288.46777"
       fy="173.70148"
       r="1.3037909"
       gradientUnits="userSpaceOnUse" />
    <radialGradient
       inkscape:collect="always"
       xlink:href="#linearGradient5931"
       id="radialGradient5941"
       cx="311.12341"
       cy="173.70148"
       fx="311.12341"
       fy="173.70148"
       r="1.3037909"
       gradientUnits="userSpaceOnUse" />
    <radialGradient
       inkscape:collect="always"
       xlink:href="#linearGradient5931"
       id="radialGradient5943"
       cx="333.43665"
       cy="173.70148"
       fx="333.43665"
       fy="173.70148"
       r="1.3037909"
       gradientUnits="userSpaceOnUse" />
    <radialGradient
       inkscape:collect="always"
       xlink:href="#linearGradient5931"
       id="radialGradient5945"
       cx="356.14798"
       cy="173.70148"
       fx="356.14798"
       fy="173.70148"
       r="1.3037909"
       gradientUnits="userSpaceOnUse" />
    <radialGradient
       inkscape:collect="always"
       xlink:href="#linearGradient5931"
       id="radialGradient5947"
       cx="378.80362"
       cy="173.70148"
       fx="378.80362"
       fy="173.70148"
       r="1.3037909"
       gradientUnits="userSpaceOnUse" />
    <radialGradient
       inkscape:collect="always"
       xlink:href="#linearGradient5931"
       id="radialGradient5949"
       cx="402.37955"
       cy="173.70148"
       fx="402.37955"
       fy="173.70148"
       r="1.3037909"
       gradientUnits="userSpaceOnUse" />
    <radialGradient
       inkscape:collect="always"
       xlink:href="#linearGradient5931"
       id="radialGradient5951"
       cx="425.09088"
       cy="173.70148"
       fx="425.09088"
       fy="173.70148"
       r="1.3037909"
       gradientUnits="userSpaceOnUse" />
    <radialGradient
       inkscape:collect="always"
       xlink:href="#linearGradient5931"
       id="radialGradient5953"
       cx="447.74652"
       cy="173.70148"
       fx="447.74652"
       fy="173.70148"
       r="1.3037909"
       gradientUnits="userSpaceOnUse" />
  </defs>
  <sodipodi:namedview
     id="base"
     pagecolor="#ffffff"
     bordercolor="#666666"
     borderopacity="1.0"
     inkscape:pageopacity="0.0"
     inkscape:pageshadow="2"
     inkscape:zoom="1.979899"
     inkscape:cx="349.06978"
     inkscape:cy="114.73512"
     inkscape:document-units="px"
     inkscape:current-layer="g5854"
     showgrid="false"
     inkscape:window-width="1600"
     inkscape:window-height="837"
     inkscape:window-x="0"
     inkscape:window-y="27"
     inkscape:window-maximized="1"
     showguides="false"
     fit-margin-top="0"
     fit-margin-left="0"
     fit-margin-right="0"
     fit-margin-bottom="0" />
  <metadata
     id="metadata7">
    <rdf:RDF>
      <cc:Work
         rdf:about="">
        <dc:format>image/svg+xml</dc:format>
        <dc:type
           rdf:resource="http://purl.org/dc/dcmitype/StillImage" />
        <dc:title></dc:title>
      </cc:Work>
    </rdf:RDF>
  </metadata>
  <g
     inkscape:label="Layer 1"
     inkscape:groupmode="layer"
     id="layer1"
     transform="translate(-26.202859,-29.304541)">
    <g
       id="g5854">
      <path
         inkscape:connector-curvature="0"
         id="path3338"
         d="m 87.142857,131.50506 111.965773,0"
         style="fill:none;fill-rule:evenodd;stroke:#000000;stroke-width:1.29134631px;stroke-linecap:butt;stroke-linejoin:miter;stroke-opacity:1;marker-end:url(#marker4468)" />
      <path
         style="fill:none;fill-rule:evenodd;stroke:#000000;stroke-width:1px;stroke-linecap:butt;stroke-linejoin:miter;stroke-opacity:1;marker-end:url(#marker4540)"
         d="m 87.425616,130.71423 -33.57143,58.14741"
         id="path4538"
         inkscape:connector-curvature="0" />
      <path
         style="fill:none;fill-rule:evenodd;stroke:#000000;stroke-width:1.19664562px;stroke-linecap:butt;stroke-linejoin:miter;stroke-opacity:1;marker-end:url(#marker5260)"
         d="m 86.378983,132.16975 0,-96.14591"
         id="path5258"
         inkscape:connector-curvature="0" />
      <text
         sodipodi:linespacing="125%"
         id="text5840"
         y="47.362206"
         x="57.500004"
         style="font-style:normal;font-weight:normal;font-size:40px;line-height:125%;font-family:sans-serif;letter-spacing:0px;word-spacing:0px;fill:#000000;fill-opacity:1;stroke:none;stroke-width:1px;stroke-linecap:butt;stroke-linejoin:miter;stroke-opacity:1"
         xml:space="preserve"><tspan
           style="font-style:normal;font-variant:normal;font-weight:normal;font-stretch:normal;font-family:'Latin Modern Math';-inkscape-font-specification:'Latin Modern Math'"
           y="47.362206"
           x="57.500004"
           id="tspan5842"
           sodipodi:role="line">y</tspan></text>
      <text
         xml:space="preserve"
         style="font-style:normal;font-weight:normal;font-size:40px;line-height:125%;font-family:sans-serif;letter-spacing:0px;word-spacing:0px;fill:#000000;fill-opacity:1;stroke:none;stroke-width:1px;stroke-linecap:butt;stroke-linejoin:miter;stroke-opacity:1"
         x="32.5"
         y="193.07649"
         id="text5846"
         sodipodi:linespacing="125%"><tspan
           sodipodi:role="line"
           id="tspan5848"
           x="32.5"
           y="193.07649"
           style="font-style:normal;font-variant:normal;font-weight:normal;font-stretch:normal;font-family:'Latin Modern Math';-inkscape-font-specification:'Latin Modern Math'">z</tspan></text>
      <text
         sodipodi:linespacing="125%"
         id="text5850"
         y="153.43364"
         x="137.85713"
         style="font-style:normal;font-weight:normal;font-size:40px;line-height:125%;font-family:sans-serif;letter-spacing:0px;word-spacing:0px;fill:#000000;fill-opacity:1;stroke:none;stroke-width:1px;stroke-linecap:butt;stroke-linejoin:miter;stroke-opacity:1"
         xml:space="preserve"><tspan
           style="font-style:normal;font-variant:normal;font-weight:normal;font-stretch:normal;font-family:'Latin Modern Math';-inkscape-font-specification:'Latin Modern Math'"
           y="153.43364"
           x="137.85713"
           id="tspan5852"
           sodipodi:role="line">x</tspan></text>
      <text
         sodipodi:linespacing="125%"
         id="text5865"
         y="85.933632"
         x="110.35715"
         style="font-style:normal;font-weight:normal;font-size:40px;line-height:125%;font-family:sans-serif;letter-spacing:0px;word-spacing:0px;fill:#000000;fill-opacity:1;stroke:none;stroke-width:1px;stroke-linecap:butt;stroke-linejoin:miter;stroke-opacity:1"
         xml:space="preserve"><tspan
           style="font-style:normal;font-variant:normal;font-weight:normal;font-stretch:normal;font-family:'Latin Modern Math';-inkscape-font-specification:'Latin Modern Math'"
           y="85.933632"
           x="110.35715"
           id="tspan5867"
           sodipodi:role="line"
           dy="0">∇<tspan
   style="font-size:64.99999762%;baseline-shift:sub"
   id="tspan3432">x</tspan>|<tspan
   style="font-style:normal;font-variant:normal;font-weight:bold;font-stretch:normal;font-family:'Latin Modern Roman';-inkscape-font-specification:'Latin Modern Roman,  Bold'"
   id="tspan3504">B</tspan>|</tspan></text>
      <path
         style="fill:none;fill-rule:evenodd;stroke:#000000;stroke-width:1;stroke-linecap:butt;stroke-linejoin:miter;stroke-miterlimit:4;stroke-dasharray:8, 8;stroke-dashoffset:0;stroke-opacity:1"
         d="m 85.714286,30.219348 c 0,0 7.574018,76.819372 57.857144,87.857142 l 58.57142,12.85715"
         id="path3452"
         inkscape:connector-curvature="0"
         sodipodi:nodetypes="csc" />
      <g
         style="font-style:normal;font-weight:normal;font-size:40px;line-height:125%;font-family:sans-serif;letter-spacing:0px;word-spacing:0px;fill:#000000;fill-opacity:1;stroke:none;stroke-width:1px;stroke-linecap:butt;stroke-linejoin:miter;stroke-opacity:1"
         id="text4290"
         transform="translate(116.42857,-30)">
        <path
           id="path4351"
           style="font-style:normal;font-variant:normal;font-weight:normal;font-stretch:normal;font-family:'Latin Modern Roman';-inkscape-font-specification:'Latin Modern Roman, ';fill:#000000;fill-opacity:0"
           d="m 54.968576,242.18507 c 0,-3.48 -3.28,-6.48 -7.72,-6.96 3.88,-0.76 6.64,-3.32 6.64,-6.28 0,-3.48 -3.68,-6.76 -8.88,-6.76 l -14.64,0 0,1.24 0.96,0 c 3.08,0 3.16,0.44 3.16,1.88 l 0,21.08 c 0,1.44 -0.08,1.88 -3.16,1.88 l -0.96,0 0,1.24 15.68,0 c 5.32,0 8.92,-3.56 8.92,-7.32 z m -4.96,-13.24 c 0,2.56 -1.96,5.92 -6.4,5.92 l -5.8,0 0,-9.84 c 0,-1.32 0.08,-1.6 1.96,-1.6 l 4.96,0 c 3.88,0 5.28,3.4 5.28,5.52 z m 0.96,13.2 c 0,2.84 -2.08,6.12 -6.2,6.12 l -5,0 c -1.88,0 -1.96,-0.28 -1.96,-1.6 l 0,-10.92 7.52,0 c 3.96,0 5.64,3.72 5.64,6.4 z"
           inkscape:connector-curvature="0" />
      </g>
      <text
         xml:space="preserve"
         style="font-style:normal;font-weight:normal;font-size:40px;line-height:125%;font-family:sans-serif;letter-spacing:0px;word-spacing:0px;fill:#000000;fill-opacity:1;stroke:none;stroke-width:1px;stroke-linecap:butt;stroke-linejoin:miter;stroke-opacity:1"
         x="24.642859"
         y="227.36221"
         id="text3492"
         sodipodi:linespacing="125%"><tspan
           sodipodi:role="line"
           id="tspan3494"
           x="24.642859"
           y="227.36221"
           style="font-style:normal;font-variant:normal;font-weight:normal;font-stretch:normal;font-family:'Latin Modern Math';-inkscape-font-specification:'Latin Modern Math'"><tspan
             style="font-style:normal;font-variant:normal;font-weight:bold;font-stretch:normal;font-family:'Latin Modern Roman';-inkscape-font-specification:'Latin Modern Roman,  Bold'"
             id="tspan3502">B</tspan></tspan></text>
      <g
         id="g5976">
        <path
           inkscape:connector-curvature="0"
           d="m 401.64492,29.312952 c 5.97183,4.275417 11.81504,8.722899 17.66058,13.168657 8.55573,6.562866 16.71491,13.675062 23.81598,21.813978 1.48334,1.70013 2.87192,3.480652 4.30789,5.220978 4.52272,5.83584 8.02683,12.372652 10.39864,19.361268 0.92561,2.727325 1.18087,4.06261 1.81938,6.764899 0.79635,4.029601 0.60226,7.145648 -1.22566,10.792168 -1.8668,3.01976 -4.86517,5.01361 -7.81799,6.85676 -6.3923,4.22504 -12.69853,7.55161 -20.06574,9.23359 -1.6315,0.26707 -3.27388,0.69198 -4.93966,0.43005 -0.50269,-0.079 -0.98261,-0.26506 -1.47392,-0.3976 0,0 8.60792,-5.97112 8.60792,-5.97112 l 0,0 c 2.16042,0.36662 3.94926,0.15585 6.08106,-0.37771 1.87345,-0.47486 3.69687,-1.0068 5.50204,-1.70504 3.37384,-1.30501 10.66613,-5.35322 -3.40957,2.53145 2.92937,-1.70324 5.87308,-3.59177 7.9569,-6.31695 1.96137,-3.29768 2.42095,-6.43128 1.79968,-10.25498 -0.54461,-2.805268 -0.68889,-3.899704 -1.55997,-6.752505 -2.12784,-6.968722 -5.47923,-13.465 -9.90774,-19.255272 -1.42577,-1.725422 -2.8023,-3.492738 -4.27729,-5.176268 -7.09221,-8.094896 -15.28026,-15.134708 -23.89172,-21.557948 -5.98821,-4.383619 -11.96471,-8.797731 -18.27558,-12.71318 0,0 8.89477,-5.695225 8.89477,-5.695225 z"
           id="path3517"
           style="fill:#000000;fill-opacity:0;stroke-width:1;stroke-miterlimit:4;stroke-dasharray:8, 8;stroke-dashoffset:0" />
        <g
           transform="matrix(1.1598821,0,0,1.16091,-72.344546,-4.5616951)"
           style="fill:#00008e;fill-opacity:1;stroke:#00008d;stroke-opacity:1"
           id="g4419">
          <path
             style="fill:#00008e;fill-opacity:1;stroke:#00008d;stroke-width:1;stroke-miterlimit:4;stroke-dasharray:none;stroke-dashoffset:0;stroke-opacity:1"
             id="path4371"
             d="m 282.46592,64.245256 c 2.00933,-0.643799 4.11049,-0.856618 6.20199,-1.034351 2.09431,-0.180138 4.1794,-0.191497 6.2636,0.07011 1.74081,0.195428 3.46775,0.407829 5.15008,0.909266 1.98151,0.621931 3.92859,1.382288 5.81868,2.243685 2.22547,1.112529 4.32011,2.396003 6.22063,4.000576 1.66831,1.511552 3.32158,3.047859 4.65588,4.867474 1.12728,1.524541 1.94419,3.247164 2.82115,4.921858 0.73796,1.416183 0.99806,2.967045 1.11371,4.539813 0.12452,1.8481 0.0964,3.677022 -0.31776,5.48564 -0.40481,1.590214 -1.10499,3.085105 -1.82976,4.550656 -0.89428,1.701804 -1.95031,3.318584 -3.04013,4.901091 -1.12317,1.535806 -2.34163,3.011866 -3.83659,4.196986 -2.88589,2.48556 -6.08938,3.48918 -9.43128,4.84799 -2.05474,0.78966 -4.22534,1.27014 -6.37508,1.73593 -1.92771,0.5239 -3.75715,0.33173 -5.66656,-0.11348 -2.04139,-0.34579 -3.8265,-1.2849 -5.50208,-2.45695 -1.30023,-1.04608 -2.47179,-2.18693 -3.28217,-3.65424 -0.61946,-1.52212 -0.70679,-3.17292 -0.76916,-4.794751 -0.12194,-1.50763 0.0402,-2.98006 0.29371,-4.462114 0.34571,-1.524888 0.7863,-2.997317 1.54247,-4.368957 0.92284,-1.652982 1.96128,-3.234611 3.09886,-4.74665 1.44964,-1.625786 3.05644,-3.117959 4.71734,-4.526141 2.72743,-2.200233 5.87411,-3.806385 8.93457,-5.484673 1.49996,-0.853786 3.14707,-1.385371 4.66421,-2.197135 -0.43642,0.319185 1.91824,-1.025066 1.44605,-0.755323 -1.16188,0.663728 -4.65254,2.646099 -3.48963,1.984187 1.66897,-0.949949 3.33503,-1.905038 5.00778,-2.848299 0.27328,-0.1541 1.10076,-0.602269 0.83008,-0.443647 -1.11634,0.654199 -2.24503,1.287103 -3.36754,1.930654 1.6733,-0.957029 3.34161,-1.922838 5.01991,-2.871087 1.1387,-0.643375 -2.26704,1.30493 -3.40111,1.95645 -0.29018,0.16671 0.57835,-0.336952 0.86947,-0.502023 2.24512,-1.273031 4.46846,-2.627191 6.79685,-3.755405 1.573,-0.63798 3.12305,-1.326066 4.68381,-1.993685 1.6212,-0.566266 3.27507,-1.092343 4.95616,-1.453404 1.64927,-0.315598 3.26345,-0.753049 4.93178,-0.974911 1.60069,-0.426668 3.24357,-0.645934 4.89095,-0.785882 1.90289,0.01068 3.76963,-0.356648 5.65472,-0.560247 2.09015,-0.194702 4.18929,-0.223648 6.28668,-0.247078 1.9772,-0.13161 3.92339,0.237427 5.88203,0.440955 1.75381,0.382612 3.55328,0.537995 5.23083,1.196448 1.48448,0.777394 2.99603,1.459126 4.38342,2.405782 1.55368,0.868718 2.86895,2.069821 4.28233,3.133342 1.50429,1.064161 2.87748,2.269026 4.1051,3.64003 1.19571,1.355145 1.86361,2.900105 2.25822,4.641602 0.3083,1.721094 0.31166,3.478341 0.32725,5.221435 0.0636,1.550345 0.005,3.068811 -0.38969,4.572546 -0.4757,1.686406 -1.17641,3.282102 -1.95354,4.846812 -0.89011,1.890656 -2.26217,3.496261 -3.47253,5.186038 -1.37568,1.908162 -3.15077,3.436411 -5.01856,4.839331 -2.32837,1.40696 -4.72679,3.54695 -7.50959,3.90868 -0.54375,0.0707 -1.30257,0.0108 -1.84099,-0.0138 -2.1465,-0.0715 -4.14909,-0.91111 -6.23242,-1.35412 -2.12031,-0.38505 -3.85616,-1.55714 -5.58106,-2.76653 -1.69306,-1.19835 -2.82517,-2.91902 -3.89559,-4.658468 -0.90353,-1.497752 -1.18614,-3.16732 -1.32007,-4.879417 -0.15017,-1.942201 -0.0642,-3.874335 0.32707,-5.781549 0.58648,-2.125339 1.77413,-3.915904 3.31719,-5.457098 1.79438,-1.723717 3.85446,-3.087526 5.98879,-4.343796 2.98011,-1.870882 6.02549,-3.526571 9.29313,-4.790564 1.63969,-0.784257 3.35993,-1.372425 5.07423,-1.968697 1.72543,-0.666636 3.39094,-1.471441 5.11759,-2.135045 1.60064,-0.470662 3.18284,-1.005724 4.82256,-1.328496 1.87774,-0.522215 3.73923,-1.104726 5.61432,-1.639906 1.79927,-0.402283 3.55439,-0.942362 5.38242,-1.202163 1.90294,-0.357767 3.77652,-0.840628 5.66895,-1.245235 2.01576,-0.293244 4.03821,-0.529741 6.05829,-0.808314 2.04795,-0.321156 4.12827,-0.230171 6.18169,-0.469028 1.91744,-0.30037 3.84968,-0.46519 5.78671,-0.565144 1.68194,-0.121992 3.3385,-0.08337 5.00431,0.159992 1.77353,0.436214 3.5026,0.888436 5.12806,1.735317 1.78669,0.874342 3.45037,1.965142 5.03255,3.164967 1.52872,1.235855 2.92514,2.643234 4.11464,4.209179 1.21074,1.528214 2.09607,3.236969 2.95393,4.973047 0.73418,1.632862 1.38185,3.282647 1.75443,5.036136 0.26693,1.460786 0.28933,2.94883 0.30521,4.429015 0.0915,1.548547 -0.0915,3.032893 -0.68391,4.465334 -0.81365,2.020201 -1.99898,3.801714 -3.29548,5.535863 -1.37404,2.066084 -3.24305,3.63285 -5.15588,5.16931 -2.82781,2.32663 -5.8113,4.75347 -9.42979,5.69571 -2.18466,0.43589 -4.42846,0.40106 -6.64655,0.41756 -1.96197,0.11392 -3.84217,-0.4534 -5.72556,-0.90556 -1.84694,-0.49859 -3.22417,-1.87535 -4.58236,-3.14972 -1.35215,-1.57401 -2.33123,-3.407705 -3.20734,-5.275784 -0.77275,-1.632796 -1.13746,-3.383659 -1.30108,-5.169864 -0.048,-1.751111 0.46621,-3.431535 0.96786,-5.088792 0.61452,-1.89187 1.69237,-3.511082 2.97114,-5.009607 1.40622,-1.542483 2.85481,-3.048232 4.50583,-4.329317 2.93389,-1.979966 5.93335,-4.00242 9.27104,-5.222776 2.23655,-0.862038 4.37509,-1.94526 6.61682,-2.793393 1.84164,-0.623742 3.68008,-1.248003 5.56819,-1.718148 1.95157,-0.368501 3.91158,-0.700612 5.87658,-0.995096 1.93874,-0.19172 3.839,-0.600608 5.773,-0.834828 1.89194,-0.103365 3.74787,-0.480409 5.62258,-0.730702 1.72507,-0.218964 3.42176,-0.597777 5.15139,-0.799629 1.49651,-0.155245 3.00204,-0.17343 4.50507,-0.185198 1.92957,-0.05764 3.844,-0.377265 5.77191,-0.52165 1.30014,-0.09226 2.60288,-0.133104 3.90561,-0.164952 0,0 -3.96738,2.897662 -3.96738,2.897662 l 0,0 c -1.29254,0.03308 -2.58523,0.07471 -3.87461,0.175757 -1.94087,0.166644 -3.8713,0.490931 -5.8205,0.514472 -1.49009,0.01788 -2.9828,0.04763 -4.46427,0.224022 -1.72215,0.223303 -3.4176,0.600962 -5.14247,0.801111 -1.8696,0.261384 -3.72904,0.591292 -5.61496,0.718976 -1.92588,0.254509 -3.82887,0.649366 -5.76316,0.843716 -1.95574,0.308151 -3.91603,0.615306 -5.84988,1.038099 -1.86342,0.509101 -3.69876,1.103807 -5.51915,1.750073 -2.23367,0.879395 -4.38302,1.95405 -6.62885,2.804902 -1.65091,0.684281 -4.95608,2.640878 1.62629,-1.183271 0.27219,-0.158139 -0.53839,0.326413 -0.80873,0.487714 -1.20315,0.717877 -0.49698,0.257221 -1.68407,1.084718 -1.6914,1.213448 -3.12077,2.716718 -4.54173,4.23169 -1.2863,1.44159 -2.40218,2.970173 -3.04381,4.816868 -0.50032,1.601424 -1.02035,3.225787 -1.04958,4.917276 0.14768,1.731917 0.45802,3.438313 1.20752,5.023886 0.85664,1.807719 1.77324,3.607062 3.10443,5.120158 1.3181,1.218257 2.66664,2.498547 4.46071,2.929997 1.85189,0.45768 3.70981,0.9339 5.63818,0.81925 2.19718,-0.0179 4.42742,-4.3e-4 6.57351,-0.53395 2.16506,-0.71948 1.25091,-0.49218 -2.41671,1.71521 -0.27115,0.16319 0.548,-0.31784 0.8096,-0.49594 0.92974,-0.63296 1.73412,-1.42094 2.6257,-2.10287 1.90621,-1.51909 3.8357,-3.003435 5.20884,-5.058252 1.28525,-1.704151 2.51008,-3.409472 3.29305,-5.416139 0.6622,-1.352669 0.87208,-2.768222 0.77254,-4.272 -0.01,-1.451963 -0.019,-2.911345 -0.25466,-4.348151 -0.33826,-1.721751 -0.96112,-3.336403 -1.68216,-4.933485 -0.83364,-1.714924 -1.70973,-3.38976 -2.90921,-4.889254 -1.16023,-1.531466 -2.53117,-2.902183 -4.03128,-4.101189 -1.5716,-1.174109 -3.22903,-2.223794 -4.99381,-3.086555 -1.59959,-0.782949 -3.30847,-1.215022 -5.04351,-1.595979 -1.64558,-0.211873 -3.29152,-0.18241 -4.94673,-0.08599 -1.9286,0.109226 -3.8476,0.306396 -5.76068,0.575371 -2.05453,0.183642 -4.12699,0.157265 -6.16992,0.481574 -2.01602,0.278898 -4.04258,0.48784 -6.0452,0.845995 -1.89165,0.420663 -3.77378,0.882912 -5.68331,1.220062 -1.80358,0.311754 -3.56122,0.827765 -5.34144,1.247764 -1.88353,0.548833 -3.75572,1.144066 -5.65669,1.62701 -1.61191,0.362021 -3.19225,0.864204 -4.75891,1.383696 -1.71357,0.692685 -3.3872,1.481107 -5.12388,2.117105 -1.71352,0.611744 -3.42244,1.233534 -5.07667,1.994874 -1.76845,0.719587 -8.01218,3.837875 -0.86696,-0.0025 -2.13233,1.242254 -4.22637,2.531435 -6.03095,4.237801 -1.57313,1.440527 -2.7604,3.13188 -3.4143,5.185 -0.44658,1.858239 -0.52273,3.743578 -0.38126,5.648115 0.11303,1.635587 0.34649,3.241128 1.19776,4.679944 1.02912,1.688455 2.13275,3.343062 3.78143,4.490534 1.69272,1.166029 3.40252,2.257689 5.47382,2.608019 2.05562,0.46617 4.05513,1.27092 6.18921,1.26877 0.92133,1.4e-4 1.7174,-0.03 2.59319,-0.34986 0.26164,-0.0956 1.00112,-0.48321 0.76611,-0.33369 -0.8238,0.52409 -5.2271,3.1138 -2.53362,1.46995 1.86932,-1.36899 3.67878,-2.8226 5.07655,-4.695237 1.17868,-1.690183 2.57743,-3.25442 3.48729,-5.109711 0.76657,-1.545095 1.51516,-3.089219 1.97817,-4.760518 0.45912,-1.453298 0.51652,-2.932087 0.45846,-4.449213 -0.005,-1.712476 0.002,-3.436716 -0.27693,-5.131367 -0.35255,-1.668889 -0.98379,-3.13049 -2.12915,-4.423075 -1.2132,-1.34478 -2.57872,-2.511982 -4.0562,-3.561823 -1.39478,-1.074961 -2.73461,-2.225772 -4.26945,-3.106031 -1.37106,-0.899926 -2.85547,-1.580705 -4.32305,-2.307092 -1.66109,-0.577308 -3.42429,-0.771122 -5.14526,-1.107036 -1.94353,-0.211068 -3.88119,-0.520457 -5.84339,-0.397539 -2.09096,0.0276 -4.1849,0.07277 -6.26608,0.293626 -1.88835,0.227033 -3.76851,0.519223 -5.67393,0.561025 -1.64445,0.162478 -3.26705,0.442418 -4.87875,0.80778 -1.65084,0.252979 -3.26004,0.685963 -4.89856,1.002994 -1.65807,0.414893 -3.31469,0.884844 -4.90188,1.521004 -1.55568,0.667334 -3.11049,1.336142 -4.66271,2.011384 -0.5722,0.289369 -2.25411,1.221465 -1.70615,0.888473 1.09714,-0.666719 2.2145,-1.299585 3.31908,-1.953903 0.28583,-0.169316 -0.57502,0.332894 -0.8628,0.498878 -1.66736,0.961705 -3.32556,1.939489 -5.00262,2.884189 -1.13605,0.639942 2.25298,-1.313235 3.37947,-1.969853 -1.67838,0.968346 -3.35211,1.944793 -5.03513,2.905036 -0.2737,0.156157 -1.10396,0.607475 -0.83462,0.443924 1.12592,-0.683683 4.5473,-2.661485 3.40535,-2.004924 -2.11932,1.218495 -4.17279,2.564123 -6.37943,3.624415 -1.54078,0.749704 -3.15333,1.346562 -4.64552,2.199919 -1.77291,0.965961 -1.95697,1.077886 2.515,-1.512242 0.27567,-0.159671 -0.54623,0.328173 -0.81522,0.498864 -0.77895,0.494279 -1.56151,0.993245 -2.26889,1.587817 -1.69101,1.352623 -3.24475,2.881375 -4.76251,4.423209 -1.1504,1.482413 -2.19124,3.041401 -3.1051,4.681409 -0.80129,1.312296 -1.23621,2.719609 -1.60796,4.206523 -0.25171,1.455095 -0.4777,2.888983 -0.34279,4.374136 0.0455,1.547325 0.0963,3.128699 0.66441,4.589399 0.76254,1.40058 1.90241,2.48109 3.13842,3.47399 1.65157,1.12282 3.41061,1.96778 5.40038,2.29903 1.86882,0.40239 3.67391,0.44025 5.53899,-0.0593 2.13347,-0.48091 4.28773,-0.95765 6.31588,-1.79032 1.00006,-0.39095 2.03843,-0.72043 3.01305,-1.17295 0.27039,-0.12554 1.04823,-0.56763 0.79296,-0.41364 -4.89954,2.9557 -4.37311,2.62583 -2.78552,1.57356 1.56036,-1.08148 2.76103,-2.5519 3.90523,-4.0544 1.1038,-1.55156 2.14652,-3.159117 3.05522,-4.832043 0.74406,-1.4276 1.43197,-2.904012 1.88051,-4.452728 0.4798,-1.751909 0.51449,-3.537282 0.38272,-5.343783 -0.10448,-1.507432 -0.31155,-3.002486 -1.0125,-4.366037 -0.85734,-1.65595 -1.65804,-3.359609 -2.76768,-4.864651 -1.32101,-1.779065 -2.93401,-3.299586 -4.57732,-4.779777 -1.87829,-1.567104 -3.96054,-2.804742 -6.15677,-3.881226 -1.88705,-0.833908 -3.82114,-1.582306 -5.7996,-2.169789 -1.67307,-0.445133 -3.38403,-0.641895 -5.09988,-0.850695 -2.06126,-0.232946 -4.12663,-0.169839 -6.19252,0.0038 -2.0911,0.193555 -4.18679,0.452786 -6.17726,1.159581 0,0 3.90656,-3.034991 3.90656,-3.034991 z"
             inkscape:connector-curvature="0" />
          <path
             style="fill:#00008e;fill-opacity:1;stroke:#00008d;stroke-width:1;stroke-miterlimit:4;stroke-dasharray:none;stroke-dashoffset:0;stroke-opacity:1"
             id="path4373"
             d="m 446.82401,53.883576 c 2.25408,0.322067 4.48867,0.784884 6.64477,1.522567 1.91053,0.672141 3.7733,1.468966 5.63936,2.255597 1.62715,0.818931 3.37457,1.317574 4.87176,2.373798 1.03856,1.068798 2.54803,1.538168 3.26449,2.880068 0.31679,1.63041 -0.91349,2.761385 -1.9957,3.779501 -1.47197,1.291421 -3.13019,2.330276 -4.80954,3.324416 -3.1589,1.981626 -6.48317,3.642206 -9.83262,5.261053 0,0 3.81761,-3.047588 3.81761,-3.047588 l 0,0 c 1.74371,-0.858465 9.34044,-4.799772 1.43344,-0.448619 1.66947,-0.991822 3.34972,-1.969581 4.84089,-3.226558 0.95639,-0.86082 2.22912,-1.783448 2.25163,-3.19034 -0.61463,-1.254844 -2.21103,-1.65451 -3.11847,-2.68442 -1.48602,-0.995122 -3.21308,-1.489958 -4.79823,-2.303853 -1.85166,-0.79181 -3.71967,-1.545863 -5.61515,-2.225732 -2.16022,-0.708145 -4.38595,-1.171751 -6.64555,-1.427465 0,0 4.05131,-2.842425 4.05131,-2.842425 z"
             inkscape:connector-curvature="0" />
          <path
             style="fill:#00008e;fill-opacity:1;stroke:#00008d;stroke-width:1;stroke-miterlimit:4;stroke-dasharray:none;stroke-dashoffset:0;stroke-opacity:1"
             id="path4379"
             d="m 364.92513,33.251965 c -0.60146,1.767251 -0.88576,3.615724 -1.32507,5.425607 -0.34078,1.800305 -0.64935,3.606149 -0.96678,5.411624 -0.27825,1.603308 -0.37103,3.228201 -0.41998,4.852001 -0.004,0.244757 -0.009,0.489515 -0.0133,0.734272 0,0 -4.39439,2.22956 -4.39439,2.22956 l 0,0 c 0.004,-0.246666 0.008,-0.493331 0.012,-0.739997 0.0452,-1.646759 0.13202,-3.294892 0.40423,-4.922344 0.30853,-1.816637 0.65223,-3.623542 0.94998,-5.441608 0.45066,-1.811296 0.76349,-3.649984 1.27562,-5.446202 0,0 4.47774,-2.102913 4.47774,-2.102913 z"
             inkscape:connector-curvature="0" />
          <path
             style="fill:#00008e;fill-opacity:1;stroke:#00008d;stroke-width:1;stroke-miterlimit:4;stroke-dasharray:none;stroke-dashoffset:0;stroke-opacity:1"
             id="path4385"
             d="m 353.98334,40.684773 c 1.966,-0.527951 3.97503,-0.850122 5.99787,-1.053783 1.83903,-0.139997 3.68406,-0.145676 5.52722,-0.150684 1.84149,-0.01169 3.65992,0.355707 5.48855,0.543687 1.03671,0.08329 0.52228,0.04752 1.54325,0.107847 0,0 -4.00335,2.868793 -4.00335,2.868793 l 0,0 c -1.02621,-0.07373 -0.50929,-0.03114 -1.55069,-0.128329 -1.81173,-0.206786 -3.61895,-0.559322 -5.44908,-0.504316 -1.83309,0.0092 -3.66944,0.0206 -5.49623,0.189735 -2.01696,0.223643 -4.02201,0.561958 -5.9709,1.14015 0,0 3.91336,-3.0131 3.91336,-3.0131 z"
             inkscape:connector-curvature="0" />
        </g>
        <circle
           r="3.6381841"
           cy="101.46933"
           cx="276.38147"
           id="path4339"
           style="fill:url(#radialGradient5809);fill-opacity:1;stroke:#00008e;stroke-width:0.50934577;stroke-miterlimit:4;stroke-dasharray:none;stroke-dashoffset:0;stroke-opacity:1" />
        <circle
           style="fill:url(#radialGradient5813);fill-opacity:1;stroke:#00008e;stroke-width:0.50934577;stroke-miterlimit:4;stroke-dasharray:none;stroke-dashoffset:0;stroke-opacity:1"
           id="circle4341"
           cx="336.73862"
           cy="101.46933"
           r="3.6381841" />
        <circle
           r="3.6381841"
           cy="101.46933"
           cx="399.59576"
           id="circle4343"
           style="fill:url(#radialGradient5811);fill-opacity:1;stroke:#00008e;stroke-width:0.50934577;stroke-miterlimit:4;stroke-dasharray:none;stroke-dashoffset:0;stroke-opacity:1" />
      </g>
      <g
         id="g5960">
        <path
           style="fill:#ff0000;fill-opacity:1;stroke:#ff0000;stroke-width:0.39176998;stroke-miterlimit:4;stroke-dasharray:none;stroke-dashoffset:0;stroke-opacity:1"
           id="path4395"
           d="m 319.09612,182.59534 c -0.8669,0.22904 -1.77343,0.30475 -2.67578,0.36797 -0.90357,0.0641 -1.80317,0.0681 -2.70237,-0.025 -0.75105,-0.0695 -1.49612,-0.14508 -2.22195,-0.32347 -0.8549,-0.22124 -1.69494,-0.49174 -2.5104,-0.79818 -0.96016,-0.39578 -1.86387,-0.85238 -2.68383,-1.4232 -0.71977,-0.53773 -1.43306,-1.08427 -2.00873,-1.73159 -0.48635,-0.54235 -0.83881,-1.15518 -1.21716,-1.75094 -0.31838,-0.5038 -0.4306,-1.05552 -0.4805,-1.61504 -0.0537,-0.65745 -0.0415,-1.30808 0.1371,-1.95149 0.17465,-0.56572 0.47674,-1.09753 0.78943,-1.61889 0.38582,-0.60542 0.84144,-1.18057 1.31163,-1.74355 0.48458,-0.54636 1.01027,-1.07147 1.65526,-1.49307 1.24509,-0.88423 2.6272,-1.24127 4.06902,-1.72466 0.8865,-0.28093 1.82298,-0.45185 2.75047,-0.61757 0.83169,-0.18637 1.62098,-0.11801 2.44477,0.0403 0.88074,0.12302 1.65091,0.45711 2.37382,0.87406 0.56097,0.37214 1.06643,0.778 1.41606,1.29999 0.26726,0.54149 0.30493,1.12876 0.33184,1.70571 0.0526,0.53635 -0.0174,1.06016 -0.12672,1.5874 -0.14915,0.54247 -0.33923,1.06629 -0.66548,1.55425 -0.39815,0.58804 -0.84617,1.1507 -1.33697,1.68861 -0.62543,0.57837 -1.31867,1.10921 -2.03525,1.61017 -1.17671,0.78272 -2.53433,1.3541 -3.85471,1.95116 -0.64715,0.30373 -1.35778,0.49284 -2.01233,0.78162 0.18828,-0.11355 -0.82761,0.36467 -0.62389,0.26871 0.50128,-0.23613 2.00729,-0.94135 1.50556,-0.70588 -0.72005,0.33795 -1.43886,0.67772 -2.16055,1.01329 -0.1179,0.0548 -0.47491,0.21425 -0.35813,0.15782 0.48163,-0.23273 0.9686,-0.45788 1.45289,-0.68683 -0.72193,0.34046 -1.4417,0.68405 -2.16579,1.02138 -0.49127,0.22888 0.97809,-0.46422 1.46738,-0.696 0.1252,-0.0593 -0.24952,0.11987 -0.37513,0.1786 -0.96863,0.45288 -1.92787,0.93462 -2.93243,1.33597 -0.67864,0.22697 -1.34741,0.47174 -2.02077,0.70925 -0.69945,0.20145 -1.413,0.3886 -2.1383,0.51705 -0.71155,0.11227 -1.40797,0.26789 -2.12775,0.34682 -0.69061,0.15179 -1.39941,0.22979 -2.11016,0.27958 -0.82099,-0.003 -1.62636,0.12687 -2.43967,0.1993 -0.90176,0.0693 -1.80741,0.0796 -2.71232,0.0879 -0.85304,0.0468 -1.6927,-0.0845 -2.53774,-0.15685 -0.75666,-0.13612 -1.53303,-0.1914 -2.25679,-0.42564 -0.64046,-0.27657 -1.2926,-0.51909 -1.89117,-0.85585 -0.67032,-0.30905 -1.23779,-0.73634 -1.84757,-1.11469 -0.64901,-0.37857 -1.24146,-0.80719 -1.77111,-1.29492 -0.51587,-0.4821 -0.80403,-1.03172 -0.97428,-1.65125 -0.13301,-0.61227 -0.13447,-1.23741 -0.14119,-1.85751 -0.0275,-0.55153 -0.002,-1.09173 0.16813,-1.62668 0.20523,-0.59993 0.50755,-1.1676 0.84283,-1.72424 0.38403,-0.6726 0.97599,-1.24379 1.49819,-1.84492 0.59352,-0.67883 1.35937,-1.22249 2.16521,-1.72159 1.00455,-0.50052 2.03932,-1.26181 3.23993,-1.39049 0.23459,-0.0252 0.56198,-0.003 0.79427,0.005 0.92609,0.0255 1.79008,0.32413 2.68891,0.48174 0.91479,0.13697 1.66371,0.55394 2.4079,0.98418 0.73044,0.42631 1.21889,1.03843 1.68071,1.65723 0.38982,0.53283 0.51174,1.12678 0.56953,1.73585 0.0648,0.69094 0.0277,1.37828 -0.14111,2.05678 -0.25303,0.75608 -0.76543,1.39307 -1.43117,1.94135 -0.77417,0.61321 -1.66297,1.09837 -2.5838,1.54529 -1.28573,0.66557 -2.59963,1.25458 -4.00942,1.70424 -0.70743,0.27899 -1.44961,0.48823 -2.18922,0.70036 -0.74443,0.23715 -1.46299,0.52345 -2.20794,0.75953 -0.69058,0.16744 -1.37321,0.35779 -2.08064,0.47262 -0.81013,0.18578 -1.61325,0.39301 -2.42224,0.58339 -0.77628,0.14311 -1.5335,0.33524 -2.32219,0.42766 -0.821,0.12729 -1.62934,0.29905 -2.44581,0.443 -0.86968,0.10431 -1.74224,0.18845 -2.61379,0.28754 -0.88356,0.11426 -1.7811,0.0819 -2.66702,0.16687 -0.82726,0.10686 -1.6609,0.16549 -2.49662,0.20104 -0.72565,0.0434 -1.44036,0.0297 -2.15906,-0.0569 -0.76516,-0.15518 -1.51115,-0.31606 -2.21244,-0.61733 -0.77085,-0.31105 -1.48863,-0.6991 -2.17124,-1.12593 -0.65955,-0.43966 -1.26203,-0.94034 -1.77522,-1.49741 -0.52236,-0.54365 -0.90433,-1.15154 -1.27444,-1.76916 -0.31676,-0.58088 -0.59619,-1.16778 -0.75694,-1.79159 -0.11517,-0.51967 -0.12482,-1.04904 -0.13167,-1.57561 -0.0395,-0.55089 0.0395,-1.07895 0.29506,-1.58853 0.35104,-0.71868 0.86244,-1.35245 1.4218,-1.96937 0.59281,-0.735 1.39918,-1.29238 2.22446,-1.83898 1.22002,-0.82769 2.50722,-1.69104 4.06837,-2.02624 0.94256,-0.15506 1.91062,-0.14267 2.86759,-0.14853 0.84648,-0.0405 1.65767,0.1613 2.47023,0.32214 0.79685,0.17738 1.39104,0.66715 1.97702,1.12051 0.58337,0.55995 1.00578,1.21229 1.38377,1.87685 0.33339,0.58086 0.49075,1.20373 0.56133,1.83917 0.0207,0.62295 -0.20114,1.22075 -0.41757,1.81032 -0.26513,0.67303 -0.73015,1.24906 -1.28186,1.78216 -0.60671,0.54874 -1.23168,1.0844 -1.944,1.54015 -1.26579,0.70437 -2.55988,1.42385 -3.99989,1.85799 -0.96494,0.30667 -1.88759,0.69202 -2.85475,0.99374 -0.79456,0.2219 -1.58774,0.44398 -2.40235,0.61122 -0.84198,0.13109 -1.6876,0.24924 -2.53539,0.35401 -0.83645,0.0682 -1.65628,0.21366 -2.4907,0.29699 -0.81625,0.0368 -1.61697,0.1709 -2.4258,0.25995 -0.74426,0.0779 -1.47628,0.21265 -2.22252,0.28446 -0.64564,0.0552 -1.29519,0.0617 -1.94366,0.0659 -0.8325,0.0205 -1.65845,0.1342 -2.49023,0.18557 -0.56093,0.0328 -1.12299,0.0473 -1.68503,0.0587 0,0 1.71169,-1.03085 1.71169,-1.03085 l 0,0 c 0.55764,-0.0117 1.11536,-0.0266 1.67165,-0.0625 0.83737,-0.0593 1.67023,-0.17465 2.51119,-0.18302 0.64289,-0.006 1.28691,-0.0169 1.92607,-0.0797 0.743,-0.0794 1.47449,-0.21379 2.21867,-0.28499 0.80662,-0.093 1.60885,-0.21035 2.42251,-0.25577 0.8309,-0.0905 1.65193,-0.23101 2.48645,-0.30015 0.84379,-0.10963 1.68954,-0.2189 2.52387,-0.36931 0.80395,-0.18111 1.59579,-0.39267 2.38119,-0.62259 0.96369,-0.31284 1.891,-0.69514 2.85994,-0.99782 0.71227,-0.24344 2.13824,-0.93949 -0.70164,0.42093 -0.11744,0.0563 0.23228,-0.11611 0.34892,-0.17351 0.51908,-0.25537 0.21441,-0.0915 0.72657,-0.38587 0.72974,-0.43168 1.34643,-0.96647 1.95948,-1.50541 0.55496,-0.51286 1.03639,-1.05664 1.31322,-1.7136 0.21586,-0.5697 0.44022,-1.14757 0.45283,-1.74931 -0.0637,-0.61612 -0.1976,-1.22317 -0.52097,-1.78723 -0.36959,-0.64309 -0.76505,-1.28321 -1.33937,-1.82149 -0.56868,-0.4334 -1.1505,-0.88885 -1.92453,-1.04233 -0.79898,-0.16283 -1.60056,-0.33224 -2.43253,-0.29145 -0.94796,0.006 -1.91017,1.5e-4 -2.83608,0.18994 -0.93409,0.25595 -0.53969,0.17509 1.04266,-0.61018 0.11699,-0.0581 -0.23642,0.11307 -0.34929,0.17643 -0.40112,0.22518 -0.74816,0.50549 -1.13283,0.74809 -0.82241,0.54041 -1.65487,1.06847 -2.2473,1.79946 -0.5545,0.60625 -1.08295,1.21291 -1.42075,1.92679 -0.2857,0.48121 -0.37625,0.98478 -0.3333,1.51975 0.005,0.51653 0.008,1.03571 0.10987,1.54684 0.14593,0.61252 0.41467,1.18693 0.72574,1.75508 0.35968,0.61008 0.73766,1.2059 1.25515,1.73934 0.50057,0.54482 1.09205,1.03245 1.73926,1.45899 0.67805,0.41769 1.39313,0.79111 2.15452,1.09803 0.69013,0.27854 1.42742,0.43225 2.17597,0.56778 0.70997,0.0753 1.4201,0.0649 2.13422,0.0306 0.83208,-0.0389 1.66,-0.109 2.48539,-0.20468 0.8864,-0.0653 1.78055,-0.056 2.66194,-0.17132 0.86979,-0.0992 1.74413,-0.17355 2.60815,-0.30096 0.81613,-0.14965 1.62815,-0.31409 2.45199,-0.43403 0.77815,-0.11091 1.53646,-0.29448 2.30451,-0.4439 0.81263,-0.19524 1.62038,-0.40699 2.44053,-0.5788 0.69544,-0.12878 1.37726,-0.30744 2.05318,-0.49224 0.7393,-0.24643 1.46137,-0.5269 2.21064,-0.75316 0.73929,-0.21763 1.47658,-0.43883 2.19028,-0.70967 0.76298,-0.25599 3.45676,-1.36532 0.37404,5.3e-4 0.91997,-0.44193 1.82342,-0.90055 2.60199,-1.50759 0.67871,-0.51246 1.19094,-1.11416 1.47306,-1.84455 0.19268,-0.66107 0.22553,-1.33177 0.1645,-2.0093 -0.0487,-0.58186 -0.14949,-1.15303 -0.51677,-1.66489 -0.444,-0.60066 -0.92015,-1.18929 -1.63145,-1.59749 -0.73031,-0.41482 -1.46798,-0.80317 -2.36163,-0.92779 -0.88688,-0.16585 -1.74954,-0.45214 -2.67026,-0.45137 -0.39751,-6e-5 -0.74097,0.0106 -1.11881,0.12446 -0.11288,0.034 -0.43193,0.1719 -0.33053,0.11871 0.35542,-0.18645 2.25518,-1.10774 1.0931,-0.52293 -0.80649,0.48701 -1.58717,1.00414 -2.19022,1.67031 -0.50854,0.60128 -1.11201,1.15776 -1.50455,1.81778 -0.33073,0.54966 -0.65371,1.09898 -0.85347,1.69355 -0.19808,0.517 -0.22284,1.04308 -0.19779,1.58279 0.002,0.60921 -6.5e-4,1.2226 0.11947,1.82547 0.1521,0.5937 0.42444,1.11367 0.9186,1.57351 0.52343,0.4784 1.11256,0.89362 1.75001,1.2671 0.60176,0.38242 1.17981,0.79182 1.84201,1.10497 0.59152,0.32015 1.23196,0.56233 1.86513,0.82074 0.71666,0.20537 1.47737,0.27433 2.21987,0.39382 0.83851,0.075 1.6745,0.18516 2.52106,0.14143 0.90213,-0.01 1.80554,-0.0259 2.70345,-0.10446 0.8147,-0.0808 1.62588,-0.18471 2.44796,-0.19958 0.70947,-0.0578 1.40953,-0.15739 2.10488,-0.28737 0.71224,-0.09 1.40651,-0.24403 2.11343,-0.35681 0.71536,-0.14761 1.43009,-0.31478 2.11487,-0.54109 0.67118,-0.23741 1.34199,-0.47534 2.01168,-0.71555 0.24686,-0.10294 0.9725,-0.43453 0.7361,-0.31607 -0.47336,0.23718 -0.95543,0.46232 -1.43198,0.69509 -0.12333,0.0602 0.24807,-0.11842 0.37223,-0.17747 0.71937,-0.34212 1.43478,-0.68997 2.15833,-1.02605 0.49014,-0.22765 -0.97203,0.46719 -1.45803,0.70078 0.72412,-0.34449 1.44623,-0.69186 2.17235,-1.03346 0.11809,-0.0556 0.4763,-0.21612 0.3601,-0.15793 -0.48578,0.24322 -1.9619,0.94682 -1.46922,0.71325 0.91437,-0.43348 1.80032,-0.91218 2.75235,-1.28938 0.66475,-0.26671 1.36047,-0.47903 2.00426,-0.78261 0.7649,-0.34365 0.84431,-0.38346 -1.08507,0.53797 -0.11893,0.0568 0.23567,-0.11675 0.35172,-0.17747 0.33607,-0.17585 0.67369,-0.35335 0.97888,-0.56486 0.72957,-0.4812 1.39992,-1.02505 2.05475,-1.57355 0.49631,-0.52736 0.94538,-1.08197 1.33966,-1.66539 0.3457,-0.46686 0.53335,-0.9675 0.69373,-1.49647 0.1086,-0.51765 0.2061,-1.02775 0.14789,-1.5561 -0.0196,-0.55045 -0.0415,-1.11302 -0.28665,-1.63266 -0.32899,-0.49826 -0.82077,-0.88265 -1.35403,-1.23586 -0.71256,-0.39944 -1.47148,-0.70004 -2.32994,-0.81788 -0.80628,-0.14315 -1.58508,-0.15662 -2.38974,0.0211 -0.92047,0.17108 -1.84989,0.34069 -2.72493,0.6369 -0.43146,0.13908 -0.87945,0.25629 -1.29994,0.41728 -0.11666,0.0446 -0.45225,0.20193 -0.34211,0.14715 2.11385,-1.05148 1.88673,-0.93413 1.20177,-0.55979 -0.67319,0.38473 -1.19121,0.90783 -1.68486,1.44234 -0.47623,0.55197 -0.9261,1.12385 -1.31815,1.71899 -0.32102,0.50787 -0.6178,1.0331 -0.81132,1.58404 -0.207,0.62324 -0.22198,1.25838 -0.16513,1.90104 0.045,0.53627 0.13442,1.06814 0.43684,1.55321 0.36989,0.5891 0.71534,1.19518 1.19409,1.73059 0.56993,0.6329 1.26584,1.17383 1.97483,1.7004 0.81037,0.55749 1.70874,0.99778 2.65628,1.38074 0.81414,0.29666 1.64858,0.56289 2.50218,0.77189 0.72182,0.15837 1.46,0.22836 2.20028,0.30264 0.88931,0.0829 1.78039,0.0604 2.6717,-0.002 0.90218,-0.0688 1.80635,-0.16108 2.66512,-0.41252 0,0 -1.68545,1.07969 -1.68545,1.07969 z"
           inkscape:connector-curvature="0" />
        <path
           inkscape:connector-curvature="0"
           d="m 387.45327,182.59534 c -0.8669,0.22904 -1.77343,0.30475 -2.67578,0.36797 -0.90357,0.0641 -1.80317,0.0681 -2.70237,-0.025 -0.75105,-0.0695 -1.49612,-0.14508 -2.22195,-0.32347 -0.8549,-0.22124 -1.69494,-0.49174 -2.5104,-0.79818 -0.96016,-0.39578 -1.86387,-0.85238 -2.68383,-1.4232 -0.71977,-0.53773 -1.43306,-1.08427 -2.00873,-1.73159 -0.48635,-0.54235 -0.83881,-1.15518 -1.21716,-1.75094 -0.31838,-0.5038 -0.4306,-1.05552 -0.4805,-1.61504 -0.0537,-0.65745 -0.0415,-1.30808 0.1371,-1.95149 0.17465,-0.56572 0.47674,-1.09753 0.78943,-1.61889 0.38582,-0.60542 0.84144,-1.18057 1.31163,-1.74355 0.48458,-0.54636 1.01027,-1.07147 1.65526,-1.49307 1.24509,-0.88423 2.6272,-1.24127 4.06902,-1.72466 0.8865,-0.28093 1.82298,-0.45185 2.75047,-0.61757 0.83169,-0.18637 1.62098,-0.11801 2.44477,0.0403 0.88074,0.12302 1.65091,0.45711 2.37382,0.87406 0.56097,0.37214 1.06643,0.778 1.41606,1.29999 0.26726,0.54149 0.30493,1.12876 0.33184,1.70571 0.0526,0.53635 -0.0174,1.06016 -0.12672,1.5874 -0.14915,0.54247 -0.33923,1.06629 -0.66548,1.55425 -0.39815,0.58804 -0.84617,1.1507 -1.33697,1.68861 -0.62543,0.57837 -1.31867,1.10921 -2.03525,1.61017 -1.17671,0.78272 -2.53433,1.3541 -3.85471,1.95116 -0.64715,0.30373 -1.35778,0.49284 -2.01233,0.78162 0.18828,-0.11355 -0.82761,0.36467 -0.62389,0.26871 0.50128,-0.23613 2.00729,-0.94135 1.50556,-0.70588 -0.72005,0.33795 -1.43886,0.67772 -2.16055,1.01329 -0.1179,0.0548 -0.47491,0.21425 -0.35813,0.15782 0.48163,-0.23273 0.9686,-0.45788 1.45289,-0.68683 -0.72193,0.34046 -1.4417,0.68405 -2.16579,1.02138 -0.49127,0.22888 0.97809,-0.46422 1.46738,-0.696 0.1252,-0.0593 -0.24952,0.11987 -0.37513,0.1786 -0.96863,0.45288 -1.92787,0.93462 -2.93243,1.33597 -0.67864,0.22697 -1.34741,0.47174 -2.02077,0.70925 -0.69945,0.20145 -1.413,0.3886 -2.1383,0.51705 -0.71155,0.11227 -1.40797,0.26789 -2.12775,0.34682 -0.69061,0.15179 -1.39941,0.22979 -2.11016,0.27958 -0.82099,-0.003 -1.62636,0.12687 -2.43967,0.1993 -0.90176,0.0693 -1.80741,0.0796 -2.71232,0.0879 -0.85304,0.0468 -1.6927,-0.0845 -2.53774,-0.15685 -0.75666,-0.13612 -1.53303,-0.1914 -2.25679,-0.42564 -0.64046,-0.27657 -1.2926,-0.51909 -1.89117,-0.85585 -0.67032,-0.30905 -1.23779,-0.73634 -1.84757,-1.11469 -0.64901,-0.37857 -1.24146,-0.80719 -1.77111,-1.29492 -0.51587,-0.4821 -0.80403,-1.03172 -0.97428,-1.65125 -0.13301,-0.61227 -0.13447,-1.23741 -0.14119,-1.85751 -0.0275,-0.55153 -0.002,-1.09173 0.16813,-1.62668 0.20523,-0.59993 0.50755,-1.1676 0.84283,-1.72424 0.38403,-0.6726 0.97599,-1.24379 1.49819,-1.84492 0.59352,-0.67883 1.35937,-1.22249 2.16521,-1.72159 1.00455,-0.50052 2.03932,-1.26181 3.23993,-1.39049 0.23459,-0.0252 0.56198,-0.003 0.79427,0.005 0.92609,0.0255 1.79008,0.32413 2.68891,0.48174 0.91479,0.13697 1.66371,0.55394 2.4079,0.98418 0.73044,0.42631 1.21889,1.03843 1.68071,1.65723 0.38982,0.53283 0.51174,1.12678 0.56953,1.73585 0.0648,0.69094 0.0277,1.37828 -0.14111,2.05678 -0.25303,0.75608 -0.76543,1.39307 -1.43117,1.94135 -0.77417,0.61321 -1.66297,1.09837 -2.5838,1.54529 -1.28573,0.66557 -2.59963,1.25458 -4.00942,1.70424 -0.70743,0.27899 -1.44961,0.48823 -2.18922,0.70036 -0.74443,0.23715 -1.46299,0.52345 -2.20794,0.75953 -0.69058,0.16744 -1.37321,0.35779 -2.08064,0.47262 -0.81013,0.18578 -1.61325,0.39301 -2.42224,0.58339 -0.77628,0.14311 -1.5335,0.33524 -2.32219,0.42766 -0.821,0.12729 -1.62934,0.29905 -2.44581,0.443 -0.86968,0.10431 -1.74224,0.18845 -2.61379,0.28754 -0.88356,0.11426 -1.7811,0.0819 -2.66702,0.16687 -0.82726,0.10686 -1.6609,0.16549 -2.49662,0.20104 -0.72565,0.0434 -1.44036,0.0297 -2.15906,-0.0569 -0.76516,-0.15518 -1.51115,-0.31606 -2.21244,-0.61733 -0.77085,-0.31105 -1.48863,-0.6991 -2.17124,-1.12593 -0.65955,-0.43966 -1.26203,-0.94034 -1.77522,-1.49741 -0.52236,-0.54365 -0.90433,-1.15154 -1.27444,-1.76916 -0.31676,-0.58088 -0.59619,-1.16778 -0.75694,-1.79159 -0.11517,-0.51967 -0.12482,-1.04904 -0.13167,-1.57561 -0.0395,-0.55089 0.0395,-1.07895 0.29506,-1.58853 0.35104,-0.71868 0.86244,-1.35245 1.4218,-1.96937 0.59281,-0.735 1.39918,-1.29238 2.22446,-1.83898 1.22002,-0.82769 2.50722,-1.69104 4.06837,-2.02624 0.94256,-0.15506 1.91062,-0.14267 2.86759,-0.14853 0.84648,-0.0405 1.65767,0.1613 2.47023,0.32214 0.79685,0.17738 1.39104,0.66715 1.97702,1.12051 0.58337,0.55995 1.00578,1.21229 1.38377,1.87685 0.33339,0.58086 0.49075,1.20373 0.56133,1.83917 0.0207,0.62295 -0.20114,1.22075 -0.41757,1.81032 -0.26513,0.67303 -0.73015,1.24906 -1.28186,1.78216 -0.60671,0.54874 -1.23168,1.0844 -1.944,1.54015 -1.26579,0.70437 -2.55988,1.42385 -3.99989,1.85799 -0.96494,0.30667 -1.88759,0.69202 -2.85475,0.99374 -0.79456,0.2219 -1.58774,0.44398 -2.40235,0.61122 -0.84198,0.13109 -1.6876,0.24924 -2.53539,0.35401 -0.83645,0.0682 -1.65628,0.21366 -2.4907,0.29699 -0.81625,0.0368 -1.61697,0.1709 -2.4258,0.25995 -0.74426,0.0779 -1.47628,0.21265 -2.22252,0.28446 -0.64564,0.0552 -1.29519,0.0617 -1.94366,0.0659 -0.8325,0.0205 -1.65845,0.1342 -2.49023,0.18557 -0.56093,0.0328 -1.12299,0.0473 -1.68503,0.0587 0,0 1.71169,-1.03085 1.71169,-1.03085 l 0,0 c 0.55764,-0.0117 1.11536,-0.0266 1.67165,-0.0625 0.83737,-0.0593 1.67023,-0.17465 2.51119,-0.18302 0.64289,-0.006 1.28691,-0.0169 1.92607,-0.0797 0.743,-0.0794 1.47449,-0.21379 2.21867,-0.28499 0.80662,-0.093 1.60885,-0.21035 2.42251,-0.25577 0.8309,-0.0905 1.65193,-0.23101 2.48645,-0.30015 0.84379,-0.10963 1.68954,-0.2189 2.52387,-0.36931 0.80395,-0.18111 1.59579,-0.39267 2.38119,-0.62259 0.96369,-0.31284 1.891,-0.69514 2.85994,-0.99782 0.71227,-0.24344 2.13824,-0.93949 -0.70164,0.42093 -0.11744,0.0563 0.23228,-0.11611 0.34892,-0.17351 0.51908,-0.25537 0.21441,-0.0915 0.72657,-0.38587 0.72974,-0.43168 1.34643,-0.96647 1.95948,-1.50541 0.55496,-0.51286 1.03639,-1.05664 1.31322,-1.7136 0.21586,-0.5697 0.44022,-1.14757 0.45283,-1.74931 -0.0637,-0.61612 -0.1976,-1.22317 -0.52097,-1.78723 -0.36959,-0.64309 -0.76505,-1.28321 -1.33937,-1.82149 -0.56868,-0.4334 -1.1505,-0.88885 -1.92453,-1.04233 -0.79898,-0.16283 -1.60056,-0.33224 -2.43253,-0.29145 -0.94796,0.006 -1.91017,1.5e-4 -2.83608,0.18994 -0.93409,0.25595 -0.53969,0.17509 1.04266,-0.61018 0.11699,-0.0581 -0.23642,0.11307 -0.34929,0.17643 -0.40112,0.22518 -0.74816,0.50549 -1.13283,0.74809 -0.82241,0.54041 -1.65487,1.06847 -2.2473,1.79946 -0.5545,0.60625 -1.08295,1.21291 -1.42075,1.92679 -0.2857,0.48121 -0.37625,0.98478 -0.3333,1.51975 0.005,0.51653 0.008,1.03571 0.10987,1.54684 0.14593,0.61252 0.41467,1.18693 0.72574,1.75508 0.35968,0.61008 0.73766,1.2059 1.25515,1.73934 0.50057,0.54482 1.09205,1.03245 1.73926,1.45899 0.67805,0.41769 1.39313,0.79111 2.15452,1.09803 0.69013,0.27854 1.42742,0.43225 2.17597,0.56778 0.70997,0.0753 1.4201,0.0649 2.13422,0.0306 0.83208,-0.0389 1.66,-0.109 2.48539,-0.20468 0.8864,-0.0653 1.78055,-0.056 2.66194,-0.17132 0.86979,-0.0992 1.74413,-0.17355 2.60815,-0.30096 0.81613,-0.14965 1.62815,-0.31409 2.45199,-0.43403 0.77815,-0.11091 1.53646,-0.29448 2.30451,-0.4439 0.81263,-0.19524 1.62038,-0.40699 2.44053,-0.5788 0.69544,-0.12878 1.37726,-0.30744 2.05318,-0.49224 0.7393,-0.24643 1.46137,-0.5269 2.21064,-0.75316 0.73929,-0.21763 1.47658,-0.43883 2.19028,-0.70967 0.76298,-0.25599 3.45676,-1.36532 0.37404,5.3e-4 0.91997,-0.44193 1.82342,-0.90055 2.60199,-1.50759 0.67871,-0.51246 1.19094,-1.11416 1.47306,-1.84455 0.19268,-0.66107 0.22553,-1.33177 0.1645,-2.0093 -0.0487,-0.58186 -0.14949,-1.15303 -0.51677,-1.66489 -0.444,-0.60066 -0.92015,-1.18929 -1.63145,-1.59749 -0.73031,-0.41482 -1.46798,-0.80317 -2.36163,-0.92779 -0.88688,-0.16585 -1.74954,-0.45214 -2.67026,-0.45137 -0.39751,-6e-5 -0.74097,0.0106 -1.11881,0.12446 -0.11288,0.034 -0.43193,0.1719 -0.33053,0.11871 0.35542,-0.18645 2.25518,-1.10774 1.0931,-0.52293 -0.80649,0.48701 -1.58717,1.00414 -2.19022,1.67031 -0.50854,0.60128 -1.11201,1.15776 -1.50455,1.81778 -0.33073,0.54966 -0.65371,1.09898 -0.85347,1.69355 -0.19808,0.517 -0.22284,1.04308 -0.19779,1.58279 0.002,0.60921 -6.5e-4,1.2226 0.11947,1.82547 0.1521,0.5937 0.42444,1.11367 0.9186,1.57351 0.52343,0.4784 1.11256,0.89362 1.75001,1.2671 0.60176,0.38242 1.17981,0.79182 1.84201,1.10497 0.59152,0.32015 1.23196,0.56233 1.86513,0.82074 0.71666,0.20537 1.47737,0.27433 2.21987,0.39382 0.83851,0.075 1.6745,0.18516 2.52106,0.14143 0.90213,-0.01 1.80554,-0.0259 2.70345,-0.10446 0.8147,-0.0808 1.62588,-0.18471 2.44796,-0.19958 0.70947,-0.0578 1.40953,-0.15739 2.10488,-0.28737 0.71224,-0.09 1.40651,-0.24403 2.11343,-0.35681 0.71536,-0.14761 1.43009,-0.31478 2.11487,-0.54109 0.67118,-0.23741 1.34199,-0.47534 2.01168,-0.71555 0.24686,-0.10294 0.9725,-0.43453 0.7361,-0.31607 -0.47336,0.23718 -0.95543,0.46232 -1.43198,0.69509 -0.12333,0.0602 0.24807,-0.11842 0.37223,-0.17747 0.71937,-0.34212 1.43478,-0.68997 2.15833,-1.02605 0.49014,-0.22765 -0.97203,0.46719 -1.45803,0.70078 0.72412,-0.34449 1.44623,-0.69186 2.17235,-1.03346 0.11809,-0.0556 0.4763,-0.21612 0.3601,-0.15793 -0.48578,0.24322 -1.9619,0.94682 -1.46922,0.71325 0.91437,-0.43348 1.80032,-0.91218 2.75235,-1.28938 0.66475,-0.26671 1.36047,-0.47903 2.00426,-0.78261 0.7649,-0.34365 0.84431,-0.38346 -1.08507,0.53797 -0.11893,0.0568 0.23567,-0.11675 0.35172,-0.17747 0.33607,-0.17585 0.67369,-0.35335 0.97888,-0.56486 0.72957,-0.4812 1.39992,-1.02505 2.05475,-1.57355 0.49631,-0.52736 0.94538,-1.08197 1.33966,-1.66539 0.3457,-0.46686 0.53335,-0.9675 0.69373,-1.49647 0.1086,-0.51765 0.2061,-1.02775 0.14789,-1.5561 -0.0196,-0.55045 -0.0415,-1.11302 -0.28665,-1.63266 -0.32899,-0.49826 -0.82077,-0.88265 -1.35403,-1.23586 -0.71256,-0.39944 -1.47148,-0.70004 -2.32994,-0.81788 -0.80628,-0.14315 -1.58508,-0.15662 -2.38974,0.0211 -0.92047,0.17108 -1.84989,0.34069 -2.72493,0.6369 -0.43146,0.13908 -0.87945,0.25629 -1.29994,0.41728 -0.11666,0.0446 -0.45225,0.20193 -0.34211,0.14715 2.11385,-1.05148 1.88673,-0.93413 1.20177,-0.55979 -0.67319,0.38473 -1.19121,0.90783 -1.68486,1.44234 -0.47623,0.55197 -0.9261,1.12385 -1.31815,1.71899 -0.32102,0.50787 -0.6178,1.0331 -0.81132,1.58404 -0.207,0.62324 -0.22198,1.25838 -0.16513,1.90104 0.045,0.53627 0.13442,1.06814 0.43684,1.55321 0.36989,0.5891 0.71534,1.19518 1.19409,1.73059 0.56993,0.6329 1.26584,1.17383 1.97483,1.7004 0.81037,0.55749 1.70874,0.99778 2.65628,1.38074 0.81414,0.29666 1.64858,0.56289 2.50218,0.77189 0.72182,0.15837 1.46,0.22836 2.20028,0.30264 0.88931,0.0829 1.78039,0.0604 2.6717,-0.002 0.90218,-0.0688 1.80635,-0.16108 2.66512,-0.41252 0,0 -1.68545,1.07969 -1.68545,1.07969 z"
           id="path4397"
           style="fill:#ff0000;fill-opacity:1;stroke:#ff0000;stroke-width:0.39176998;stroke-miterlimit:4;stroke-dasharray:none;stroke-dashoffset:0;stroke-opacity:1" />
        <path
           inkscape:connector-curvature="0"
           d="m 456.08349,177.05893 c 1.66806,0.57805 3.29864,1.28854 4.87397,2.08619 0.73944,0.51336 2.27464,0.64174 2.56516,1.66085 0.039,0.13686 0.0166,0.28414 0.0249,0.42622 -0.29143,1.19724 -1.23113,1.92124 -2.23734,2.51686 -1.64189,0.92763 -3.3167,1.84541 -5.09569,2.48931 -0.17479,0.0727 -0.34959,0.14536 -0.52439,0.21804 0,0 1.56204,-1.23037 1.56204,-1.23037 l 0,0 c 0.17607,-0.071 0.35214,-0.14193 0.52821,-0.2129 0.75091,-0.28743 1.48157,-0.62364 2.21058,-0.96266 0.19624,-0.0913 0.75571,-0.41535 0.58419,-0.28336 -0.34718,0.26715 -0.7444,0.46204 -1.11659,0.69305 0.99227,-0.56265 1.91209,-1.1882 2.30856,-2.31965 0.007,-0.11419 0.0446,-0.23063 0.0209,-0.34257 -0.2,-0.9479 -1.85377,-1.06963 -2.47727,-1.57018 -1.57183,-0.79018 -3.19508,-1.51246 -4.87376,-2.04121 0,0 1.64652,-1.12762 1.64652,-1.12762 z"
           id="path4399"
           style="fill:#ff0000;fill-opacity:1;stroke:#ff0000;stroke-width:1;stroke-miterlimit:4;stroke-dasharray:none;stroke-dashoffset:0;stroke-opacity:1" />
        <path
           inkscape:connector-curvature="0"
           d="m 344.44295,189.77302 c 1.41787,-0.23825 2.8487,-0.11192 4.27348,-0.0257 1.1455,0.0431 2.27209,0.081 3.39831,0.29526 1.11238,0.21825 2.24727,0.27485 3.3775,0.31479 1.11311,0.0879 2.19025,-0.005 3.26285,-0.30868 0,0 -3.94564,3.01386 -3.94564,3.01386 l 0,0 c -1.11038,0.23143 -2.21901,0.29339 -3.3516,0.19982 -1.14585,-0.0571 -2.29326,-0.1413 -3.4205,-0.36573 -1.10845,-0.18341 -2.22979,-0.1769 -3.34866,-0.2603 -1.41746,-0.087 -2.84088,-0.16572 -4.24113,0.14152 0,0 3.99539,-3.00486 3.99539,-3.00486 z"
           id="path4409"
           style="fill:#ff0000;fill-opacity:1;stroke:#ff0000;stroke-width:1;stroke-miterlimit:4;stroke-dasharray:none;stroke-dashoffset:0;stroke-opacity:1" />
        <path
           style="fill:#ff0000;fill-opacity:1;stroke:#ff0000;stroke-width:0.39176998;stroke-miterlimit:4;stroke-dasharray:none;stroke-dashoffset:0;stroke-opacity:1"
           id="path4429"
           d="m 455.48898,182.59534 c -0.8669,0.22904 -1.77343,0.30475 -2.67578,0.36797 -0.90357,0.0641 -1.80317,0.0681 -2.70237,-0.025 -0.75105,-0.0695 -1.49612,-0.14508 -2.22195,-0.32347 -0.8549,-0.22124 -1.69494,-0.49174 -2.5104,-0.79818 -0.96016,-0.39578 -1.86387,-0.85238 -2.68383,-1.4232 -0.71977,-0.53773 -1.43306,-1.08427 -2.00873,-1.73159 -0.48635,-0.54235 -0.83881,-1.15518 -1.21716,-1.75094 -0.31838,-0.5038 -0.4306,-1.05552 -0.4805,-1.61504 -0.0537,-0.65745 -0.0415,-1.30808 0.1371,-1.95149 0.17465,-0.56572 0.47674,-1.09753 0.78943,-1.61889 0.38582,-0.60542 0.84144,-1.18057 1.31163,-1.74355 0.48458,-0.54636 1.01027,-1.07147 1.65526,-1.49307 1.24509,-0.88423 2.6272,-1.24127 4.06902,-1.72466 0.8865,-0.28093 1.82298,-0.45185 2.75047,-0.61757 0.83169,-0.18637 1.62098,-0.11801 2.44477,0.0403 0.88074,0.12302 1.65091,0.45711 2.37382,0.87406 0.56097,0.37214 1.06643,0.778 1.41606,1.29999 0.26726,0.54149 0.30493,1.12876 0.33184,1.70571 0.0526,0.53635 -0.0174,1.06016 -0.12672,1.5874 -0.14915,0.54247 -0.33923,1.06629 -0.66548,1.55425 -0.39815,0.58804 -0.84617,1.1507 -1.33697,1.68861 -0.62543,0.57837 -1.31867,1.10921 -2.03525,1.61017 -1.17671,0.78272 -2.53433,1.3541 -3.85471,1.95116 -0.64715,0.30373 -1.35778,0.49284 -2.01233,0.78162 0.18828,-0.11355 -0.82761,0.36467 -0.62389,0.26871 0.50128,-0.23613 2.00729,-0.94135 1.50556,-0.70588 -0.72005,0.33795 -1.43886,0.67772 -2.16055,1.01329 -0.1179,0.0548 -0.47491,0.21425 -0.35813,0.15782 0.48163,-0.23273 0.9686,-0.45788 1.45289,-0.68683 -0.72193,0.34046 -1.4417,0.68405 -2.16579,1.02138 -0.49127,0.22888 0.97809,-0.46422 1.46738,-0.696 0.1252,-0.0593 -0.24952,0.11987 -0.37513,0.1786 -0.96863,0.45288 -1.92787,0.93462 -2.93243,1.33597 -0.67864,0.22697 -1.34741,0.47174 -2.02077,0.70925 -0.69945,0.20145 -1.413,0.3886 -2.1383,0.51705 -0.71155,0.11227 -1.40797,0.26789 -2.12775,0.34682 -0.69061,0.15179 -1.39941,0.22979 -2.11016,0.27958 -0.82099,-0.003 -1.62636,0.12687 -2.43967,0.1993 -0.90176,0.0693 -1.80741,0.0796 -2.71232,0.0879 -0.85304,0.0468 -1.6927,-0.0845 -2.53774,-0.15685 -0.75666,-0.13612 -1.53303,-0.1914 -2.25679,-0.42564 -0.64046,-0.27657 -1.2926,-0.51909 -1.89117,-0.85585 -0.67032,-0.30905 -1.23779,-0.73634 -1.84757,-1.11469 -0.64901,-0.37857 -1.24146,-0.80719 -1.77111,-1.29492 -0.51587,-0.4821 -0.80403,-1.03172 -0.97428,-1.65125 -0.13301,-0.61227 -0.13447,-1.23741 -0.14119,-1.85751 -0.0275,-0.55153 -0.002,-1.09173 0.16813,-1.62668 0.20523,-0.59993 0.50755,-1.1676 0.84283,-1.72424 0.38403,-0.6726 0.97599,-1.24379 1.49819,-1.84492 0.59352,-0.67883 1.35937,-1.22249 2.16521,-1.72159 1.00455,-0.50052 2.03932,-1.26181 3.23993,-1.39049 0.23459,-0.0252 0.56198,-0.003 0.79427,0.005 0.92609,0.0255 1.79008,0.32413 2.68891,0.48174 0.91479,0.13697 1.66371,0.55394 2.4079,0.98418 0.73044,0.42631 1.21889,1.03843 1.68071,1.65723 0.38982,0.53283 0.51174,1.12678 0.56953,1.73585 0.0648,0.69094 0.0277,1.37828 -0.14111,2.05678 -0.25303,0.75608 -0.76543,1.39307 -1.43117,1.94135 -0.77417,0.61321 -1.66297,1.09837 -2.5838,1.54529 -1.28573,0.66557 -2.59963,1.25458 -4.00942,1.70424 -0.70743,0.27899 -1.44961,0.48823 -2.18922,0.70036 -0.74443,0.23715 -1.46299,0.52345 -2.20794,0.75953 -0.69058,0.16744 -1.37321,0.35779 -2.08064,0.47262 -0.81013,0.18578 -1.61325,0.39301 -2.42224,0.58339 -0.77628,0.14311 -1.5335,0.33524 -2.32219,0.42766 -0.821,0.12729 -1.62934,0.29905 -2.44581,0.443 -0.86968,0.10431 -1.74224,0.18845 -2.61379,0.28754 -0.88356,0.11426 -1.7811,0.0819 -2.66702,0.16687 -0.82726,0.10686 -1.6609,0.16549 -2.49662,0.20104 -0.72565,0.0434 -1.44036,0.0297 -2.15906,-0.0569 -0.76516,-0.15518 -1.51115,-0.31606 -2.21244,-0.61733 -0.77085,-0.31105 -1.48863,-0.6991 -2.17124,-1.12593 -0.65955,-0.43966 -1.26203,-0.94034 -1.77522,-1.49741 -0.52236,-0.54365 -0.90433,-1.15154 -1.27444,-1.76916 -0.31676,-0.58088 -0.59619,-1.16778 -0.75694,-1.79159 -0.11517,-0.51967 -0.12482,-1.04904 -0.13167,-1.57561 -0.0395,-0.55089 0.0395,-1.07895 0.29506,-1.58853 0.35104,-0.71868 0.86244,-1.35245 1.4218,-1.96937 0.59281,-0.735 1.39918,-1.29238 2.22446,-1.83898 1.22002,-0.82769 2.50722,-1.69104 4.06837,-2.02624 0.94256,-0.15506 1.91062,-0.14267 2.86759,-0.14853 0.84648,-0.0405 1.65767,0.1613 2.47023,0.32214 0.79685,0.17738 1.39104,0.66715 1.97702,1.12051 0.58337,0.55995 1.00578,1.21229 1.38377,1.87685 0.33339,0.58086 0.49075,1.20373 0.56133,1.83917 0.0207,0.62295 -0.20114,1.22075 -0.41757,1.81032 -0.26513,0.67303 -0.73015,1.24906 -1.28186,1.78216 -0.60671,0.54874 -1.23168,1.0844 -1.944,1.54015 -1.26579,0.70437 -2.55988,1.42385 -3.99989,1.85799 -0.96494,0.30667 -1.88759,0.69202 -2.85475,0.99374 -0.79456,0.2219 -1.58774,0.44398 -2.40235,0.61122 -0.84198,0.13109 -1.6876,0.24924 -2.53539,0.35401 -0.83645,0.0682 -1.65628,0.21366 -2.4907,0.29699 -0.81625,0.0368 -1.61697,0.1709 -2.4258,0.25995 -0.74426,0.0779 -1.47628,0.21265 -2.22252,0.28446 -0.64564,0.0552 -1.29519,0.0617 -1.94366,0.0659 -0.8325,0.0205 -1.65845,0.1342 -2.49023,0.18557 -0.56093,0.0328 -1.12299,0.0473 -1.68503,0.0587 0,0 1.71169,-1.03085 1.71169,-1.03085 l 0,0 c 0.55764,-0.0117 1.11536,-0.0266 1.67165,-0.0625 0.83737,-0.0593 1.67023,-0.17465 2.51119,-0.18302 0.64289,-0.006 1.28691,-0.0169 1.92607,-0.0797 0.743,-0.0794 1.47449,-0.21379 2.21867,-0.28499 0.80662,-0.093 1.60885,-0.21035 2.42251,-0.25577 0.8309,-0.0905 1.65193,-0.23101 2.48645,-0.30015 0.84379,-0.10963 1.68954,-0.2189 2.52387,-0.36931 0.80395,-0.18111 1.59579,-0.39267 2.38119,-0.62259 0.96369,-0.31284 1.891,-0.69514 2.85994,-0.99782 0.71227,-0.24344 2.13824,-0.93949 -0.70164,0.42093 -0.11744,0.0563 0.23228,-0.11611 0.34892,-0.17351 0.51908,-0.25537 0.21441,-0.0915 0.72657,-0.38587 0.72974,-0.43168 1.34643,-0.96647 1.95948,-1.50541 0.55496,-0.51286 1.03639,-1.05664 1.31322,-1.7136 0.21586,-0.5697 0.44022,-1.14757 0.45283,-1.74931 -0.0637,-0.61612 -0.1976,-1.22317 -0.52097,-1.78723 -0.36959,-0.64309 -0.76505,-1.28321 -1.33937,-1.82149 -0.56868,-0.4334 -1.1505,-0.88885 -1.92453,-1.04233 -0.79898,-0.16283 -1.60056,-0.33224 -2.43253,-0.29145 -0.94796,0.006 -1.91017,1.5e-4 -2.83608,0.18994 -0.93409,0.25595 -0.53969,0.17509 1.04266,-0.61018 0.11699,-0.0581 -0.23642,0.11307 -0.34929,0.17643 -0.40112,0.22518 -0.74816,0.50549 -1.13283,0.74809 -0.82241,0.54041 -1.65487,1.06847 -2.2473,1.79946 -0.5545,0.60625 -1.08295,1.21291 -1.42075,1.92679 -0.2857,0.48121 -0.37625,0.98478 -0.3333,1.51975 0.005,0.51653 0.008,1.03571 0.10987,1.54684 0.14593,0.61252 0.41467,1.18693 0.72574,1.75508 0.35968,0.61008 0.73766,1.2059 1.25515,1.73934 0.50057,0.54482 1.09205,1.03245 1.73926,1.45899 0.67805,0.41769 1.39313,0.79111 2.15452,1.09803 0.69013,0.27854 1.42742,0.43225 2.17597,0.56778 0.70997,0.0753 1.4201,0.0649 2.13422,0.0306 0.83208,-0.0389 1.66,-0.109 2.48539,-0.20468 0.8864,-0.0653 1.78055,-0.056 2.66194,-0.17132 0.86979,-0.0992 1.74413,-0.17355 2.60815,-0.30096 0.81613,-0.14965 1.62815,-0.31409 2.45199,-0.43403 0.77815,-0.11091 1.53646,-0.29448 2.30451,-0.4439 0.81263,-0.19524 1.62038,-0.40699 2.44053,-0.5788 0.69544,-0.12878 1.37726,-0.30744 2.05318,-0.49224 0.7393,-0.24643 1.46137,-0.5269 2.21064,-0.75316 0.73929,-0.21763 1.47658,-0.43883 2.19028,-0.70967 0.76298,-0.25599 3.45676,-1.36532 0.37404,5.3e-4 0.91997,-0.44193 1.82342,-0.90055 2.60199,-1.50759 0.67871,-0.51246 1.19094,-1.11416 1.47306,-1.84455 0.19268,-0.66107 0.22553,-1.33177 0.1645,-2.0093 -0.0487,-0.58186 -0.14949,-1.15303 -0.51677,-1.66489 -0.444,-0.60066 -0.92015,-1.18929 -1.63145,-1.59749 -0.73031,-0.41482 -1.46798,-0.80317 -2.36163,-0.92779 -0.88688,-0.16585 -1.74954,-0.45214 -2.67026,-0.45137 -0.39751,-6e-5 -0.74097,0.0106 -1.11881,0.12446 -0.11288,0.034 -0.43193,0.1719 -0.33053,0.11871 0.35542,-0.18645 2.25518,-1.10774 1.0931,-0.52293 -0.80649,0.48701 -1.58717,1.00414 -2.19022,1.67031 -0.50854,0.60128 -1.11201,1.15776 -1.50455,1.81778 -0.33073,0.54966 -0.65371,1.09898 -0.85347,1.69355 -0.19808,0.517 -0.22284,1.04308 -0.19779,1.58279 0.002,0.60921 -6.5e-4,1.2226 0.11947,1.82547 0.1521,0.5937 0.42444,1.11367 0.9186,1.57351 0.52343,0.4784 1.11256,0.89362 1.75001,1.2671 0.60176,0.38242 1.17981,0.79182 1.84201,1.10497 0.59152,0.32015 1.23196,0.56233 1.86513,0.82074 0.71666,0.20537 1.47737,0.27433 2.21987,0.39382 0.83851,0.075 1.6745,0.18516 2.52106,0.14143 0.90213,-0.01 1.80554,-0.0259 2.70345,-0.10446 0.8147,-0.0808 1.62588,-0.18471 2.44796,-0.19958 0.70947,-0.0578 1.40953,-0.15739 2.10488,-0.28737 0.71224,-0.09 1.40651,-0.24403 2.11343,-0.35681 0.71536,-0.14761 1.43009,-0.31478 2.11487,-0.54109 0.67118,-0.23741 1.34199,-0.47534 2.01168,-0.71555 0.24686,-0.10294 0.9725,-0.43453 0.7361,-0.31607 -0.47336,0.23718 -0.95543,0.46232 -1.43198,0.69509 -0.12333,0.0602 0.24807,-0.11842 0.37223,-0.17747 0.71937,-0.34212 1.43478,-0.68997 2.15833,-1.02605 0.49014,-0.22765 -0.97203,0.46719 -1.45803,0.70078 0.72412,-0.34449 1.44623,-0.69186 2.17235,-1.03346 0.11809,-0.0556 0.4763,-0.21612 0.3601,-0.15793 -0.48578,0.24322 -1.9619,0.94682 -1.46922,0.71325 0.91437,-0.43348 1.80032,-0.91218 2.75235,-1.28938 0.66475,-0.26671 1.36047,-0.47903 2.00426,-0.78261 0.7649,-0.34365 0.84431,-0.38346 -1.08507,0.53797 -0.11893,0.0568 0.23567,-0.11675 0.35172,-0.17747 0.33607,-0.17585 0.67369,-0.35335 0.97888,-0.56486 0.72957,-0.4812 1.39992,-1.02505 2.05475,-1.57355 0.49631,-0.52736 0.94538,-1.08197 1.33966,-1.66539 0.3457,-0.46686 0.53335,-0.9675 0.69373,-1.49647 0.1086,-0.51765 0.2061,-1.02775 0.14789,-1.5561 -0.0196,-0.55045 -0.0415,-1.11302 -0.28665,-1.63266 -0.32899,-0.49826 -0.82077,-0.88265 -1.35403,-1.23586 -0.71256,-0.39944 -1.47148,-0.70004 -2.32994,-0.81788 -0.80628,-0.14315 -1.58508,-0.15662 -2.38974,0.0211 -0.92047,0.17108 -1.84989,0.34069 -2.72493,0.6369 -0.43146,0.13908 -0.87945,0.25629 -1.29994,0.41728 -0.11666,0.0446 -0.45225,0.20193 -0.34211,0.14715 2.11385,-1.05148 1.88673,-0.93413 1.20177,-0.55979 -0.67319,0.38473 -1.19121,0.90783 -1.68486,1.44234 -0.47623,0.55197 -0.9261,1.12385 -1.31815,1.71899 -0.32102,0.50787 -0.6178,1.0331 -0.81132,1.58404 -0.207,0.62324 -0.22198,1.25838 -0.16513,1.90104 0.045,0.53627 0.13442,1.06814 0.43684,1.55321 0.36989,0.5891 0.71534,1.19518 1.19409,1.73059 0.56993,0.6329 1.26584,1.17383 1.97483,1.7004 0.81037,0.55749 1.70874,0.99778 2.65628,1.38074 0.81414,0.29666 1.64858,0.56289 2.50218,0.77189 0.72182,0.15837 1.46,0.22836 2.20028,0.30264 0.88931,0.0829 1.78039,0.0604 2.6717,-0.002 0.90218,-0.0688 1.80635,-0.16108 2.66512,-0.41252 0,0 -1.68545,1.07969 -1.68545,1.07969 z"
           inkscape:connector-curvature="0" />
        <circle
           style="fill:url(#radialGradient5937);fill-opacity:1;stroke:#ff0000;stroke-width:0.171;stroke-miterlimit:4;stroke-dasharray:none;stroke-dashoffset:0;stroke-opacity:1;fill-rule:nonzero"
           id="circle5829"
           cx="265.75644"
           cy="173.70148"
           r="1.2182909" />
        <circle
           r="1.2182909"
           cy="173.70148"
           cx="288.46777"
           id="circle5831"
           style="fill:url(#radialGradient5939);fill-opacity:1;stroke:#ff0000;stroke-width:0.171;stroke-miterlimit:4;stroke-dasharray:none;stroke-dashoffset:0;stroke-opacity:1;fill-rule:nonzero" />
        <circle
           style="fill:url(#radialGradient5941);fill-opacity:1;stroke:#ff0000;stroke-width:0.171;stroke-miterlimit:4;stroke-dasharray:none;stroke-dashoffset:0;stroke-opacity:1;fill-rule:nonzero"
           id="circle5833"
           cx="311.12341"
           cy="173.70148"
           r="1.2182909" />
        <circle
           r="1.2182909"
           cy="173.70148"
           cx="333.43665"
           id="circle5841"
           style="fill:url(#radialGradient5943);fill-opacity:1;stroke:#ff0000;stroke-width:0.171;stroke-miterlimit:4;stroke-dasharray:none;stroke-dashoffset:0;stroke-opacity:1;fill-rule:nonzero" />
        <circle
           style="fill:url(#radialGradient5945);fill-opacity:1;stroke:#ff0000;stroke-width:0.171;stroke-miterlimit:4;stroke-dasharray:none;stroke-dashoffset:0;stroke-opacity:1;fill-rule:nonzero"
           id="circle5843"
           cx="356.14798"
           cy="173.70148"
           r="1.2182909" />
        <circle
           r="1.2182909"
           cy="173.70148"
           cx="378.80362"
           id="circle5845"
           style="fill:url(#radialGradient5947);fill-opacity:1;stroke:#ff0000;stroke-width:0.171;stroke-miterlimit:4;stroke-dasharray:none;stroke-dashoffset:0;stroke-opacity:1;fill-rule:nonzero" />
        <circle
           style="fill:url(#radialGradient5949);fill-opacity:1;stroke:#ff0000;stroke-width:0.171;stroke-miterlimit:4;stroke-dasharray:none;stroke-dashoffset:0;stroke-opacity:1;fill-rule:nonzero"
           id="circle5853"
           cx="402.37955"
           cy="173.70148"
           r="1.2182909" />
        <circle
           r="1.2182909"
           cy="173.70148"
           cx="425.09088"
           id="circle5855"
           style="fill:url(#radialGradient5951);fill-opacity:1;stroke:#ff0000;stroke-width:0.171;stroke-miterlimit:4;stroke-dasharray:none;stroke-dashoffset:0;stroke-opacity:1;fill-rule:nonzero" />
        <circle
           style="fill:url(#radialGradient5953);fill-opacity:1;stroke:#ff0000;stroke-width:0.171;stroke-miterlimit:4;stroke-dasharray:none;stroke-dashoffset:0;stroke-opacity:1;fill-rule:nonzero"
           id="circle5857"
           cx="447.74652"
           cy="173.70148"
           r="1.2182909" />
      </g>
    </g>
  </g>
</svg>
